<svg xmlns="http://www.w3.org/2000/svg" width="277.933" height="317.227" viewBox="0 0 277.933 317.227"><defs><style>.a{fill:#f9b615;}.b{fill:#fa8565;}.c{fill:#f9f4ed;}.d,.e{fill:#fff;}.e{opacity:0.1;}.f{fill:#df8366;}.g{fill:#f3d3c7;}.h{fill:#323242;}.i{fill:#ecb7b7;}.j{fill:#f9efe6;}.k{fill:#281510;}.l{fill:#2ee5ff;opacity:0.066;}</style></defs><g transform="translate(0 51.258)"><g transform="translate(0 -22.707)"><path class="a" d="M108.829,155.525a4.674,4.674,0,1,1-4.674-4.674A4.674,4.674,0,0,1,108.829,155.525Z" transform="translate(0.31 0.469)"/><path class="a" d="M241.687,51.758a2.658,2.658,0,1,1-.782-1.893A2.668,2.668,0,0,1,241.687,51.758Z" transform="translate(0.735 0.153)"/><path class="b" d="M37.171,115.74a2.51,2.51,0,1,1-2.51-2.51A2.51,2.51,0,0,1,37.171,115.74Z" transform="translate(4.678 6.044)"/><path class="a" d="M113.117,263.663a4.3,4.3,0,1,1-4.3-4.293,4.3,4.3,0,0,1,4.3,4.293Z" transform="translate(0.325 0.807)"/><path class="a" d="M252.549,142.65a3.07,3.07,0,1,1-3.069-3.07A3.069,3.069,0,0,1,252.549,142.65Z" transform="translate(0.767 0.434)"/><path class="a" d="M256.53,234.72a3.27,3.27,0,1,1-3.27-3.27A3.27,3.27,0,0,1,256.53,234.72Z" transform="translate(0.778 0.72)"/><circle class="a" cx="3.32" cy="3.32" r="3.32" transform="translate(63.718 204.715)"/><circle class="b" cx="2.036" cy="2.036" r="2.036" transform="translate(75.715 88.053)"/><path class="b" d="M130.118,35.539a2.839,2.839,0,1,1-2.829-2.829A2.839,2.839,0,0,1,130.118,35.539Z" transform="translate(0.387 0.102)"/><circle class="b" cx="2.799" cy="2.799" r="2.799" transform="translate(181.774)"/><circle class="b" cx="2.759" cy="2.759" r="2.759" transform="translate(231.568 154.499)"/><path class="b" d="M156.6,248.631a3.591,3.591,0,1,1-1.037-2.565A3.6,3.6,0,0,1,156.6,248.631Z" transform="translate(0.465 0.762)"/><path class="c" d="M18.527,30.99l.823,1.495,1.495.823-1.495.823-.823,1.495L17.7,34.13l-1.495-.823,1.495-.823Z" transform="translate(0.05 0.096)"/><path class="c" d="M3.33,263.65l1.184,2.157,2.147,1.174-2.147,1.184L3.33,270.321l-1.174-2.157L0,266.98l2.157-1.174Z" transform="translate(0 0.82)"/><path class="c" d="M222.131,2.79l3.531,6.44,6.44,3.521-6.44,3.521-3.531,6.44-3.521-6.44-6.43-3.521,6.43-3.521Z" transform="translate(0.66 0.009)"/><path class="c" d="M135.994,222.26l1.625,2.979,2.979,1.625-2.979,1.635-1.625,2.979-1.625-2.979-2.979-1.635,2.979-1.625Z" transform="translate(0.409 0.692)"/><path class="c" d="M196.992,273.58l2.518,4.6,4.6,2.518-4.6,2.518-2.518,4.6-2.518-4.6-4.6-2.518,4.6-2.518Z" transform="translate(0.591 0.851)"/><path class="c" d="M214.7,215.2l1.6,2.939,2.939,1.6-2.939,1.605-1.6,2.929-1.6-2.929-2.939-1.605,2.939-1.6Z" transform="translate(0.654 0.67)"/><path class="c" d="M206.483,23.57l1.455,2.648,2.658,1.455-2.658,1.455-1.455,2.658-1.444-2.658-2.658-1.455,2.658-1.455Z" transform="translate(0.63 0.073)"/><circle class="a" cx="3.32" cy="3.32" r="3.32" transform="translate(271.292 184.954)"/><path class="c" d="M76.752,35.75l2.518,4.6,4.6,2.518-4.6,2.518-2.518,4.6-2.518-4.6-4.6-2.518,4.6-2.518Z" transform="translate(0.217 0.111)"/><g transform="translate(118.783 23.015)"><ellipse class="d" cx="0.461" cy="0.471" rx="0.461" ry="0.471" transform="translate(71.337 131.705)"/><ellipse class="d" cx="0.461" cy="0.471" rx="0.461" ry="0.471" transform="translate(89.814 94.991)"/><ellipse class="d" cx="0.461" cy="0.471" rx="0.461" ry="0.471" transform="translate(64.867 24.382)"/><path class="e" d="M174.411,87.61h7.022q-3.671,1.926-7.363,3.822V87.781Z" transform="translate(-118.241 -22.743)"/><path class="f" d="M201.061,141.795a4.815,4.815,0,0,1,4.323-2.9l.632-1.816,9.429,4.283-6.079,10.9-7.453-3.391.461-1.334a4.935,4.935,0,0,1-1.314-5.738Zm1.555,5.016,2.448-7.022a4.865,4.865,0,0,0-2.829,2.929,4.955,4.955,0,0,0,.381,4.093Z" transform="translate(-118.159 -22.589)"/><path class="g" d="M201.013,134.82s12.208,8.878,8.135,12.439S196.94,136.6,196.94,136.6Z" transform="translate(-118.17 -22.596)"/><path class="g" d="M142.5,148.873s2.317,29.6,2.9,33.745,1.164,41.459,2.327,45.6,2.3,14.214,2.3,14.214h7.022s-.582-18.357,1.164-25.469,1.164-26.643,1.164-26.643,3.481-34.938,1.745-39.683S142.5,148.873,142.5,148.873Z" transform="translate(-118.339 -22.555)"/><path class="h" d="M151.788,240.37s-2.909,1.776-2.909,2.959.582,4.143,0,5.327-4.654,5.928-2.327,7.112,12.79,0,12.79,0-.582-8.3-1.164-8.888.582-6.51.582-6.51Z" transform="translate(-118.329 -22.267)"/><path class="g" d="M186.847,148.14s.732,29.692.582,33.875,3.12,41.348,2.387,45.6S188.974,242,188.974,242l-6.942.742s-1.314-18.317-3.782-25.2-3.9-26.382-3.9-26.382S167.327,156.8,168.53,151.9,186.847,148.14,186.847,148.14Z" transform="translate(-118.259 -22.555)"/><path class="h" d="M187.022,240.13s3.08,1.454,3.2,2.638-.15,4.183.552,5.3,5.226,5.387,3.009,6.821-12.719,1.364-12.719,1.364-.271-8.306.241-8.958-1.244-6.42-1.244-6.42Z" transform="translate(-118.223 -22.268)"/><path class="b" d="M150.646,104.6s5.878-9.419-1.675,6.54c-.572,3.15-6.41,18.056-6.791,27.646-1.3,32.862-1.083,88.976-2.869,93.129-2.3,5.327,21.136,9.419,21.507,4.143s6.149-87.6,6.149-87.6,7.7,86.2,8.587,89.438,21.4.682,22.239-4.935c-11.726-64.289-8.968-94.172-8.968-94.172s-1.164-18.437-9.4-27.636c-2.006-2.006-1.665-3.671-1.465-6.55Z" transform="translate(-118.35 -22.698)"/><path class="g" d="M141.922,99.872s7.553-1.776,8.717.592-2.909,5.918-4.654,5.918-4.644-1.776-4.644-1.776Z" transform="translate(-118.343 -22.707)"/><ellipse class="i" cx="10.462" cy="10.663" rx="10.462" ry="10.663" transform="translate(39.859 4.731)"/><path class="i" d="M162.288,45.577S161,55.037,159.88,55.037s8.717,5.337,8.717,5.337l7.553-1.184,2.327-3.561s-3.611-5.7-3.611-10.442S162.288,45.577,162.288,45.577Z" transform="translate(-118.286 -22.881)"/><path class="j" d="M164.571,55a8.477,8.477,0,0,0-2.327-1.184H157.6c-.582,0-8.135,1.776-8.135,1.776L144.81,82.248s8.135,13.622,2.327,24.275c0,0,10.4,3.29,18.537,3.882a37.757,37.757,0,0,0,14.6-2.107c.582,0,.582-4.735,0-5.918s.582-.592.582-3.551,1.735-8.3,1.735-8.3l8.135-30.194S180.27,54.412,178.525,55s-7.022,2.367-8.135,1.776A53.165,53.165,0,0,0,164.571,55Z" transform="translate(-118.332 -22.848)"/><path class="j" d="M151.292,56.182l-1.745-.592s-3.461-.592-7.553,2.959-19.179,14.214-19.179,14.214S117,77.5,118.741,82.795s4.654,18.357,13.371,17.765c0,0,5.226,7.1,8.135,5.918s5.226-5.918,3.481-6.51-6.39-6.52-6.39-6.52L143.147,82.2h1.745l6.4-3.551Z" transform="translate(-118.414 -22.842)"/><path class="j" d="M183.236,60.2l4.685.261s4.173,1.485,4.123,9.209-.311,8.025,5.537,30.585c0,0,6.6,35.651,5.487,36.333s-7.834,4.715-7.423,2.307-4.293-17.344-4.293-17.344a47.145,47.145,0,0,1-6.42-18.357L181.17,89.451Z" transform="translate(-118.219 -22.828)"/><path class="k" d="M195.817,47.905c-1.294-1.866-2.889-3.5-4.253-5.316-3.16-4.183-4.253-9.76-8.486-12.96s-10.834-6.3-16.05-6.019c-6.911.331-12.388,5.788-17.153,10.9L138.931,46.19c-2.638,2.829-5.367,5.828-6.31,9.6a15.95,15.95,0,0,0,1.645,10.864,26.292,26.292,0,0,0,7.132,8.677c3.641-5.126,8.777-12.208,8.777-12.208l1.194,17.615a49.694,49.694,0,0,0,19.37,2.006l1.926-7.222,2.006,6.821c7.794-1,15.628-3.792,20.453-10.031A21.326,21.326,0,0,0,195.817,47.905Z" transform="translate(-118.371 -22.942)"/><path class="k" d="M152.212,46.132a18.7,18.7,0,0,1,3.712-15.618c6.691-8.085,19.22-8.536,27.987-1a22.65,22.65,0,0,1,7.212,11.435,22.429,22.429,0,0,0-7.463-12.659c-8.757-7.523-21.286-7.022-27.987,1A18.818,18.818,0,0,0,152.212,46.132Z" transform="translate(-118.311 -22.944)"/><path class="k" d="M131.692,72.072a18.628,18.628,0,0,1,3.7-15.608c6.7-8.085,19.23-8.547,27.987-1a22.48,22.48,0,0,1,7.182,11.446A22.44,22.44,0,0,0,163.1,54.237c-8.767-7.523-21.3-7.022-27.987,1A18.8,18.8,0,0,0,131.692,72.072Z" transform="translate(-118.375 -22.863)"/><path class="k" d="M178.23,43.111a17.855,17.855,0,0,1,14.886,5.3c7.242,7.574,6.45,20.323-1.755,28.468a21.958,21.958,0,0,1-11.9,6.159,21.728,21.728,0,0,0,13.1-6.32c8.215-8.145,9.028-20.885,1.765-28.468a18.056,18.056,0,0,0-16.1-5.136Z" transform="translate(-118.228 -22.882)"/><path class="e" d="M214.6,119.86a2.688,2.688,0,0,0-2.949.883,4.3,4.3,0,0,0-.562,1.113,6.47,6.47,0,0,0,1.444,6.38,12.045,12.045,0,0,1,1.174,1.2,3.762,3.762,0,0,1,.421,3.37,5.6,5.6,0,0,1-2.147,2.688,1.5,1.5,0,0,0-.512.461c-.371.652.381,1.374.522,2.107" transform="translate(-118.127 -22.643)"/></g></g><ellipse class="l" cx="102.21" cy="98.868" rx="102.21" ry="98.868" transform="translate(64.613 -51.258)"/></g></svg>