<svg xmlns="http://www.w3.org/2000/svg" width="40" height="40" viewBox="0 0 40 40"><defs><style>.a{fill:#fa8565;}</style></defs><g transform="translate(0 0)"><path class="a" d="M20,40A20,20,0,1,1,40,20,20,20,0,0,1,20,40ZM20,.976A19.024,19.024,0,1,0,39.024,20,19.024,19.024,0,0,0,20,.976Z" transform="translate(0 0)"/><path class="a" d="M32.32,27.744h1.471V26.3a3.736,3.736,0,0,1,.48-2.231,2.647,2.647,0,0,1,2.319-1.083,9.348,9.348,0,0,1,2.667.268l-.372,2.2a5.014,5.014,0,0,0-1.2-.18c-.58,0-1.1.208-1.1.8v1.667h2.375L38.8,29.9H36.59v7.48h-2.8V29.9H32.32Z" transform="translate(-15.791 -10.185)"/></g></svg>