<svg xmlns="http://www.w3.org/2000/svg" width="206.765" height="223.16" viewBox="0 0 206.765 223.16"><defs><style>.a,.e{fill:#1f5269;}.b,.g{fill:#3dadbd;}.c,.e,.g{opacity:0.1;}.d{fill:none;stroke:#1f5269;stroke-miterlimit:10;stroke-width:2px;}.f{fill:#fa8565;}</style></defs><g transform="translate(-827.482 -4278.419)"><g transform="translate(829.906 4277.285) rotate(1)"><g transform="translate(0 0)"><path class="a" d="M15.648,43.633c-20.7,32.4-14.9,73.682-14.9,73.682s39.361-11.237,60.061-43.633S75.709,0,75.709,0,36.348,11.237,15.648,43.633Z" transform="translate(87.601 21.913)"/><path class="b" d="M88.238,108.217s-.506-.084-1.438-.278c-.743-.155-1.766-.377-3.016-.682-11.17-2.709-40.871-11.844-60.335-35.711C-.912,41.661,0,0,0,0S37.153,6.24,61.689,33.084q1.595,1.73,3.1,3.586c21.2,26,23.256,60.921,23.434,69.552C88.252,107.516,88.238,108.217,88.238,108.217Z" transform="translate(0 30.633)"/><path class="c" d="M26.964,73.138c-.547.673-1.03,1.247-1.427,1.717-.88,1.022-1.379,1.558-1.379,1.558s-.61-.78-1.637-2.24C16.887,66.191-1.243,37.813.068,5.09Q.174,2.518.426,0q1.595,1.73,3.1,3.586C24.727,29.589,26.786,64.507,26.964,73.138Z" transform="translate(61.263 63.717)"/><path class="b" d="M53.846,71.323c-1.544,38.7-29.685,68.817-29.685,68.817S-1.477,107.516.067,68.818,29.752,0,29.752,0,55.39,32.624,53.846,71.323Z" transform="translate(65.029 0)"/></g><line class="d" y1="137.465" x2="5.852" transform="translate(89.188 1.579)"/><path class="d" d="M60.965,43.946c20.866,32.5,15.277,73.761,15.277,73.761S36.822,106.264,15.957,73.761.68,0,.68,0,40.1,11.442,60.965,43.946Z" transform="translate(12.108 21.521)"/></g><g transform="translate(863.57 4414.124)"><path class="e" d="M883.246,741.392C879.8,773.886,858.068,763,831.772,763c-27.78,0-50.463,12.154-51.878-27.516,26.05.8,50.092,1.944,71.327,3.363q2.414.162,4.778.316a.036.036,0,0,0,.033.014C865.758,739.859,874.859,740.6,883.246,741.392Z" transform="translate(-779.789 -677.296)"/><path class="a" d="M779.734,653.56c0-31.02,23.312-56.166,52.068-56.166s52.069,25.147,52.069,56.166-23.312,22-52.069,22S779.734,684.579,779.734,653.56Z" transform="translate(-779.734 -597.393)"/></g><path class="f" d="M1062.173,746.177s-38.761-2.377-34.189,25.288c0,0-.937,4.9,3.439,7.112,0,0,.075-2.052,3.973-1.355a17.591,17.591,0,0,0,4.216.21,8.647,8.647,0,0,0,5.144-2.167h0s10.9-4.582,15.131-22.729c0,0,3.139-3.952,3.017-4.974l-6.558,2.864s2.23,4.773.478,8.8c0,0-.215-8.592-1.471-8.42-.253,0-3.4,1.661-3.4,1.661s3.841,8.382.937,14.463c0,0,1.1-10.32-2.146-13.852l-4.61,2.74s4.5,8.649,1.452,15.7c0,0,.777-10.825-2.417-15.035L1041,759.8s4.216,8.525,1.649,14.377c0,0-.337-12.6-2.558-13.556,0,0-3.645,3.284-4.207,4.63,0,0,2.9,6.186,1.106,9.451,0,0-1.106-8.391-2.005-8.429,0,0-3.635,5.566-4.019,9.374,0,0,.159-5.67,3.139-9.909a10.883,10.883,0,0,0-5.622,2.94s.571-3.933,6.474-4.277c0,0,3-4.219,3.8-4.477,0,0-5.865-.506-9.425,1.107,0,0,3.129-3.714,10.5-2.024l4.123-3.427s-7.73-1.079-11.009.115c0,0,3.748-3.284,12.115-.9l4.488-2.73s-6.559-1.442-10.512-.955c0,0,4.141-2.272,11.824.191l3.2-1.461s-4.825-.955-6.24-1.117-1.49-.554-1.49-.554a16.42,16.42,0,0,1,9.07,1.031S1062.286,746.617,1062.173,746.177Z" transform="translate(-28.66 3718.5)"/><ellipse class="g" cx="27.433" cy="4.725" rx="27.433" ry="4.725" transform="translate(977.513 4491.957)"/></g></svg>