<svg xmlns="http://www.w3.org/2000/svg" xmlns:xlink="http://www.w3.org/1999/xlink" width="768" height="1027" viewBox="0 0 768 1027"><defs><style>.a,.s,.t{fill:#fff;}.a{stroke:#707070;}.b{clip-path:url(#a);}.c{fill:#3f3d56;}.d,.n{fill:#1f5269;}.d,.e{stroke:#3f3d56;}.d,.e,.o,.r{stroke-miterlimit:10;}.d,.e,.r{stroke-width:2px;}.e,.m,.o,.r{fill:none;}.f{fill:#282738;}.g{fill:#f2f2f2;}.h{opacity:0.2;}.i,.l,.o,.t{opacity:0.1;}.j,.l{fill:#3dadbd;}.k{fill:#444053;}.o{stroke:#000;}.p{fill:#38364e;}.q{fill:#d0cde1;}.r{stroke:#fff;opacity:0;}.u{fill:#fa8565;}.v{fill:#ffd5c9;}.w{fill:#2f2e41;}.x{fill:#ffb9b9;}</style><clipPath id="a"><rect class="a" width="768" height="1027"/></clipPath></defs><g class="b"><g transform="translate(-77.72 52.035)"><g transform="translate(0.266 -494.398)"><path class="c" d="M806.046,699.194l-674.535-5.571,6.807-566.577,674.548,12.175Z" transform="translate(-30.705 233.475)"/><path class="d" d="M870.588,2.447,539.446,267.8v905.562l331.142,277.987Z" transform="translate(52.587 -2.447)"/><path class="d" d="M1,2.447,332.141,267.8v905.562L1,1451.349Z" transform="translate(-1 -2.447)"/><line class="e" x2="166.08" y2="2.081" transform="translate(381.49 318.914)"/><path class="c" d="M360.016,177.564l1.421-1.516-7.339-7.121,7.508-6.938-1.383-1.551-9.142,8.451Z" transform="translate(24.612 145.786)"/><path class="c" d="M508.169,179.389l-1.383-1.552,7.507-6.935-7.338-7.124,1.42-1.515,8.936,8.677Z" transform="translate(36.003 147.499)"/><ellipse class="c" cx="13.897" cy="14.159" rx="13.897" ry="14.159" transform="translate(450.609 299.771)"/></g><g transform="translate(114.759 98.732)"><path class="f" d="M344.02,0c190,0,344.02,156.932,344.02,350.517S562.43,664.491,344.02,646.19C97.1,664.243,0,544.1,0,350.517S154.023,0,344.02,0Z" transform="translate(0)"/></g><g transform="translate(193.846 318.898)"><ellipse class="g" cx="1.684" cy="1.716" rx="1.684" ry="1.716" transform="translate(244.262 1.144)"/><ellipse class="g" cx="1.684" cy="1.716" rx="1.684" ry="1.716" transform="translate(197.664 60.063)"/><ellipse class="g" cx="1.123" cy="1.144" rx="1.123" ry="1.144" transform="translate(312.194 70.931)"/><ellipse class="g" cx="1.123" cy="1.144" rx="1.123" ry="1.144" transform="translate(76.397 96.672)"/><ellipse class="g" cx="1.123" cy="1.144" rx="1.123" ry="1.144" transform="translate(318.932 0)"/><ellipse class="g" cx="1.123" cy="1.144" rx="1.123" ry="1.144" transform="translate(388.548 54.914)"/><ellipse class="g" cx="1.123" cy="1.144" rx="1.123" ry="1.144" transform="translate(457.042 141.862)"/><path class="g" d="M302.93,120.041h-1.55v-1.579h-.831v1.579H299v.847h1.549v1.578h.831v-1.578h1.55Z" transform="translate(-155.794 -106.164)"/><path class="h" d="M192.928,722.645c-4.744.624-11.122.6-12.481-.025-1.034-.479-1.673-2.578-1.919-3.552l-.14.023s.676,3.423,2.034,4.053,7.737.648,12.48.025c1.369-.18,1.784-.735,1.671-1.468C194.437,722.169,193.947,722.511,192.928,722.645Z" transform="translate(-134.336 -423.854)"/><path class="i" d="M357.781,691.591c0,17.287-23.649,11.94-52.605,11.94s-52.254,5.347-52.254-11.94,23.646-21.047,52.6-21.047S357.781,674.3,357.781,691.591Z" transform="translate(-232.922 -236.22)"/><path class="c" d="M357.781,684.15c0,17.287-23.649,11.94-52.605,11.94s-52.254,5.347-52.254-11.94,23.646-21.047,52.6-21.047S357.781,666.863,357.781,684.15Z" transform="translate(-232.922 -233.035)"/></g><g transform="translate(144.185 405.823)"><g transform="translate(38.183 75.974)"><path class="j" d="M207.67,648.139s8.71-1.42,13.936,4.854c0,0-3.832,3.075-12.076-1.185Z" transform="translate(-166.834 -378.845)"/><path class="j" d="M201.276,648s-5.556,6.984-2.828,14.753c0,0,4.525-1.844,5.022-11.258Z" transform="translate(-161.372 -378.845)"/><path class="j" d="M194.58,620.516s3.484-6.51,17.42,2.6c0,0-1.86,4.38-8.013,4.025S196.2,623.946,194.58,620.516Z" transform="translate(-159.667 -362.817)"/><path class="j" d="M183,622.122s-7.24-.839-7.927,16.016c0,0,4.584.973,7.837-4.361S184.816,625.451,183,622.122Z" transform="translate(-148.985 -364.893)"/><path class="j" d="M183.29,585.7s4.072-11.479,18.814-3.315c0,0-3.371,10.534-17.307,7.219Z" transform="translate(-153.486 -341.898)"/><path class="j" d="M173.27,549.417s7.669-11.595,21.266-.83c0,0-4.765,10.889-20.094,4.974Z" transform="translate(-147.999 -322.795)"/><path class="j" d="M169.68,514.786s8.945-10.649,22.415,0c0,0-8.479,9.349-22.415,2.72Z" transform="translate(-146.034 -304.494)"/><path class="j" d="M166.6,479.938s9.049-11.124,21.949-.595c0,0-10.217,9.824-21.949,3.195Z" transform="translate(-144.347 -285.5)"/><path class="j" d="M168.4,446.043s9.5-14.319,21.6-4.61c0,0-10.221,12.3-21.6,7.335Z" transform="translate(-145.333 -265.689)"/><path class="j" d="M173.27,411.026s10.108-14.2,21.836-3.31c0,0-11.963,12.3-21.836,5.915Z" transform="translate(-147.999 -247.121)"/><path class="j" d="M180.112,376.97s11.963-13.342,22.415-8.017c0,0-12.466,14.172-22.918,11.567Z" transform="translate(-151.471 -227.766)"/><path class="j" d="M188.774,343.572s13.8-16.329,21.814-10.875c0,0-10.167,12.664-22.827,13.964Z" transform="translate(-155.933 -208.301)"/><path class="j" d="M201.334,310.175s12.081-13.342,20.909-10.032c0,0-10.339,13.83-22.533,14.2Z" transform="translate(-162.476 -191.071)"/><path class="j" d="M214.669,277.1s13.357-12.779,19.162-10.53c0,0-9.638,14.2-19.741,13.369Z" transform="translate(-170.35 -173.117)"/><path class="j" d="M227.18,242.9s11.5-15.264,17.769-14.084c0,0-6.968,13.609-17.769,15.619Z" transform="translate(-177.517 -152.875)"/><path class="j" d="M239.5,204.957s10.162-11.705,15.651-11.678c0,0-8.022,15.628-16.067,15.495Z" transform="translate(-184.032 -133.758)"/><path class="j" d="M246.069,162.919l9.814-24.379s.493,22.037-11.063,28.9Z" transform="translate(-187.175 -104.254)"/><path class="j" d="M256.308,107.374s1.633-20.335.579-22.014c0,0,7.018,16.924-.647,31Z" transform="translate(-193.428 -75.591)"/><path class="j" d="M162.159,590.851s-10.181-6.427-16.769,9.3c0,0,9.049,6.127,17.963-5.288Z" transform="translate(-132.734 -347.342)"/><path class="j" d="M150.111,553.157s-12.488-5.8-18.551,10.6c0,0,9.642,6.745,19.678-6.454Z" transform="translate(-125.162 -327.189)"/><path class="j" d="M141.275,516.906s-8.945-10.65-22.415,0c0,0,8.479,9.345,22.415,2.72Z" transform="translate(-118.208 -305.636)"/><path class="j" d="M139.369,479.938s-9.049-11.124-21.949-.595c0,0,10.217,9.824,21.949,3.195Z" transform="translate(-117.42 -285.5)"/><path class="j" d="M144,443.558s-6.357-16.039-20.167-9.142c0,0,7.452,14.222,19.606,11.8Z" transform="translate(-120.93 -262.798)"/><path class="j" d="M150.394,406.954s-6.312-16.315-20.334-8.759c0,0,8.6,14.955,19.7,11.272Z" transform="translate(-124.341 -243.127)"/><path class="j" d="M166.655,365.217s-2.507-17.887-14.085-19.487c0,0,2.461,18.86,12.538,22.71Z" transform="translate(-136.666 -215.926)"/><path class="j" d="M177.814,331.579s-.968-21.539-10.574-22.3c0,0,.326,16.357,9.5,25.356Z" transform="translate(-144.698 -196.28)"/><path class="j" d="M190.952,297.674s-2.864-17.924-12.022-20.114c0,0,1.136,17.357,11.122,24.5Z" transform="translate(-151.098 -179.184)"/><path class="j" d="M209.912,264.964s-.1-18.671-5.7-21.414c0,0-3.47,16.9,4.072,23.8Z" transform="translate(-164.507 -160.853)"/><path class="j" d="M219.876,233.355s-.783-19.229-6.583-21.935c0,0-1.982,15.214,5.715,23.194Z" transform="translate(-169.788 -143.535)"/><path class="j" d="M235.094,199.363s-.036-15.628-4.172-19.3c0,0-4.117,17.127,2.009,22.447Z" transform="translate(-178.824 -126.633)"/><path class="j" d="M239.768,159.319l-4.022-26.029s-5.475,21.327,4.217,30.722Z" transform="translate(-181.363 -101.425)"/><path class="j" d="M235.988,110.9s-10.334-17.491-10.122-19.45c0,0,1.095,18.335,14.108,27.477Z" transform="translate(-176.796 -78.873)"/><path class="j" d="M233.771,91.033S224.016,66.18,219.6,64.17c0,0,13.936,7.22,14.986,26.153Z" transform="translate(-173.366 -64.17)"/><path class="k" d="M238.2,168.877l-.665-.207c8.23-27.352,10.285-44.815,5.783-49.163l.48-.516C248.543,123.6,246.607,140.851,238.2,168.877Z" transform="translate(-183.184 -93.717)"/><path class="k" d="M187.656,288.859l-.986-.355c.873-2.508,1.81-5.071,2.805-7.561,8.6-21.82,15.909-42.118,20.6-57.705l.86-.438c-4.7,15.615-11.9,36.692-20.492,58.54C189.462,283.834,188.525,286.365,187.656,288.859Z" transform="translate(-155.336 -149.669)"/><path class="k" d="M196.23,513.924c-.136-.152-13.479-15.458-22.782-41.6a156.622,156.622,0,0,1-9-47.66c-.638-20.331,3.552-43.05,10.728-63.666l.778.922c-16.108,46.3-9.71,85.975-1.222,109.86,9.208,25.9,22.4,41.031,22.529,41.192Z" transform="translate(-143.137 -224.156)"/><path class="j" d="M261.75,604.345s4.108-.668,6.574,2.305c0,0-1.81,1.452-5.7-.558Z" transform="translate(-196.445 -355.281)"/><path class="j" d="M258.719,604.28s-2.624,3.3-1.357,6.952c0,0,2.14-.876,2.371-5.311Z" transform="translate(-193.853 -355.28)"/><path class="j" d="M255.57,591.309s1.642-3.07,8.221,1.231a3.688,3.688,0,0,1-3.783,1.9C257.1,594.273,256.339,592.931,255.57,591.309Z" transform="translate(-193.061 -347.717)"/><path class="j" d="M250.1,592.066s-3.412-.4-3.742,7.561a3.662,3.662,0,0,0,3.7-2.061C251.6,595.044,250.962,593.638,250.1,592.066Z" transform="translate(-188.018 -348.696)"/><path class="j" d="M250.24,574.864s1.919-5.417,8.877-1.563c0,0-1.588,4.97-8.144,3.407Z" transform="translate(-190.143 -337.837)"/><path class="j" d="M245.52,557.766s3.62-5.472,10.027-.392c0,0-2.262,5.136-9.5,2.342Z" transform="translate(-187.558 -328.834)"/><path class="j" d="M243.82,541.389s4.222-5.025,10.579,0c0,0-4,4.412-10.579,1.286Z" transform="translate(-186.628 -320.179)"/><path class="j" d="M242.37,524.971s4.276-5.251,10.357-.281c0,0-4.823,4.638-10.357,1.508Z" transform="translate(-185.834 -311.23)"/><path class="j" d="M243.22,508.981s4.493-6.758,10.19-2.181c0,0-4.819,5.809-10.19,3.462Z" transform="translate(-186.299 -301.883)"/><path class="j" d="M245.52,492.458s4.765-6.7,10.3-1.563c0,0-5.647,5.809-10.3,2.766Z" transform="translate(-187.558 -293.123)"/><path class="j" d="M248.71,476.383s5.642-6.3,10.579-3.785c0,0-5.882,6.689-10.819,5.458Z" transform="translate(-189.174 -283.987)"/><path class="j" d="M252.821,460.618s6.52-7.708,10.3-5.14c0,0-4.8,5.993-10.773,6.593Z" transform="translate(-191.298 -274.796)"/><path class="j" d="M258.755,444.863s5.7-6.3,9.868-4.735c0,0-4.878,6.533-10.633,6.7Z" transform="translate(-194.386 -266.671)"/><path class="j" d="M265.057,429.253s6.3-6.03,9.049-4.97c0,0-4.552,6.7-9.316,6.311Z" transform="translate(-198.109 -258.198)"/><path class="j" d="M271,413.117s5.43-7.2,8.384-6.643c0,0-3.285,6.422-8.384,7.376Z" transform="translate(-201.509 -248.65)"/><path class="j" d="M276.759,395.192s4.8-5.532,7.384-5.532c0,0-3.783,7.376-7.583,7.312Z" transform="translate(-204.554 -239.604)"/><path class="j" d="M279.868,375.372l4.633-11.5s.231,10.4-5.221,13.637Z" transform="translate(-206.043 -225.703)"/><path class="j" d="M284.7,349.167s.765-9.608.271-10.387c0,0,3.312,7.985-.3,14.628Z" transform="translate(-208.994 -212.18)"/><path class="j" d="M240.274,577.283s-4.805-3.033-7.914,4.389c0,0,4.271,2.891,8.475-2.494Z" transform="translate(-180.353 -340.398)"/><path class="j" d="M234.591,559.531s-5.882-2.738-8.751,5.007c0,0,4.552,3.181,9.285-3.052Z" transform="translate(-176.783 -330.908)"/><path class="j" d="M230.419,542.389s-4.222-5.025-10.579,0c0,0,4,4.412,10.579,1.286Z" transform="translate(-173.498 -320.718)"/><path class="j" d="M229.517,524.971s-4.276-5.251-10.357-.281c0,0,4.823,4.638,10.357,1.508Z" transform="translate(-173.126 -311.23)"/><path class="j" d="M231.722,507.8s-3-7.57-9.5-4.315c0,0,3.516,6.712,9.253,5.569Z" transform="translate(-174.801 -300.518)"/><path class="j" d="M234.737,490.526s-2.977-7.7-9.6-4.149c0,0,4.072,7.058,9.3,5.32Z" transform="translate(-176.4 -291.228)"/><path class="j" d="M242.392,470.837s-1.181-8.441-6.642-9.2c0,0,1.158,8.9,5.914,10.719Z" transform="translate(-182.209 -278.4)"/><path class="j" d="M247.677,454.965s-.452-10.142-4.977-10.525c0,0,.154,7.722,4.479,11.963Z" transform="translate(-186.014 -269.129)"/><path class="j" d="M253.854,438.962s-1.357-8.455-5.674-9.492c0,0,.538,8.192,5.249,11.562Z" transform="translate(-189.015 -261.061)"/><path class="j" d="M262.8,423.535s-.045-8.81-2.688-10.106c0,0-1.638,7.976,1.923,11.23Z" transform="translate(-195.344 -252.415)"/><path class="j" d="M267.508,408.61s-.371-9.073-3.108-10.35c0,0-.937,7.178,2.715,10.944Z" transform="translate(-197.837 -244.239)"/><path class="j" d="M274.687,392.575s0-7.376-1.968-9.105c0,0-1.941,8.082.95,10.6Z" transform="translate(-202.101 -236.267)"/><path class="j" d="M276.9,373.641,275,361.36s-2.584,10.059,1.986,14.494Z" transform="translate(-203.301 -224.35)"/><path class="j" d="M275.106,350.829s-4.878-8.257-4.778-9.179c0,0,.52,8.653,6.66,12.968Z" transform="translate(-201.141 -213.727)"/><path class="j" d="M274.068,341.453s-4.6-11.724-6.688-12.673a14.873,14.873,0,0,1,7.068,12.341Z" transform="translate(-199.527 -206.79)"/><path class="k" d="M276.127,378.189l-.317-.1c3.887-12.908,4.855-21.147,2.715-23.2l.226-.24C281.018,356.826,280.108,364.954,276.127,378.189Z" transform="translate(-204.143 -220.734)"/><path class="k" d="M252.322,434.8l-.452-.166c.412-1.185.855-2.383,1.321-3.568,4.072-10.3,7.507-19.879,9.724-27.232l.4-.208c-2.217,7.376-5.606,17.316-9.669,27.629C253.173,432.434,252.73,433.628,252.322,434.8Z" transform="translate(-191.035 -247.133)"/><path class="k" d="M256.348,541a65.483,65.483,0,0,1-10.751-19.63,73.938,73.938,0,0,1-4.244-22.5c-.3-9.6,1.674-20.317,5.063-30.049l.366.461c-7.6,21.848-4.579,40.569-.575,51.841a65.008,65.008,0,0,0,10.629,19.441Z" transform="translate(-185.26 -282.27)"/></g><ellipse class="l" cx="21.306" cy="3.329" rx="21.306" ry="3.329" transform="translate(210.836 392.368)"/><ellipse class="l" cx="21.306" cy="3.329" rx="21.306" ry="3.329" transform="translate(535.868 396.898)"/><ellipse class="l" cx="55.306" cy="8.329" rx="55.306" ry="8.329" transform="translate(448.924 454.742)"/><ellipse class="l" cx="27.639" cy="6.069" rx="27.639" ry="6.069" transform="translate(75.536 477.98)"/><path class="j" d="M458.77,212.95s11.324,16.314,20.587,5.72a3.461,3.461,0,0,0,1.684-3.632s-.814.624-1.78-1.144a9.411,9.411,0,0,0-1.252-1.756,4.413,4.413,0,0,0-2.465-1.384h0s-5.216-2.923-13.575,1.1c0,0-2.521,0-2.875.366l3.166,1.716s1.157-2.42,3.256-2.975c0,0-3.273,2.814-2.807,3.255.1.086,1.718.835,1.718.835s2.027-4.187,5.3-4.948c0,0-4.34,2.82-4.682,5.24l2.51.984s1.926-4.536,5.614-5.543c0,0-4.435,3.106-5.053,5.72l2.6.629s1.965-4.387,5.053-5.205c0,0-4.766,4.119-4.435,5.308a12.461,12.461,0,0,0,3.116.223s1.482-3.112,3.312-3.432c0,0-2.9,3.095-2.627,3.472,0,0,3.3-.3,4.89-1.35a9.906,9.906,0,0,1-4.823,1.871,5.482,5.482,0,0,0,2.9,1.31s-1.684,1.012-3.694-1.247a12.653,12.653,0,0,1-2.936-.114,12.568,12.568,0,0,0,3.408,3.432s-2.425-.086-4.1-3.575l-2.627-.572s2.027,3.432,3.52,4.382c0,0-2.459-.475-4.171-4.576l-2.476-.938a21.216,21.216,0,0,0,2.964,4.513s-2.184-.944-3.66-4.811l-1.6-.8s1.151,2.242,1.544,2.86.253.772.253.772a8.648,8.648,0,0,1-2.465-3.964S458.9,212.744,458.77,212.95Z" transform="translate(-365.974 -163.87)"/><path class="j" d="M411.721,243.972s-19.032-4.914-19.347,9.233a3.449,3.449,0,0,0,1.044,3.861s.225-1.007,2.1-.286a8.849,8.849,0,0,0,2.066.515,4.389,4.389,0,0,0,2.757-.572h0s5.833-1.218,9.628-9.81c0,0,1.926-1.659,1.959-2.179l-3.509.778a6.238,6.238,0,0,1-.561,4.416s.7-4.3.056-4.324c-.129,0-1.841.5-1.841.5s1.123,4.53-.881,7.27c0,0,1.51-5.017.23-7.087l-2.543.915s1.42,4.725-.747,7.934c0,0,1.4-5.3.208-7.694l-2.409,1.23s1.3,4.639-.528,7.293c0,0,1.011-6.292,0-6.967a12.637,12.637,0,0,0-2.515,1.888s.853,3.346-.342,4.794c0,0,.241-4.273-.2-4.376,0,0-2.324,2.408-2.869,4.262a10.256,10.256,0,0,1,2.482-4.61,5.428,5.428,0,0,0-3.037.915s.646-1.893,3.6-1.493a12.994,12.994,0,0,1,2.307-1.853,11.852,11.852,0,0,0-4.778-.366s1.9-1.533,5.4,0l2.358-1.3s-3.728-1.281-5.468-1.007c0,0,2.178-1.264,6.091.732l2.482-.921a20.214,20.214,0,0,0-5.126-1.476s2.246-.732,5.844,1.236l1.729-.418s-2.3-.944-2.992-1.144-.685-.418-.685-.418a8.311,8.311,0,0,1,4.4,1.384S411.721,244.207,411.721,243.972Z" transform="translate(-342.147 -178.172)"/><path class="j" d="M348.007,129.611s-9.106,17.7,4.351,21.285a3.3,3.3,0,0,0,3.93-.143s-.915-.458.213-2.145a9.426,9.426,0,0,0,.966-1.933,4.588,4.588,0,0,0,.084-2.86h0s.185-6.063-7.141-11.812c0,0-1.123-2.288-1.628-2.443l-.067,3.661a5.848,5.848,0,0,1,4.082,1.6s-3.93-1.716-4.115-1.053c-.034.126.051,1.939.051,1.939s4.581-.069,6.737,2.551c0,0-4.435-2.654-6.709-1.865l.286,2.729s4.839-.315,7.4,2.58c0,0-4.733-2.614-7.3-1.985l.634,2.643s4.727-.212,6.844,2.208c0,0-5.766-2.454-6.659-1.607a13.209,13.209,0,0,0,1.224,2.929s3.4-.074,4.491,1.447c0,0-4.025-1.224-4.233-.807,0,0,1.763,2.86,3.408,3.821a10.067,10.067,0,0,1-3.829-3.524,5.771,5.771,0,0,0,.174,3.226s-1.684-1.081-.6-3.924a13.291,13.291,0,0,1-1.235-2.711,12.372,12.372,0,0,0-1.448,4.651s-1.033-2.237,1.258-5.348l-.7-2.643s-2.088,3.4-2.246,5.188c0,0-.7-2.448,2.105-5.869l-.3-2.671a20.847,20.847,0,0,0-2.594,4.742s-.174-2.414,2.532-5.514v-1.808s-1.437,2.065-1.8,2.7-.561.572-.561.572a8.615,8.615,0,0,1,2.341-4.044S348.226,129.646,348.007,129.611Z" transform="translate(-321.46 -129.56)"/><path class="m" d="M314.429,458.92l-1.819,3.4s10.925,3.249,14.872,2.162,16.7-9.9,16.7-9.9Z" transform="translate(-149.959 -218.059)"/><g transform="translate(85.134 277.208)"><path class="n" d="M642.723,579.325c-.789,4.148-5.515,17.963-5.515,17.963S630.116,618,628.148,618.37s-94.526-1.753-98.482,0-26.394.038-26.394.038-13.787,1-20.494,2.722-42.938,4.485-44.714,4.485-17.755-5.525-20.6-4.834-19.78-1.726-23.717-.691-20.1-5.52-22.456-4.485-13.4,1.726-16.544,3.108-83.118-2.074-84.7-1.726c-.255.055-1.242.207-2.646.43-7.452,1.143-27.685,4.055-27.685,4.055l-12.607-3.81s-11.029-.686-14.575-.343-19.687-13.1-19.687-13.1-1.577-6.565,0-8.29,0-10.342,0-10.342A33.915,33.915,0,0,1,197.2,569.01c4.726-8.285,7.483-20.369,7.483-20.369s3.521-15.236,7.868-18.687,20.09-3.456,27.574-2.417l.652.082c9.936,1.236,70.4,6.815,76.163,6.478,5.912-.348,27.574.691,30.728-.348s75.243,2.074,75.243,2.074,12.209-3.81,15.165-4.491,12.8-18.986,15.954-21.06c1-.659,1.863-1.317,2.726-2.009a36.68,36.68,0,0,1,7.906-4.9c5.912-2.76,21.276,8.633,18.91,13.467-2.124,4.355-3.614,4.507-5.037,5a5.033,5.033,0,0,0-.478.185c-1.577.691-7.452,10.01-7.452,10.01s77.628-1.725,86.273-2.417,34.666,0,37.423-1.725,29.933,3.108,29.933,3.108l14.184,26.242S643.543,575.183,642.723,579.325Z" transform="translate(-192.151 -502.939)"/><path class="j" d="M262.68,637.482c-6.983,1.143-25.942,4.055-25.942,4.055l-11.813-3.81s-10.335-.686-13.658-.343-18.459-13.08-18.459-13.08-1.478-6.565,0-8.29,0-10.342,0-10.342a35.707,35.707,0,0,1,4.073-16.575c4.428-8.285,7.012-20.369,7.012-20.369s3.3-15.236,7.373-18.687,18.825-3.456,25.837-2.417l.611.082c14.868,21.457,39.227,58.357,39.99,71.046C278.188,626.862,270.925,633.072,262.68,637.482Z" transform="translate(-192.151 -523.025)"/><path class="o" d="M405.552,651.73a32.173,32.173,0,0,1-11.813.234c-7.018-1.034-15.869,1.726-15.869,1.726" transform="translate(-262.024 -570.739)"/><path class="o" d="M456.52,655.33s5.54,1.377,20.3,1.726,16.614-1.034,23.277,0,13.727,1.725,13.727,1.725" transform="translate(-290.717 -572.379)"/><path class="o" d="M381.67,665.456s20.3-3.451,29.166,0,26.187-1.034,28.788,0,15.875,1.279,19.937,1.334,6.64.98,11.813,0,25.837.446,25.837.446" transform="translate(-261.182 -576.294)"/><path class="o" d="M535.18,614.632s10.707-2.629,18.825,0,24.365.544,32.855,1.938,33.216,5.868,35.806,3.108" transform="translate(-318.645 -553.302)"/><path class="o" d="M620.18,628.8a35.011,35.011,0,0,1,14.4,0c7.012,1.731,19.931,3.451,23.626,2.417a128.18,128.18,0,0,1,14.391-3.184c5.906-.964,21.781-6.45,27.688-5.258s12.919-2.417,19.2-3.549,9.229-1.284,16.981,0,11.813,4.774,12.919,3.549" transform="translate(-342.724 -555.512)"/><path class="o" d="M780.66,597.114c1.111-.691,6.279,3.108,16.981,3.456a59.145,59.145,0,0,0,20.67-3.538s-1.106-1.121,5.54,0,32.483,2.847,32.483,2.847" transform="translate(-409.817 -545.588)"/><path class="o" d="M759.944,577.215s-13.285-3.457-18.825,0-11.44.343-13.285,0-18.092-.31-22.887-1.535-18.825,1.573-18.825,1.573-17.72-.963-23.969-.152-20.676,3.685-21.781,1.725-12.919-5.3-16.98-3.456" transform="translate(-344.066 -535.699)"/><path class="o" d="M610.35,586.178s10.149-1.726,13.472,0,15.13,0,15.13,0,9.6,1.726,11.057,2.417" transform="translate(-348.943 -540.519)"/><path class="o" d="M790.18,569.666s4.428-1.383,14.024,0a55.962,55.962,0,0,0,18.272-.615s9.782-.827,14.583,1.089,14.257-.637,14.257-.637" transform="translate(-413.798 -532.983)"/><path class="o" d="M313.17,604.685s2.95-2.074,13.658,0,15.869-.92,15.869-.92-4.428-.234,5.167,0,14.769-3.505,14.769-3.505" transform="translate(-237.386 -547.285)"/><path class="o" d="M296,595.167s-.367-3.69,9.968,0,16.242,2.025,16.242,2.025a34.848,34.848,0,0,1,13.285-1.633,165.728,165.728,0,0,0,17.353,0" transform="translate(-235.567 -544.217)"/><path class="o" d="M284,578.2s2.211-2.466,12.18,0,13.291,0,13.291,0,9.963.125,16.241,2.33" transform="translate(-230.551 -536.735)"/><path class="o" d="M306.19,572.475s2.95-.174,9.968,0,14.4,0,14.4,0" transform="translate(-235.096 -534.589)"/><path class="o" d="M238.414,610.528s-5.534-4.257-1.845-6.673,8.828.288,8.828,1.693v8.666s-16.241,5.525-16.241,1.726,4.8-21.561,6.646-22.693,6.273-12.073,7.751-8.165,9.992,27.407,9.992,27.407a13.882,13.882,0,0,1-7.39,7.985c-5.907,2.722-27.315,2.956-26.943-1.633s6.273-27.957,6.273-27.957,9.968-25.235,15.5-19.247,8.147,16.455,12.552,20.717,14.024,20.6,9.968,28.142-33.239,14.779-33.239,14.779-23.277-5.177-18.459-22.786,7.751-47.308,14.763-49.033,14.03-3.81,19.937,0,17.714,27.037,19.931,28.882,14.4,19.149,12.18,24.832-14.763,22.247-21.409,24.664-22.148-2.417-22.148-2.417" transform="translate(-200.095 -529.537)"/><path class="o" d="M722.94,649.441s14.024-.348,17.347,0,9.968-8.007,13.658-6.94,5.168,7.049,11.813,5.96,23.626-2.531,23.626-2.531a115.329,115.329,0,0,0,15.5,0c6.273-.631,11.057-.06,14.4,0s12.919,0,12.919,0l2.91,1.551" transform="translate(-385.686 -566.491)"/><path class="o" d="M740.7,631.552a105,105,0,0,1,14.03,0c6.273.544,26.577-3.391,35.433-2.967s13.291-2.651,17.347-2.177,7.018,2.547,13.291,2.558,21.752-2.558,21.752-2.558" transform="translate(-393.111 -559.178)"/><path class="o" d="M418.47,685.375s25.837,3.1,34.333,0,12.919-4.148,18.825-3.108,4.073-2.852,14.763-.392,29.533,3.658,34.333,2.025,38.407,5.269,38.407,5.269" transform="translate(-273.5 -584.096)"/><path class="o" d="M490.14,701s10.707,1.034,17.72,1.726,39.129,3.108,45.774,0,47.985-.087,47.985-.087a111.9,111.9,0,0,0,14.763,0c5.534-.6,19.564-1.633,19.564-1.633" transform="translate(-298.936 -593.19)"/><path class="j" d="M643.357,516.831c-1.99,4.355-3.387,4.507-4.719,5-6.669-2.825-15.235-9.346-20.408-13.565a34.094,34.094,0,0,1,7.408-4.9C631.178,500.6,645.575,512,643.357,516.831Z" transform="translate(-352.56 -502.939)"/><path class="j" d="M348,677.935V664.468l5.144,6.733s7.012-41.233,8.857-39.344,0,35.381,0,35.381l4.428-2.765,2.217,6.037s12.552-18,13.658-15.639-2.584,15.639-2.584,15.639l18.459-35.164s-6.279,30.167-4.073,31.892,10.7-5.182,12.18-2.765-13.658,15.116-13.658,15.116Z" transform="translate(-250.236 -561.654)"/><path class="j" d="M752.12,674.012l5.534-13.467s4.434,5.857,5.54,6.037,7.012-3.266,7.012-3.266V648.107l9.229,16.831,4.428-1.633,1.845-6.826,2.217,4.061s16.608-39.039,25.837-35.229l-13.285,33.5,13.285-9.3s-5.907,15.323-7.2,15.415S818.2,663.3,818.2,663.3l-4.44,10.712Z" transform="translate(-397.886 -558.581)"/><path class="o" d="M630.6,512.646s4.411,6.82,8.665,6.532,6.535-3.413,5.167-5.4-10.475-5.688-10.475-5.688" transform="translate(-357.714 -505.286)"/><path class="o" d="M636.09,515.15s2.217,4.834,3.922,2.841S636.09,515.15,636.09,515.15Z" transform="translate(-360.216 -508.503)"/><path class="i" d="M844.25,692.808c3.637-1.187,24.918-1.633,28.421-1.709-2.066-2.106-3.591-3.81-3.591-3.81s-17.335-.327-22.34,2.286A5.658,5.658,0,0,0,844.25,692.808Z" transform="translate(-436.403 -586.936)"/><path class="i" d="M862.674,550.9s-7.332,2.286-9.311,5.552S862.674,550.9,862.674,550.9Z" transform="translate(-440.115 -524.793)"/><path class="i" d="M856.337,537.7c-.233.327-10.044,9.531-9.427,11.757S856.337,537.7,856.337,537.7Z" transform="translate(-437.503 -518.778)"/><path class="i" d="M761.976,549.7s-10.94,4.823-11.871,6.929S761.976,549.7,761.976,549.7Z" transform="translate(-402.949 -524.247)"/><path class="i" d="M761.209,561.1s-9.893,3.919-11.22,4.9S761.209,561.1,761.209,561.1Z" transform="translate(-402.92 -529.441)"/><path class="i" d="M756.375,575.99s-4.37,3.043-6.785.653S756.375,575.99,756.375,575.99Z" transform="translate(-402.876 -535.948)"/><path class="m" d="M491.3,579.21" transform="translate(-305.521 -537.693)"/></g><path class="m" d="M305.92,471.08s1.937,6.035,6.26,7.19Z" transform="translate(-147.568 -225.116)"/><path class="m" d="M318.063,473.31s-.455,4.639,2.734,5.8S318.063,473.31,318.063,473.31Z" transform="translate(-152.58 -226.071)"/><path class="j" d="M19.722.877S.4-4.14.2,9.823a3.374,3.374,0,0,0,1.091,3.821s.219-.992,2.125-.264a9.263,9.263,0,0,0,2.1.526A4.5,4.5,0,0,0,8.3,13.366h0s5.9-1.152,9.669-9.6c0,0,1.936-1.621,1.966-2.135l-3.548.737a5.991,5.991,0,0,1-.531,4.355s.668-4.241.02-4.269c-.131,0-1.861.475-1.861.475s1.176,4.483-.83,7.17c0,0,1.487-4.94.172-7l-2.568.881s1.479,4.677-.688,7.826c0,0,1.371-5.217.144-7.594L7.819,5.411s1.354,4.591-.472,7.2c0,0,.97-6.2-.06-6.879A12.476,12.476,0,0,0,4.756,7.57s.893,3.311-.306,4.73c0,0,.208-4.216-.242-4.322,0,0-2.334,2.357-2.87,4.182a9.836,9.836,0,0,1,2.474-4.53,5.526,5.526,0,0,0-3.069.877s.638-1.864,3.638-1.442A12.781,12.781,0,0,1,6.7,5.254a12.366,12.366,0,0,0-4.843-.4s1.909-1.5,5.471.047L9.709,3.631s-3.787-1.3-5.548-1.042c0,0,2.2-1.229,6.177.776l2.506-.888A21.172,21.172,0,0,0,7.639.976s2.269-.7,5.931,1.271l1.748-.4S12.978.9,12.276.694s-.7-.418-.7-.418A8.7,8.7,0,0,1,16.05,1.681S19.724,1.109,19.722.877Z" transform="translate(122.841 152.879) rotate(-124)"/><path class="j" d="M1048.321,746.157s-23.226-1.424-20.486,15.153a4.046,4.046,0,0,0,2.06,4.262s.045-1.23,2.38-.812a10.544,10.544,0,0,0,2.526.126,5.183,5.183,0,0,0,3.082-1.3h0s6.529-2.746,9.067-13.62c0,0,1.881-2.368,1.808-2.98l-3.93,1.716s1.336,2.86.286,5.274c0,0-.129-5.148-.881-5.045-.152,0-2.038,1-2.038,1s2.3,5.022.561,8.666c0,0,.657-6.184-1.286-8.3l-2.762,1.642s2.695,5.182.87,9.41c0,0,.466-6.487-1.448-9.009l-2.5,1.985s2.526,5.108.988,8.615c0,0-.2-7.551-1.533-8.123a15.606,15.606,0,0,0-2.521,2.774s1.735,3.707.663,5.663c0,0-.663-5.028-1.2-5.051,0,0-2.178,3.335-2.409,5.617a12.3,12.3,0,0,1,1.881-5.938,6.522,6.522,0,0,0-3.369,1.762s.342-2.357,3.879-2.563c0,0,1.8-2.528,2.28-2.683,0,0-3.515-.3-5.648.664,0,0,1.875-2.225,6.294-1.213l2.47-2.054s-4.632-.646-6.6.069c0,0,2.246-1.968,7.259-.538l2.689-1.636a24.5,24.5,0,0,0-6.3-.572s2.481-1.361,7.085.115l1.92-.875s-2.891-.572-3.739-.669-.893-.332-.893-.332a9.838,9.838,0,0,1,5.434.618S1048.388,746.42,1048.321,746.157Z" transform="translate(-757.604 -345.846)"/><ellipse class="l" cx="16.438" cy="2.832" rx="16.438" ry="2.832" transform="translate(258.284 418.341)"/></g><g transform="translate(595.116 671.896) rotate(8)"><g transform="translate(0 0)"><path class="c" d="M9.376,26.145C-3.027,45.557.448,70.3.448,70.3s23.586-6.733,35.989-26.145S45.366,0,45.366,0,21.78,6.733,9.376,26.145Z" transform="translate(52.492 13.13)"/><path class="j" d="M52.873,64.845s-.3-.05-.862-.166c-.445-.093-1.058-.226-1.807-.409-6.693-1.623-24.49-7.1-36.154-21.4C-.546,24.964,0,0,0,0s22.26,3.739,36.962,19.824q.956,1.037,1.86,2.149c12.7,15.581,13.936,36.5,14.042,41.677C52.882,64.425,52.873,64.845,52.873,64.845Z" transform="translate(0 18.356)"/><path class="i" d="M16.157,43.826c-.328.4-.617.747-.855,1.029-.527.613-.826.934-.826.934s-.366-.467-.981-1.342C10.119,39.663-.745,22.658.04,3.05Q.1,1.509.255,0q.956,1.037,1.86,2.149C14.817,17.73,16.051,38.654,16.157,43.826Z" transform="translate(36.71 38.18)"/><path class="j" d="M32.265,42.738C31.34,65.927,14.478,83.974,14.478,83.974S-.885,64.425.04,41.237,17.828,0,17.828,0,33.19,19.549,32.265,42.738Z" transform="translate(38.967 0)"/></g><line class="e" y1="82.371" x2="3.507" transform="translate(53.443 0.946)"/><path class="e" d="M36.531,26.333c12.5,19.477,9.154,44.2,9.154,44.2S22.065,63.675,9.562,44.2.408,0,.408,0,24.028,6.856,36.531,26.333Z" transform="translate(7.255 12.896)"/></g><g transform="translate(616.979 752.736)"><path class="i" d="M841.824,739.023c-2.065,19.471-15.087,12.946-30.844,12.946-16.646,0-30.238,7.283-31.086-16.488,15.609.48,30.016,1.165,42.74,2.015l2.863.189a.021.021,0,0,0,.019.008C831.345,738.1,836.8,738.547,841.824,739.023Z" transform="translate(-779.831 -700.615)"/><path class="c" d="M779.734,631.049c0-18.588,13.969-33.656,31.2-33.656s31.2,15.068,31.2,33.656-13.969,13.182-31.2,13.182S779.734,649.637,779.734,631.049Z" transform="translate(-779.734 -597.393)"/></g><g transform="translate(632.995 689.148)"><rect class="g" width="0.732" height="6.902" transform="translate(99.294 47.158)"/><rect class="g" width="51.261" height="0.746" transform="translate(42.174 60.029)"/><rect class="g" width="0.732" height="6.902" transform="translate(56.088 53.314)"/><rect class="g" width="0.732" height="6.902" transform="translate(78.423 53.314)"/><rect class="g" width="0.732" height="6.902" transform="translate(38.879 23.282)"/><path class="c" d="M143.87,693.889h-4.028v34.7s26,8.581,51.261,0v-34.7Z" transform="translate(-102.153 -596.146)"/><ellipse class="c" cx="25.264" cy="3.917" rx="25.264" ry="3.917" transform="translate(37.689 94.013)"/><ellipse class="i" cx="25.264" cy="3.917" rx="25.264" ry="3.917" transform="translate(37.689 94.013)"/><path class="c" d="M228.026,502.015c-6.373,24-28.2,38.872-28.2,38.872s-11.5-24.053-5.124-48.057,28.2-38.871,28.2-38.871S234.4,478.01,228.026,502.015Z" transform="translate(-135.704 -445.724)"/><path class="p" d="M127.369,502.015c6.373,24,28.2,38.872,28.2,38.872s11.5-24.053,5.124-48.057-28.2-38.871-28.2-38.871S121,478.01,127.369,502.015Z" transform="translate(-93.027 -445.724)"/><path class="c" d="M80.616,537.346c17.489,17.346,19.625,44.011,19.625,44.011s-26.219-1.459-43.707-18.8-19.625-44.011-19.625-44.011S63.127,520,80.616,537.346Z" transform="translate(-36.909 -486.214)"/><path class="c" d="M229.5,537.346c-17.489,17.346-19.625,44.011-19.625,44.011s26.219-1.459,43.707-18.8,19.625-44.011,19.625-44.011S246.989,520,229.5,537.346Z" transform="translate(-146.544 -486.214)"/><ellipse class="j" cx="8.055" cy="8.207" rx="8.055" ry="8.207" transform="translate(55.265 0)"/></g><g transform="translate(0 188.076)"><path class="c" d="M223.8,395.843c-2.364,0-4.751-.038-7.095-.113l.053-1.734c3.365.107,6.8.136,10.18.089l.023,1.736Q225.388,395.842,223.8,395.843Z" transform="translate(-136.919 -55.303)"/><path class="c" d="M235.553,395.552l-.1-1.733c3.37-.2,6.784-.487,10.146-.846l.178,1.726C242.389,395.061,238.95,395.348,235.553,395.552Z" transform="translate(-135.254 -55.414)"/><path class="c" d="M208.136,395.326c-3.4-.265-6.833-.613-10.208-1.035l.208-1.722c3.349.418,6.757.764,10.13,1.026Z" transform="translate(-138.587 -55.459)"/><path class="c" d="M254.3,393.679l-.255-1.716c3.349-.518,6.723-1.119,10.027-1.788l.332,1.7C261.073,392.551,257.673,393.157,254.3,393.679Z" transform="translate(-133.603 -55.721)"/><path class="c" d="M189.428,393.124c-3.357-.58-6.746-1.246-10.072-1.982l.361-1.7c3.3.731,6.663,1.392,10,1.967Z" transform="translate(-140.237 -55.8)"/><path class="c" d="M272.787,390.1l-.409-1.685c3.287-.828,6.592-1.744,9.824-2.72l.484,1.665C279.429,388.339,276.1,389.261,272.787,390.1Z" transform="translate(-131.975 -56.211)"/><path class="c" d="M171,389.215c-3.293-.893-6.607-1.874-9.85-2.919l.513-1.655c3.218,1.037,6.507,2.011,9.774,2.9Z" transform="translate(-141.854 -56.326)"/><path class="c" d="M290.859,384.823l-.559-1.639c3.19-1.13,6.4-2.351,9.536-3.631l.632,1.612C297.306,382.454,294.073,383.685,290.859,384.823Z" transform="translate(-130.383 -56.882)"/><path class="c" d="M152.993,383.614c-3.2-1.2-6.417-2.49-9.565-3.842l.661-1.6c3.124,1.341,6.317,2.623,9.492,3.813Z" transform="translate(-143.428 -57.033)"/><path class="c" d="M308.341,377.912l-.705-1.58c3.063-1.418,6.142-2.932,9.151-4.5l.775,1.546C314.53,374.958,311.428,376.483,308.341,377.912Z" transform="translate(-128.843 -57.727)"/><path class="c" d="M325.1,369.429l-.844-1.507c2.938-1.708,5.87-3.5,8.715-5.337l.91,1.466C331.01,365.9,328.056,367.709,325.1,369.429Z" transform="translate(-127.367 -58.738)"/><path class="c" d="M341.007,359.439l-.975-1.422c2.766-1.969,5.527-4.031,8.2-6.128l1.038,1.377C346.577,355.378,343.795,357.456,341.007,359.439Z" transform="translate(-125.965 -59.908)"/><path class="c" d="M355.943,348.031l-1.1-1.327c2.578-2.217,5.144-4.526,7.627-6.866l1.156,1.275C361.127,343.469,358.541,345.8,355.943,348.031Z" transform="translate(-124.65 -61.227)"/><path class="c" d="M369.78,335.3l-1.213-1.219c2.377-2.454,4.728-4.993,6.987-7.547l1.266,1.161C374.544,330.267,372.175,332.825,369.78,335.3Z" transform="translate(-123.431 -62.682)"/><path class="c" d="M382.4,321.348l-1.316-1.1c2.147-2.663,4.261-5.41,6.285-8.167l1.364,1.039C386.7,315.9,384.565,318.666,382.4,321.348Z" transform="translate(-122.319 -64.263)"/><path class="c" d="M393.7,306.295l-1.409-.975c1.9-2.851,3.761-5.784,5.531-8.721l1.453.909C397.487,300.466,395.612,303.423,393.7,306.295Z" transform="translate(-121.324 -65.956)"/><path class="c" d="M403.575,290.258l-1.491-.839c1.636-3.016,3.225-6.113,4.725-9.206l1.527.77C406.825,284.1,405.223,287.219,403.575,290.258Z" transform="translate(-120.454 -67.749)"/><path class="c" d="M411.937,273.368l-1.561-.7c1.358-3.159,2.661-6.395,3.875-9.616l1.591.622C414.619,266.924,413.3,270.184,411.937,273.368Z" transform="translate(-119.718 -69.625)"/><path class="c" d="M418.708,255.754l-1.617-.546c1.063-3.264,2.067-6.6,2.982-9.918l1.641.47C420.791,249.1,419.779,252.465,418.708,255.754Z" transform="translate(-119.121 -71.568)"/><path class="c" d="M423.812,237.628l-1.66-.393c.763-3.346,1.46-6.763,2.073-10.154l1.676.314C425.284,230.813,424.581,234.255,423.812,237.628Z" transform="translate(-118.672 -73.56)"/><path class="c" d="M427.225,219.1l-1.689-.236c.458-3.4.845-6.867,1.151-10.3l1.7.156C428.076,212.182,427.685,215.675,427.225,219.1Z" transform="translate(-118.371 -75.586)"/><path class="c" d="M428.927,200.333l-1.7-.078c.151-3.44.229-6.929.229-10.369h1.7C429.158,193.353,429.08,196.868,428.927,200.333Z" transform="translate(-118.221 -77.629)"/><path class="c" d="M426.531,168.282c-.34-3.422-.808-5.091-1.3-8.5l1.685-.253c.5,3.433.924,6.054,1.268,9.5Z" transform="translate(-118.398 -80.949)"/><path class="c" d="M423.827,151.584c-.65-3.386-1.383-6.8-2.18-10.132l1.656-.41c.8,3.362,1.542,6.8,2.2,10.209Z" transform="translate(-118.716 -82.971)"/><path class="c" d="M419.478,133.412c-.95-3.305-1.988-6.63-3.086-9.884l1.611-.565c1.107,3.278,2.153,6.629,3.111,9.96Z" transform="translate(-119.183 -84.949)"/><path class="c" d="M413.473,115.713c-1.243-3.195-2.574-6.4-3.957-9.53l1.554-.713c1.393,3.153,2.735,6.384,3.987,9.6Z" transform="translate(-119.794 -86.862)"/><path class="c" d="M405.883,98.679c-1.525-3.065-3.141-6.136-4.8-9.127l1.483-.855c1.675,3.014,3.3,6.109,4.839,9.2Z" transform="translate(-120.543 -88.697)"/><path class="q" d="M649.763,275.741c-.1.275-1.252,2.5-10.062,11.627A120.011,120.011,0,0,0,649.763,275.741Z" transform="translate(-99.349 -68.238)"/></g><rect class="c" width="0.512" height="35.231" transform="translate(335.81 677.535)"/><ellipse class="c" cx="4.89" cy="4.982" rx="4.89" ry="4.982" transform="translate(331.359 672.553)"/><path class="c" d="M114.422,682.857s-.7-15.308-15.019-13.529" transform="translate(223.025 16.391)"/><ellipse class="j" cx="5.614" cy="5.884" rx="5.614" ry="5.884" transform="translate(226.784 689.917)"/><g transform="translate(646.032 373.606)"><path class="l" d="M995.948,225.941a12,12,0,0,0-7.084.788,10.261,10.261,0,0,1-8.508,0,11.737,11.737,0,0,0-10,.2,6.094,6.094,0,0,1-2.881.736c-4.055,0-7.43-4.162-8.132-9.654a7.942,7.942,0,0,0,2.028-2.23c2.378-3.9,6.062-6.409,10.2-6.409s7.773,2.475,10.138,6.34a7.794,7.794,0,0,0,6.759,3.77h.106C991.77,219.459,994.566,222.1,995.948,225.941Z" transform="translate(-959.319 -194.013)"/><path class="l" d="M1008.253,188.38l-6.556,4.239,3.979-7.377a6.431,6.431,0,0,0-3.967-1.442h-.106a7.945,7.945,0,0,1-1.36-.1l-2.222,1.433.955-1.765a7.909,7.909,0,0,1-3.886-3.013l-3.979,2.582,2.535-4.653a11.574,11.574,0,0,0-8.909-4.592c-4.136,0-7.819,2.509-10.2,6.413a7.569,7.569,0,0,1-6.759,3.7h-.224c-4.566,0-8.267,5.277-8.267,11.78s3.7,11.78,8.267,11.78a6.127,6.127,0,0,0,2.881-.732,11.72,11.72,0,0,1,10-.2,10.262,10.262,0,0,0,8.508.021,11.749,11.749,0,0,1,9.918.194,6.1,6.1,0,0,0,2.847.719c4.566,0,8.267-5.272,8.267-11.78A15.188,15.188,0,0,0,1008.253,188.38Z" transform="translate(-959.29 -173.69)"/></g><g transform="translate(202.548 510.377)"><path class="l" d="M995.948,225.941a12,12,0,0,0-7.084.788,10.261,10.261,0,0,1-8.508,0,11.737,11.737,0,0,0-10,.2,6.094,6.094,0,0,1-2.881.736c-4.055,0-7.43-4.162-8.132-9.654a7.942,7.942,0,0,0,2.028-2.23c2.378-3.9,6.062-6.409,10.2-6.409s7.773,2.475,10.138,6.34a7.794,7.794,0,0,0,6.759,3.77h.106C991.77,219.459,994.566,222.1,995.948,225.941Z" transform="translate(-959.319 -194.013)"/><path class="l" d="M1008.253,188.38l-6.556,4.239,3.979-7.377a6.431,6.431,0,0,0-3.967-1.442h-.106a7.945,7.945,0,0,1-1.36-.1l-2.222,1.433.955-1.765a7.909,7.909,0,0,1-3.886-3.013l-3.979,2.582,2.535-4.653a11.574,11.574,0,0,0-8.909-4.592c-4.136,0-7.819,2.509-10.2,6.413a7.569,7.569,0,0,1-6.759,3.7h-.224c-4.566,0-8.267,5.277-8.267,11.78s3.7,11.78,8.267,11.78a6.127,6.127,0,0,0,2.881-.732,11.72,11.72,0,0,1,10-.2,10.262,10.262,0,0,0,8.508.021,11.749,11.749,0,0,1,9.918.194,6.1,6.1,0,0,0,2.847.719c4.566,0,8.267-5.272,8.267-11.78A15.188,15.188,0,0,0,1008.253,188.38Z" transform="translate(-959.29 -173.69)"/></g><g transform="translate(660.815 553.379)"><path class="l" d="M995.948,225.941a12,12,0,0,0-7.084.788,10.261,10.261,0,0,1-8.508,0,11.737,11.737,0,0,0-10,.2,6.094,6.094,0,0,1-2.881.736c-4.055,0-7.43-4.162-8.132-9.654a7.942,7.942,0,0,0,2.028-2.23c2.378-3.9,6.062-6.409,10.2-6.409s7.773,2.475,10.138,6.34a7.794,7.794,0,0,0,6.759,3.77h.106C991.77,219.459,994.566,222.1,995.948,225.941Z" transform="translate(-959.319 -194.013)"/><path class="l" d="M1008.253,188.38l-6.556,4.239,3.979-7.377a6.431,6.431,0,0,0-3.967-1.442h-.106a7.945,7.945,0,0,1-1.36-.1l-2.222,1.433.955-1.765a7.909,7.909,0,0,1-3.886-3.013l-3.979,2.582,2.535-4.653a11.574,11.574,0,0,0-8.909-4.592c-4.136,0-7.819,2.509-10.2,6.413a7.569,7.569,0,0,1-6.759,3.7h-.224c-4.566,0-8.267,5.277-8.267,11.78s3.7,11.78,8.267,11.78a6.127,6.127,0,0,0,2.881-.732,11.72,11.72,0,0,1,10-.2,10.262,10.262,0,0,0,8.508.021,11.749,11.749,0,0,1,9.918.194,6.1,6.1,0,0,0,2.847.719c4.566,0,8.267-5.272,8.267-11.78A15.188,15.188,0,0,0,1008.253,188.38Z" transform="translate(-959.29 -173.69)"/></g><g transform="translate(66.07 511.34)"><line class="r" x2="237.742" y2="56.232" transform="translate(553.825 84.694)"/><line class="r" x2="237.742" y2="36.767" transform="translate(553.825 43.166)"/><line class="r" x2="237.742" y2="25.953" transform="translate(553.825)"/><line class="r" x1="237.742" y2="56.232" transform="translate(0 84.694)"/><line class="r" x1="237.742" y2="36.767" transform="translate(0 43.166)"/><line class="r" x1="237.742" y2="25.953"/></g><g transform="translate(585.454 583.675)"><ellipse class="s" cx="0.561" cy="0.572" rx="0.561" ry="0.572" transform="translate(86.692 160.074)"/><ellipse class="s" cx="0.561" cy="0.572" rx="0.561" ry="0.572" transform="translate(109.148 115.456)"/><ellipse class="s" cx="0.561" cy="0.572" rx="0.561" ry="0.572" transform="translate(78.832 29.652)"/><path class="t" d="M649.724,433.889h8.562q-4.455,2.342-8.943,4.651v-4.433Z" transform="translate(-581.459 -355.043)"/><path class="u" d="M0,7.682A5.828,5.828,0,0,1,3.362,2.33L3.166,0,15.75.088l-1.359,15.1-9.95-.07L4.3,13.41A6.018,6.018,0,0,1,0,7.682Zm4.22,4.826-.759-9A5.871,5.871,0,0,0,1.777,8.156,6.02,6.02,0,0,0,4.221,12.508Z" transform="matrix(0.914, 0.407, -0.407, 0.914, 103.878, 137.873)"/><path class="v" d="M698.89,535.506s14.833,10.795,9.889,15.113-14.833-12.954-14.833-12.954Z" transform="translate(-598.214 -399.105)"/><path class="v" d="M580.717,563.612s2.825,35.983,3.532,41.021,1.413,50.376,2.825,55.414,2.825,17.272,2.825,17.272h8.476s-.706-22.31,1.413-30.946,1.413-32.385,1.413-32.385,4.238-42.46,2.119-48.217S580.717,563.612,580.717,563.612Z" transform="translate(-551.361 -410.086)"/><path class="w" d="M595.205,759.448s-3.532,2.159-3.532,3.6.706,5.038,0,6.477-5.651,7.2-2.825,8.636,15.539,0,15.539,0-.706-10.075-1.413-10.795.706-7.916.706-7.916Z" transform="translate(-554.548 -494.374)"/><path class="v" d="M659.366,562.8s.9,36.087.714,41.172,3.785,50.249,2.9,55.41-1.03,17.479-1.03,17.479l-8.429.907s-1.6-22.262-4.593-30.624-4.741-32.055-4.741-32.055-8.589-41.772-7.075-47.724S659.366,562.8,659.366,562.8Z" transform="translate(-576.016 -410.152)"/><path class="w" d="M670.757,758.942s3.734,1.769,3.883,3.2-.183,5.085.667,6.441,6.361,6.552,3.7,8.286-15.453,1.662-15.453,1.662-.336-10.1.293-10.886-1.518-7.8-1.518-7.8Z" transform="translate(-587.154 -494.157)"/><path class="w" d="M587.421,467.574s7.15-11.452-2.032,7.952c-.691,3.827-7.791,21.992-8.253,33.592-1.591,39.935-1.311,108.136-3.487,113.176-2.8,6.478,25.683,11.448,26.134,5.038s7.471-106.463,7.471-106.463,9.367,104.764,10.436,108.7,26,.825,27.026-6.008c-14.241-78.121-10.893-114.44-10.893-114.44s-1.41-22.408-11.429-33.592c-2.483-2.429-2.021-4.454-1.776-7.952Z" transform="translate(-548.176 -368.023)"/><path class="v" d="M578.907,459.439s9.182-2.159,10.595.72-3.532,7.2-5.651,7.2S578.2,465.2,578.2,465.2Z" transform="translate(-550.258 -365.645)"/><ellipse class="x" cx="12.714" cy="12.954" rx="12.714" ry="12.954" transform="translate(48.443 5.77)"/><path class="x" d="M621.3,342.121s-1.518,11.5-2.931,11.5,10.595,6.477,10.595,6.477l9.182-1.439,2.825-4.318s-4.381-6.934-4.381-12.691S621.3,342.121,621.3,342.121Z" transform="translate(-567.824 -314.522)"/><path class="j" d="M609.764,363.328s-2.119-1.439-2.825-1.439h-5.651c-.706,0-9.889,2.159-9.889,2.159l-5.651,32.385s9.889,16.552,2.825,29.506c0,0,12.643,3.994,22.532,4.714s17.022-2.555,17.728-2.555.706-5.757,0-7.2.706-.72.706-4.318,2.119-10.075,2.119-10.075l9.889-36.7s-12.714-7.2-14.833-6.477-8.476,2.879-9.888,2.159A64.452,64.452,0,0,0,609.764,363.328Z" transform="translate(-553.568 -324.229)"/><path class="j" d="M568.379,366.349l-2.119-.72s-4.238-.72-9.182,3.6S533.77,386.5,533.77,386.5s-7.063,5.757-4.944,12.234,5.651,22.31,16.245,21.59c0,0,6.357,8.636,9.889,7.2s6.357-7.2,4.238-7.916-7.77-7.916-7.77-7.916l7.063-13.674h2.119l7.77-4.318Z" transform="translate(-528.429 -325.81)"/><path class="j" d="M4.99,0l5.65.712s4.942,2.152,4.223,11.508-1.06,9.637,4.1,37.542c0,0,4.976,43.761,3.563,44.482s-9.9,5.05-9.186,2.171S9.614,75.036,9.614,75.036a57.4,57.4,0,0,1-6.226-22.79L0,35.267Z" transform="matrix(0.998, -0.07, 0.07, 0.998, 74.033, 45.784)"/><path class="w" d="M635.727,326.985c-1.576-2.271-3.514-4.255-5.177-6.46-3.834-5.084-5.16-11.858-10.306-15.757-5.091-3.858-13.17-7.655-19.541-7.351-8.4.4-15.057,7.038-20.845,13.248L566.589,324.9c-3.2,3.433-6.518,7.078-7.671,11.665-1.109,4.408-.027,9.144,2,13.2a31.982,31.982,0,0,0,8.67,10.546c4.442-6.232,10.665-14.837,10.665-14.837l1.449,21.4c7.525,2.541,15.609,3.041,23.539,2.479l2.349-8.775,2.465,8.29c9.477-1.28,19-4.614,24.864-12.149A25.912,25.912,0,0,0,635.727,326.985Z" transform="translate(-541.606 -296.629)"/><path class="w" d="M601.187,324.247a22.666,22.666,0,0,1,4.508-18.973c8.133-9.829,23.36-10.381,34.009-1.233a27.379,27.379,0,0,1,8.729,13.915,27.264,27.264,0,0,0-9.063-15.388c-10.649-9.148-25.875-8.6-34.009,1.233A22.867,22.867,0,0,0,601.187,324.247Z" transform="translate(-559.987 -296.052)"/><path class="w" d="M556.621,379.542a22.666,22.666,0,0,1,4.508-18.973c8.133-9.829,23.359-10.381,34.009-1.233a27.378,27.378,0,0,1,8.729,13.915,27.265,27.265,0,0,0-9.063-15.388c-10.649-9.148-25.875-8.6-34.009,1.233A22.867,22.867,0,0,0,556.621,379.542Z" transform="translate(-540.441 -319.717)"/><path class="w" d="M658.32,338.82a21.7,21.7,0,0,1,18.088,6.436c8.8,9.213,7.843,24.706-2.139,34.6a26.637,26.637,0,0,1-14.449,7.483,26.463,26.463,0,0,0,15.921-7.677c9.982-9.9,10.939-25.391,2.139-34.6A21.86,21.86,0,0,0,658.32,338.82Z" transform="translate(-585.396 -314.222)"/><path class="t" d="M4.224.089A3.257,3.257,0,0,0,.75,1.474a4.605,4.605,0,0,0-.559,1.41,7.839,7.839,0,0,0,2.425,7.569A14.7,14.7,0,0,1,4.162,11.79a4.543,4.543,0,0,1,.857,4.027A6.756,6.756,0,0,1,2.707,19.3a1.906,1.906,0,0,0-.569.62c-.378.827.6,1.617.853,2.5" transform="matrix(0.996, 0.087, -0.087, 0.996, 113.045, 117.708)"/></g><g transform="translate(671.179 682.412)"><path class="j" d="M843.724,460.148c-6.893,21.466-27.383,33.9-27.383,33.9s-9.313-22.37-2.42-43.836,27.383-33.9,27.383-33.9S850.617,438.681,843.724,460.148Z" transform="translate(-741.236 -387.944)"/><path class="c" d="M820.86,623.4c-14.919,16.705-15.417,41-15.417,41s23.691-2.791,38.61-19.5,15.417-41,15.417-41S835.779,606.693,820.86,623.4Z" transform="translate(-740.261 -415.798)"/><path class="c" d="M768.72,532.912c17.456,13.922,21.943,37.787,21.943,37.787s-23.815,1.294-41.271-12.628-21.943-37.787-21.943-37.787S751.264,518.991,768.72,532.912Z" transform="translate(-727.449 -403.378)"/><path class="c" d="M822.722,693.429h-2.273A188.867,188.867,0,0,1,805.715,649.4c-.242-1.184-.476-2.367-.694-3.568-.075-.375-.142-.758-.209-1.141a226.971,226.971,0,0,1-3.268-29.6c-1.513-32.162,3.1-67.857,13.915-108.159.042-.162.083-.324.134-.485.234-.886.476-1.771.719-2.665l1.964.562c-.025.085-.042.162-.067.247-.2.732-.4,1.456-.593,2.18-10.906,40.43-15.553,76.168-14.032,108.321a227.617,227.617,0,0,0,2.407,24.243q.389,2.5.827,4.981.426,2.363.9,4.717a186.361,186.361,0,0,0,15,44.4Z" transform="translate(-739.575 -400.932)"/><ellipse class="u" cx="19.346" cy="19.712" rx="19.346" ry="19.712" transform="translate(111.911)"/><path class="c" d="M836.3,459.16c-16.667,14.892-19.84,38.975-19.84,38.975s23.849-.061,40.515-14.953,19.84-38.975,19.84-38.975S852.97,444.268,836.3,459.16Z" transform="translate(-742.071 -392.086)"/></g></g></g></svg>