<svg xmlns="http://www.w3.org/2000/svg" xmlns:xlink="http://www.w3.org/1999/xlink" width="375" height="813" viewBox="0 0 375 813"><defs><style>.a,.q,.r{fill:#fff;}.a{stroke:#707070;}.b{clip-path:url(#a);}.c{fill:#3f3d56;}.d,.n{fill:#1f5269;}.d,.e{stroke:#3f3d56;}.d,.e,.o,.p{stroke-miterlimit:10;}.d,.e,.p{stroke-width:2px;}.e,.m,.o,.p{fill:none;}.f{fill:#282738;}.g{fill:#f2f2f2;}.h{opacity:0.2;}.i,.l,.o,.r{opacity:0.1;}.j,.l{fill:#3dadbd;}.k{fill:#444053;}.o{stroke:#000;}.p{stroke:#fff;opacity:0;}.s{fill:#fa8565;}.t{fill:#ffd5c9;}.u{fill:#2f2e41;}.v{fill:#ffb9b9;}</style><clipPath id="a"><rect class="a" width="375" height="813" transform="translate(-18)"/></clipPath></defs><g class="b" transform="translate(18)"><g transform="translate(-115.316 -219.875)"><g transform="translate(0.164 -52.561)"><path class="c" d="M547.6,853.158l-416.092-7.07,4.2-719.042L551.81,142.5Z" transform="translate(-69.328 119.227)"/><path class="d" d="M743.714,2.447,539.446,207.076V905.407l204.268,214.372Z" transform="translate(-174.246 -14.447)"/><path class="d" d="M1,2.447,205.267,207.076V905.407L1,1119.779Z" transform="translate(-1 -14.447)"/><line class="e" x2="102.448" y2="1.284" transform="translate(235.325 242.203)"/><path class="c" d="M356.592,171l.877-.935-4.527-4.393,4.631-4.28-.853-.957-5.639,5.213Z" transform="translate(-119.332 72.579)"/><path class="c" d="M507.639,172.827l-.853-.957,4.631-4.278-4.526-4.395.876-.935,5.512,5.353Z" transform="translate(-171.962 73.446)"/><ellipse class="c" cx="8.572" cy="8.734" rx="8.572" ry="8.734" transform="translate(277.962 228.442)"/></g><g transform="translate(70.79 481.735)"><path class="f" d="M424.423,216.219c0,119.414-77.484,193.677-212.212,182.388C59.9,409.743,0,335.634,0,216.219S424.423,96.8,424.423,216.219Z" transform="translate(0 -87)"/><circle class="f" cx="230.5" cy="230.5" r="230.5" transform="translate(-16.474 -94.86)"/></g><g transform="translate(119.575 658.687)"><ellipse class="g" cx="1.039" cy="1.059" rx="1.039" ry="1.059" transform="translate(150.675 0.706)"/><ellipse class="g" cx="1.039" cy="1.059" rx="1.039" ry="1.059" transform="translate(121.931 37.05)"/><ellipse class="g" cx="0.693" cy="0.706" rx="0.693" ry="0.706" transform="translate(192.58 43.754)"/><ellipse class="g" cx="0.693" cy="0.706" rx="0.693" ry="0.706" transform="translate(47.126 59.633)"/><ellipse class="g" cx="0.693" cy="0.706" rx="0.693" ry="0.706" transform="translate(196.735 0)"/><ellipse class="g" cx="0.693" cy="0.706" rx="0.693" ry="0.706" transform="translate(239.679 33.874)"/><ellipse class="g" cx="0.693" cy="0.706" rx="0.693" ry="0.706" transform="translate(281.93 87.509)"/><path class="g" d="M301.424,119.436h-.956v-.974h-.513v.974H299v.523h.956v.974h.513v-.974h.956Z" transform="translate(-210.662 -110.876)"/><path class="h" d="M187.357,721.275c-2.926.385-6.861.373-7.7-.015-.638-.3-1.032-1.59-1.183-2.191l-.086.014s.417,2.112,1.255,2.5,4.773.4,7.7.015c.845-.111,1.1-.454,1.031-.906C188.288,720.982,187.986,721.192,187.357,721.275Z" transform="translate(-151.215 -536.963)"/><path class="i" d="M317.605,683.527c0,10.663-14.588,7.365-32.45,7.365s-32.233,3.3-32.233-7.365,14.586-12.983,32.448-12.983S317.605,672.863,317.605,683.527Z" transform="translate(-252.922 -415.582)"/><path class="c" d="M317.605,676.086c0,10.663-14.588,7.365-32.45,7.365s-32.233,3.3-32.233-7.365S267.509,663.1,285.37,663.1,317.605,665.423,317.605,676.086Z" transform="translate(-252.922 -410.767)"/></g><g transform="translate(88.941 712.307)"><g transform="translate(23.554 46.865)"><path class="j" d="M207.67,648.086s5.373-.876,8.6,2.995c0,0-2.364,1.9-7.449-.731Z" transform="translate(-182.48 -481.97)"/><path class="j" d="M199.9,648s-3.427,4.308-1.744,9.1c0,0,2.791-1.138,3.1-6.945Z" transform="translate(-175.289 -481.969)"/><path class="j" d="M194.58,619.652s2.149-4.015,10.746,1.6c0,0-1.147,2.7-4.943,2.483S195.582,621.768,194.58,619.652Z" transform="translate(-173.044 -460.689)"/><path class="j" d="M179.96,622.119s-4.466-.518-4.89,9.879c0,0,2.827.6,4.834-2.69S181.082,624.173,179.96,622.119Z" transform="translate(-158.979 -463.446)"/><path class="j" d="M183.29,583.3s2.512-7.081,11.605-2.045c0,0-2.079,6.5-10.676,4.453Z" transform="translate(-164.905 -432.914)"/><path class="j" d="M173.27,547.345s4.731-7.152,13.118-.512c0,0-2.939,6.717-12.4,3.068Z" transform="translate(-157.682 -407.552)"/><path class="j" d="M169.68,512.973s5.518-6.569,13.827,0c0,0-5.23,5.767-13.827,1.678Z" transform="translate(-155.094 -383.252)"/><path class="j" d="M166.6,477.974s5.582-6.862,13.54-.367c0,0-6.3,6.06-13.54,1.971Z" transform="translate(-152.873 -358.034)"/><path class="j" d="M168.4,442.983s5.861-8.833,13.325-2.844c0,0-6.305,7.59-13.325,4.525Z" transform="translate(-154.171 -331.73)"/><path class="j" d="M173.27,408.184s6.235-8.759,13.47-2.042c0,0-7.38,7.59-13.47,3.649Z" transform="translate(-157.682 -307.078)"/><path class="j" d="M179.92,373.417s7.38-8.23,13.827-4.945c0,0-7.689,8.742-14.137,7.135Z" transform="translate(-162.252 -281.38)"/><path class="j" d="M188.385,338.978s8.513-10.073,13.456-6.709c0,0-6.272,7.812-14.081,8.614Z" transform="translate(-168.127 -255.535)"/><path class="j" d="M200.712,306.129s7.452-8.23,12.9-6.188c0,0-6.378,8.531-13.9,8.759Z" transform="translate(-176.742 -232.659)"/><path class="j" d="M214.447,272.963s8.239-7.883,11.82-6.5c0,0-5.945,8.759-12.178,8.247Z" transform="translate(-187.108 -208.821)"/><path class="j" d="M227.18,237.477s7.092-9.416,10.961-8.688c0,0-4.3,8.395-10.961,9.635Z" transform="translate(-196.545 -181.946)"/><path class="j" d="M239.337,200.483s6.269-7.22,9.654-7.2c0,0-4.949,9.641-9.911,9.558Z" transform="translate(-205.123 -156.563)"/><path class="j" d="M245.59,153.578l6.054-15.038s.3,13.593-6.824,17.828Z" transform="translate(-209.261 -117.391)"/><path class="j" d="M256.282,98.939s1.008-12.544.357-13.579c0,0,4.329,10.44-.4,19.125Z" transform="translate(-217.494 -79.334)"/><path class="j" d="M155.734,590.353s-6.28-3.964-10.344,5.739c0,0,5.582,3.779,11.081-3.262Z" transform="translate(-137.583 -440.142)"/><path class="j" d="M143,552.775s-7.7-3.577-11.444,6.541c0,0,5.948,4.16,12.139-3.981Z" transform="translate(-127.613 -413.386)"/><path class="j" d="M132.687,515.093s-5.518-6.569-13.827,0c0,0,5.231,5.764,13.827,1.678Z" transform="translate(-118.458 -384.769)"/><path class="j" d="M130.96,477.974s-5.582-6.862-13.54-.367c0,0,6.3,6.06,13.54,1.971Z" transform="translate(-117.42 -358.034)"/><path class="j" d="M136.27,439.4s-3.922-9.894-12.44-5.639c0,0,4.6,8.773,12.094,7.28Z" transform="translate(-122.041 -327.892)"/><path class="j" d="M142.6,402.833s-3.894-10.064-12.543-5.4c0,0,5.3,9.225,12.152,6.953Z" transform="translate(-126.532 -301.775)"/><path class="j" d="M161.259,357.751s-1.546-11.034-8.689-12.021c0,0,1.518,11.634,7.734,14.009Z" transform="translate(-142.759 -265.659)"/><path class="j" d="M173.763,323.036s-.6-13.286-6.523-13.756c0,0,.2,10.09,5.861,15.641Z" transform="translate(-153.335 -239.575)"/><path class="j" d="M186.346,289.968s-1.767-11.057-7.416-12.408c0,0,.7,10.707,6.861,15.112Z" transform="translate(-161.762 -216.876)"/><path class="j" d="M207.424,256.759s-.059-11.517-3.514-13.21c0,0-2.141,10.425,2.512,14.68Z" transform="translate(-179.415 -192.538)"/><path class="j" d="M217.266,224.951s-.483-11.862-4.061-13.531c0,0-1.223,9.385,3.525,14.307Z" transform="translate(-186.369 -169.545)"/><path class="j" d="M232.976,191.967s-.022-9.641-2.573-11.907c0,0-2.54,10.565,1.239,13.847Z" transform="translate(-198.266 -147.103)"/><path class="j" d="M237.637,149.346l-2.481-16.056s-3.377,13.155,2.6,18.951Z" transform="translate(-201.609 -113.634)"/><path class="j" d="M232.109,103.448s-6.375-10.789-6.244-12c0,0,.675,11.31,8.7,16.949Z" transform="translate(-195.595 -83.692)"/><path class="j" d="M228.342,80.741S222.324,65.41,219.6,64.17c0,0,8.6,4.453,9.244,16.133Z" transform="translate(-191.081 -64.17)"/><path class="k" d="M237.94,149.763l-.41-.128c5.077-16.872,6.344-27.645,3.567-30.326l.3-.319C244.324,121.837,243.129,132.475,237.94,149.763Z" transform="translate(-204.006 -103.4)"/><path class="k" d="M187.278,263.549l-.608-.219c.539-1.547,1.116-3.128,1.73-4.664,5.3-13.46,9.814-25.981,12.705-35.6l.53-.27c-2.9,9.632-7.338,22.634-12.641,36.111C188.392,260.449,187.814,262.01,187.278,263.549Z" transform="translate(-167.342 -177.689)"/><path class="k" d="M184.03,455.332c-.084-.094-8.315-9.535-14.053-25.66a96.613,96.613,0,0,1-5.549-29.4c-.394-12.541,2.191-26.556,6.618-39.273l.48.569c-9.936,28.56-5.99,53.034-.754,67.768,5.68,15.977,13.816,25.31,13.9,25.409Z" transform="translate(-151.279 -276.587)"/><path class="j" d="M261.75,604.32a4.671,4.671,0,0,1,4.055,1.422s-1.116.9-3.514-.344Z" transform="translate(-221.466 -450.683)"/><path class="j" d="M258.067,604.28a4.927,4.927,0,0,0-.837,4.288s1.32-.54,1.463-3.276Z" transform="translate(-218.053 -450.683)"/><path class="j" d="M255.57,590.9s1.013-1.894,5.071.759a2.275,2.275,0,0,1-2.333,1.172A2.754,2.754,0,0,1,255.57,590.9Z" transform="translate(-217.011 -440.64)"/><path class="j" d="M248.668,592.065s-2.1-.245-2.308,4.664a2.259,2.259,0,0,0,2.283-1.271A2.842,2.842,0,0,0,248.668,592.065Z" transform="translate(-210.371 -441.94)"/><path class="j" d="M250.24,573.735s1.183-3.341,5.476-.964c0,0-.98,3.066-5.024,2.1Z" transform="translate(-213.169 -427.523)"/><path class="j" d="M245.52,556.788s2.233-3.376,6.185-.242c0,0-1.4,3.168-5.861,1.445Z" transform="translate(-209.766 -415.57)"/><path class="j" d="M243.82,540.533s2.6-3.1,6.526,0a5.506,5.506,0,0,1-6.526.793Z" transform="translate(-208.54 -404.078)"/><path class="j" d="M242.37,524.044s2.638-3.239,6.389-.173c0,0-2.975,2.861-6.389.93Z" transform="translate(-207.495 -392.197)"/><path class="j" d="M243.22,507.536s2.772-4.169,6.286-1.345c0,0-2.973,3.583-6.286,2.136Z" transform="translate(-208.108 -379.786)"/><path class="j" d="M245.52,491.116s2.939-4.132,6.355-.964c0,0-3.483,3.583-6.355,1.706Z" transform="translate(-209.766 -368.155)"/><path class="j" d="M248.618,474.706s3.48-3.885,6.526-2.335c0,0-3.628,4.126-6.674,3.367Z" transform="translate(-211.893 -356.025)"/><path class="j" d="M252.64,458.448s4.022-4.755,6.355-3.171c0,0-2.961,3.7-6.646,4.067Z" transform="translate(-214.69 -343.822)"/><path class="j" d="M258.462,442.954s3.517-3.885,6.087-2.921c0,0-3.009,4.03-6.559,4.135Z" transform="translate(-218.755 -333.034)"/><path class="j" d="M264.955,427.3s3.888-3.72,5.582-3.066c0,0-2.808,4.135-5.747,3.893Z" transform="translate(-223.658 -321.785)"/><path class="j" d="M271,410.56s3.349-4.442,5.172-4.1c0,0-2.026,3.961-5.172,4.55Z" transform="translate(-228.134 -309.107)"/><path class="j" d="M276.683,393.073s2.959-3.413,4.555-3.413c0,0-2.333,4.55-4.678,4.51Z" transform="translate(-232.142 -297.097)"/><path class="j" d="M279.643,370.965l2.858-7.1s.142,6.416-3.221,8.412Z" transform="translate(-234.103 -278.641)"/><path class="j" d="M284.69,345.187s.472-5.927.167-6.407c0,0,2.043,4.925-.187,9.023Z" transform="translate(-237.989 -260.686)"/><path class="j" d="M237.242,577.047s-2.964-1.871-4.882,2.707c0,0,2.635,1.783,5.228-1.539Z" transform="translate(-200.279 -430.924)"/><path class="j" d="M231.238,559.351s-3.628-1.689-5.4,3.088c0,0,2.808,1.962,5.727-1.883Z" transform="translate(-195.579 -418.323)"/><path class="j" d="M226.366,541.533s-2.6-3.1-6.526,0a5.506,5.506,0,0,0,6.526.793Z" transform="translate(-191.254 -404.794)"/><path class="j" d="M225.549,524.044s-2.638-3.239-6.389-.173c0,0,2.975,2.861,6.389.93Z" transform="translate(-190.763 -392.197)"/><path class="j" d="M228.081,505.84s-1.85-4.67-5.861-2.662c0,0,2.169,4.141,5.708,3.435Z" transform="translate(-192.969 -377.973)"/><path class="j" d="M231.06,488.578s-1.837-4.749-5.92-2.559c0,0,2.512,4.354,5.736,3.282Z" transform="translate(-195.074 -365.639)"/><path class="j" d="M239.847,467.313s-.728-5.207-4.1-5.673c0,0,.715,5.489,3.648,6.612Z" transform="translate(-202.723 -348.607)"/><path class="j" d="M245.77,450.932s-.279-6.256-3.07-6.492c0,0,.095,4.763,2.763,7.38Z" transform="translate(-207.733 -336.298)"/><path class="j" d="M251.68,435.325s-.837-5.216-3.5-5.855c0,0,.332,5.053,3.238,7.132Z" transform="translate(-211.684 -325.585)"/><path class="j" d="M261.629,419.664s-.028-5.435-1.658-6.234c0,0-1.01,4.92,1.186,6.928Z" transform="translate(-220.016 -314.107)"/><path class="j" d="M266.276,404.644s-.229-5.6-1.918-6.384c0,0-.578,4.428,1.675,6.751Z" transform="translate(-223.298 -303.251)"/><path class="j" d="M273.688,389.086s0-4.55-1.214-5.617c0,0-1.2,4.985.586,6.541Z" transform="translate(-228.913 -292.667)"/><path class="j" d="M275.89,368.936l-1.169-7.576s-1.594,6.205,1.225,8.941Z" transform="translate(-230.493 -276.845)"/><path class="j" d="M273.275,347.312s-3.009-5.093-2.947-5.662c0,0,.321,5.338,4.109,8Z" transform="translate(-227.649 -262.74)"/><path class="j" d="M271.505,336.6s-2.836-7.232-4.125-7.818a9.174,9.174,0,0,1,4.36,7.613Z" transform="translate(-225.525 -253.53)"/><path class="k" d="M276.005,369.17l-.2-.06c2.4-7.963,2.995-13.045,1.675-14.313l.14-.148C279.023,355.992,278.462,361.006,276.005,369.17Z" transform="translate(-231.602 -272.043)"/><path class="k" d="M252.149,422.86l-.279-.1c.254-.731.528-1.47.815-2.2,2.512-6.353,4.63-12.263,6-16.8l.248-.128c-1.368,4.55-3.458,10.681-5.965,17.043C252.674,421.4,252.4,422.135,252.149,422.86Z" transform="translate(-214.344 -307.094)"/><path class="k" d="M250.591,513.343a40.393,40.393,0,0,1-6.632-12.109,45.61,45.61,0,0,1-2.618-13.878,53.165,53.165,0,0,1,3.123-18.536l.226.284a48.347,48.347,0,0,0-.354,31.979,40.1,40.1,0,0,0,6.556,11.992Z" transform="translate(-206.74 -353.745)"/></g><ellipse class="l" cx="11.64" cy="1.627" rx="11.64" ry="1.627" transform="translate(0 254.95)"/><ellipse class="l" cx="13.143" cy="2.054" rx="13.143" ry="2.054" transform="translate(130.056 242.035)"/><ellipse class="l" cx="13.143" cy="2.054" rx="13.143" ry="2.054" transform="translate(174.089 272.83)"/><ellipse class="l" cx="30.143" cy="4.554" rx="30.143" ry="4.554" transform="translate(264.181 280.856)"/><ellipse class="l" cx="17.049" cy="3.744" rx="17.049" ry="3.744" transform="translate(51.786 246.984)"/><path class="j" d="M458.77,211.716s6.985,10.064,12.7,3.529A2.135,2.135,0,0,0,472.508,213s-.5.385-1.1-.706a5.805,5.805,0,0,0-.772-1.083,2.722,2.722,0,0,0-1.52-.854h0s-3.217-1.8-8.374.681c0,0-1.555,0-1.773.226l1.953,1.059a3.691,3.691,0,0,1,2.009-1.835s-2.019,1.736-1.732,2.008c.059.053,1.06.515,1.06.515s1.25-2.583,3.269-3.052c0,0-2.677,1.74-2.888,3.232l1.548.607s1.188-2.8,3.463-3.419c0,0-2.736,1.916-3.117,3.529l1.6.388s1.212-2.706,3.117-3.211c0,0-2.94,2.541-2.736,3.275a7.687,7.687,0,0,0,1.922.138s.914-1.92,2.043-2.117c0,0-1.79,1.909-1.621,2.142a8.4,8.4,0,0,0,3.016-.833,6.111,6.111,0,0,1-2.975,1.154,3.382,3.382,0,0,0,1.787.808s-1.039.625-2.279-.769a7.8,7.8,0,0,1-1.811-.071,7.753,7.753,0,0,0,2.1,2.117s-1.5-.053-2.532-2.205l-1.621-.353a10.908,10.908,0,0,0,2.171,2.7s-1.517-.293-2.573-2.823l-1.527-.579a13.087,13.087,0,0,0,1.829,2.784,5.1,5.1,0,0,1-2.258-2.968l-.987-.49s.71,1.383.952,1.764.156.476.156.476a5.335,5.335,0,0,1-1.52-2.445A11.774,11.774,0,0,0,458.77,211.716Z" transform="translate(-401.528 -181.44)"/><path class="j" d="M404.228,243.656s-11.74-3.031-11.934,5.7a2.128,2.128,0,0,0,.644,2.382s.139-.621,1.3-.176a5.457,5.457,0,0,0,1.274.318,2.707,2.707,0,0,0,1.7-.353h0s3.6-.752,5.939-6.051c0,0,1.188-1.023,1.209-1.344l-2.165.48a3.848,3.848,0,0,1-.346,2.724s.429-2.654.035-2.668c-.08,0-1.136.307-1.136.307s.693,2.795-.544,4.485c0,0,.932-3.095.142-4.372l-1.569.565s.876,2.915-.461,4.894c0,0,.862-3.267.128-4.746l-1.486.759s.8,2.862-.326,4.5c0,0,.623-3.881,0-4.3a7.8,7.8,0,0,0-1.552,1.164s.526,2.064-.211,2.957c0,0,.149-2.636-.125-2.7a8.709,8.709,0,0,0-1.77,2.629,6.326,6.326,0,0,1,1.531-2.844,3.348,3.348,0,0,0-1.874.565s.4-1.168,2.223-.921a8.015,8.015,0,0,1,1.423-1.143,7.311,7.311,0,0,0-2.947-.226s1.171-.946,3.332,0l1.455-.8a10.392,10.392,0,0,0-3.373-.621s1.344-.78,3.758.452l1.531-.568a12.47,12.47,0,0,0-3.162-.91,4.923,4.923,0,0,1,3.605.762l1.067-.258s-1.42-.582-1.846-.706-.422-.258-.422-.258a5.127,5.127,0,0,1,2.715.854A12.55,12.55,0,0,0,404.228,243.656Z" transform="translate(-361.31 -203.067)"/><path class="j" d="M346.854,129.592s-5.617,10.917,2.684,13.13a2.033,2.033,0,0,0,2.424-.088s-.564-.282.132-1.323a5.815,5.815,0,0,0,.6-1.193,2.831,2.831,0,0,0,.052-1.764h0s.114-3.74-4.405-7.287c0,0-.693-1.411-1-1.507l-.042,2.258a3.607,3.607,0,0,1,2.518.984s-2.424-1.059-2.539-.649c-.021.078.031,1.2.031,1.2s2.826-.042,4.156,1.574c0,0-2.736-1.637-4.139-1.15l.177,1.683s2.985-.194,4.564,1.591c0,0-2.919-1.613-4.5-1.224l.391,1.63s2.916-.131,4.222,1.362c0,0-3.557-1.514-4.107-.992a8.147,8.147,0,0,0,.755,1.807s2.1-.046,2.771.893c0,0-2.483-.755-2.611-.5a8.6,8.6,0,0,0,2.1,2.357,6.21,6.21,0,0,1-2.362-2.174,3.559,3.559,0,0,0,.107,1.99s-1.039-.667-.367-2.421a8.2,8.2,0,0,1-.762-1.673,7.632,7.632,0,0,0-.894,2.869s-.637-1.38.776-3.3l-.429-1.63a11.119,11.119,0,0,0-1.385,3.2s-.433-1.51,1.3-3.62l-.187-1.648a12.86,12.86,0,0,0-1.6,2.925,5.166,5.166,0,0,1,1.562-3.4v-1.115s-.887,1.274-1.108,1.665-.346.353-.346.353a5.315,5.315,0,0,1,1.444-2.495A13.266,13.266,0,0,0,346.854,129.592Z" transform="translate(-330.478 -129.56)"/><path class="m" d="M313.732,457.261l-1.122,2.1s6.739,2,9.174,1.334,10.3-6.1,10.3-6.1Z" transform="translate(-212.277 -308.684)"/><g transform="translate(55.375 180.998)"><path class="n" d="M470.09,550.058c-.486,2.559-3.4,11.081-3.4,11.081s-4.375,12.776-5.589,13-58.309-1.081-60.75,0-16.281.024-16.281.024-8.5.618-12.642,1.679-26.487,2.767-27.582,2.767-10.952-3.408-12.707-2.982-12.2-1.064-14.63-.426-12.4-3.4-13.852-2.767-8.263,1.064-10.205,1.917-51.272-1.279-52.245-1.064c-.157.034-.766.128-1.632.265-4.6.705-17.078,2.5-17.078,2.5l-7.777-2.35s-6.8-.423-8.991-.211-12.144-8.082-12.144-8.082-.973-4.049,0-5.114,0-6.38,0-6.38a20.921,20.921,0,0,1,2.682-10.224c2.915-5.11,4.616-12.565,4.616-12.565s2.172-9.4,4.854-11.527,12.393-2.132,17.009-1.491l.4.05c6.129.762,43.426,4.2,46.982,4,3.647-.215,17.009.426,18.955-.215s46.415,1.279,46.415,1.279,7.531-2.35,9.355-2.77,7.9-11.712,9.841-12.991c.617-.406,1.149-.813,1.682-1.239a22.626,22.626,0,0,1,4.877-3.022c3.647-1.7,13.124,5.325,11.665,8.307-1.31,2.686-2.23,2.78-3.107,3.082a3.105,3.105,0,0,0-.295.114c-.973.426-4.6,6.175-4.6,6.175s47.886-1.064,53.218-1.491,21.384,0,23.085-1.064,18.465,1.917,18.465,1.917l8.75,16.188S470.6,547.5,470.09,550.058Z" transform="translate(-192.151 -502.939)"/><path class="j" d="M235.657,602.822c-4.308.705-16,2.5-16,2.5l-7.287-2.35s-6.375-.423-8.425-.211-11.386-8.069-11.386-8.069-.912-4.049,0-5.114,0-6.38,0-6.38a22.026,22.026,0,0,1,2.513-10.224,57.556,57.556,0,0,0,4.326-12.565s2.035-9.4,4.548-11.527,11.612-2.132,15.938-1.491l.377.05c9.172,13.236,24.2,36,24.668,43.825C245.224,596.271,240.744,600.1,235.657,602.822Z" transform="translate(-192.151 -532.218)"/><path class="o" d="M394.946,651.73a19.847,19.847,0,0,1-7.287.144c-4.329-.638-9.789,1.064-9.789,1.064" transform="translate(-306.41 -601.77)"/><path class="o" d="M456.52,655.33s3.417.849,12.524,1.064,10.248-.638,14.359,0,8.468,1.064,8.468,1.064" transform="translate(-354.243 -604.161)"/><path class="o" d="M381.67,664.868s12.524-2.129,17.991,0,16.153-.638,17.758,0,9.793.789,12.3.823,4.1.6,7.287,0,15.938.275,15.938.275" transform="translate(-307.346 -609.868)"/><path class="o" d="M535.18,614.184s6.6-1.622,11.612,0,15.03.336,20.267,1.2,20.49,3.62,22.087,1.917" transform="translate(-401.609 -576.352)"/><path class="o" d="M620.18,624.779a21.6,21.6,0,0,1,8.881,0c4.326,1.068,12.295,2.129,14.574,1.491a79.077,79.077,0,0,1,8.877-1.964c3.643-.594,13.436-3.979,17.079-3.244s7.969-1.491,11.846-2.189a24.711,24.711,0,0,1,10.475,0c4.781.792,7.287,2.945,7.969,2.189" transform="translate(-449.029 -579.574)"/><path class="o" d="M780.66,596.892c.686-.427,3.873,1.917,10.475,2.132a36.484,36.484,0,0,0,12.75-2.182s-.682-.692,3.417,0S827.34,598.6,827.34,598.6" transform="translate(-551.903 -565.107)"/><path class="o" d="M707.624,576.3s-8.2-2.132-11.612,0-7.057.212-8.2,0-11.16-.191-14.118-.947-11.612.97-11.612.97-10.93-.594-14.786-.094-12.754,2.273-13.436,1.064-7.969-3.27-10.475-2.132" transform="translate(-451.087 -550.693)"/><path class="o" d="M610.35,585.884s6.26-1.064,8.31,0,9.333,0,9.333,0,5.919,1.064,6.82,1.491" transform="translate(-449.099 -557.719)"/><path class="o" d="M790.18,569.363s2.732-.853,8.651,0a34.521,34.521,0,0,0,11.271-.379s6.034-.51,9,.672,8.795-.393,8.795-.393" transform="translate(-558.006 -546.734)"/><path class="o" d="M313.17,602.99s1.82-1.279,8.425,0,9.789-.567,9.789-.567-2.732-.144,3.188,0,9.111-2.162,9.111-2.162" transform="translate(-266.422 -567.582)"/><path class="o" d="M296,594.538s-.226-2.276,6.149,0,10.019,1.249,10.019,1.249a21.5,21.5,0,0,1,8.2-1.007,102.226,102.226,0,0,0,10.7,0" transform="translate(-258.72 -563.11)"/><path class="o" d="M284,577.783s1.364-1.521,7.513,0,8.2,0,8.2,0,6.145.077,10.019,1.437" transform="translate(-251.03 -552.203)"/><path class="o" d="M306.19,572.445s1.82-.107,6.149,0,8.881,0,8.881,0" transform="translate(-262.335 -549.075)"/><path class="o" d="M227.968,591.67s-3.414-2.626-1.138-4.117,5.445.178,5.445,1.044v5.345s-10.019,3.408-10.019,1.064,2.961-13.3,4.1-14,3.87-7.447,4.781-5.036,6.163,16.906,6.163,16.906a8.563,8.563,0,0,1-4.559,4.926c-3.643,1.679-16.85,1.823-16.62-1.007s3.87-17.245,3.87-17.245,6.149-15.566,9.563-11.873,5.025,10.151,7.743,12.78,8.651,12.706,6.149,17.36-20.5,9.116-20.5,9.116-14.359-3.193-11.386-14.055,4.781-29.182,9.107-30.246,8.655-2.35,12.3,0,10.927,16.678,12.295,17.816,8.881,11.813,7.513,15.318-9.107,13.723-13.206,15.214S225.9,609.49,225.9,609.49" transform="translate(-204.331 -541.71)"/><path class="o" d="M722.94,646.746s8.651-.215,10.7,0,6.149-4.939,8.425-4.281,3.188,4.348,7.287,3.677,14.574-1.561,14.574-1.561a71.145,71.145,0,0,0,9.563,0,60.284,60.284,0,0,1,8.881,0c2.06.037,7.969,0,7.969,0l1.795.957" transform="translate(-514.902 -595.577)"/><path class="o" d="M740.7,629.562a64.756,64.756,0,0,1,8.655,0c3.87.336,16.394-2.092,21.857-1.83s8.2-1.635,10.7-1.343,4.329,1.571,8.2,1.578,13.418-1.578,13.418-1.578" transform="translate(-526.287 -584.918)"/><path class="o" d="M418.47,683.716s15.938,1.914,21.179,0,7.969-2.559,11.612-1.917,2.513-1.759,9.107-.242,18.217,2.256,21.179,1.249,23.692,3.25,23.692,3.25" transform="translate(-329.044 -621.241)"/><path class="o" d="M490.14,701s6.6.638,10.93,1.064,24.137,1.917,28.236,0,29.6-.054,29.6-.054a69.029,69.029,0,0,0,9.107,0c3.414-.369,12.068-1.007,12.068-1.007" transform="translate(-372.195 -634.496)"/><path class="j" d="M633.73,511.508c-1.228,2.686-2.089,2.78-2.911,3.082-4.114-1.743-9.4-5.765-12.589-8.367a21.032,21.032,0,0,1,4.57-3.022C626.217,501.5,635.1,508.526,633.73,511.508Z" transform="translate(-454.349 -502.939)"/><path class="j" d="M348,660.256v-8.307l3.173,4.154s4.326-25.435,5.463-24.27,0,21.825,0,21.825l2.732-1.706,1.368,3.724s7.743-11.1,8.425-9.647-1.594,9.647-1.594,9.647l11.386-21.691s-3.873,18.609-2.513,19.673,6.6-3.2,7.513-1.706-8.425,9.324-8.425,9.324Z" transform="translate(-287.694 -588.528)"/><path class="j" d="M752.12,655.252l3.414-8.307s2.735,3.613,3.417,3.724,4.326-2.015,4.326-2.015v-9.381l5.693,10.382,2.732-1.007,1.138-4.211,1.368,2.5s10.245-24.082,15.938-21.731l-8.2,20.667,8.2-5.735s-3.644,9.452-4.44,9.509,7.179-1.007,7.179-1.007l-2.739,6.608Z" transform="translate(-533.608 -584.048)"/><path class="o" d="M630.6,510.9s2.721,4.207,5.345,4.029,4.031-2.105,3.188-3.331-6.461-3.509-6.461-3.509" transform="translate(-462.268 -506.36)"/><path class="o" d="M636.09,515.15s1.368,2.982,2.419,1.753S636.09,515.15,636.09,515.15Z" transform="translate(-465.915 -511.05)"/><path class="i" d="M844.25,690.689c2.244-.732,15.371-1.007,17.532-1.054-1.274-1.3-2.215-2.35-2.215-2.35s-10.693-.2-13.781,1.41A3.49,3.49,0,0,0,844.25,690.689Z" transform="translate(-592.666 -625.38)"/><path class="i" d="M859.017,550.9s-4.523,1.41-5.743,3.425S859.017,550.9,859.017,550.9Z" transform="translate(-598.359 -534.796)"/><path class="i" d="M852.715,537.7c-.144.2-6.2,5.879-5.815,7.253S852.715,537.7,852.715,537.7Z" transform="translate(-594.354 -526.028)"/><path class="i" d="M757.409,549.7s-6.748,2.975-7.323,4.274S757.409,549.7,757.409,549.7Z" transform="translate(-535.941 -533.999)"/><path class="i" d="M756.873,561.1s-6.1,2.418-6.921,3.022S756.873,561.1,756.873,561.1Z" transform="translate(-535.859 -541.571)"/><path class="i" d="M753.62,575.756s-2.7,1.877-4.185.4S753.62,575.756,753.62,575.756Z" transform="translate(-535.562 -551.057)"/><path class="m" d="M491.3,579.21" transform="translate(-376.701 -553.6)"/></g><path class="m" d="M305.92,471.08s1.195,3.723,3.861,4.435Z" transform="translate(-208.239 -319.355)"/><path class="m" d="M318.054,473.31s-.281,2.862,1.687,3.578S318.054,473.31,318.054,473.31Z" transform="translate(-215.975 -320.799)"/><path class="j" d="M12.166.541S.247-2.554.125,6.059A2.081,2.081,0,0,0,.8,8.416S.933,7.8,2.109,8.254A5.714,5.714,0,0,0,3.4,8.578a2.775,2.775,0,0,0,1.719-.333h0s3.639-.711,5.965-5.922c0,0,1.195-1,1.213-1.317l-2.188.455a3.7,3.7,0,0,1-.327,2.686S10.2,1.531,9.8,1.514c-.081,0-1.148.293-1.148.293s.726,2.765-.512,4.423c0,0,.917-3.047.106-4.315l-1.584.544s.913,2.885-.425,4.828c0,0,.845-3.218.089-4.684l-1.5.736s.835,2.832-.291,4.439c0,0,.6-3.827-.037-4.243A7.7,7.7,0,0,0,2.934,4.669s.551,2.043-.189,2.917c0,0,.128-2.6-.149-2.666A8.392,8.392,0,0,0,.826,7.5,6.067,6.067,0,0,1,2.352,4.706a3.409,3.409,0,0,0-1.893.541S.852,4.1,2.7,4.357A7.884,7.884,0,0,1,4.135,3.241a7.628,7.628,0,0,0-2.987-.249s1.178-.923,3.375.029L5.989,2.24A10.873,10.873,0,0,0,2.567,1.6s1.354-.758,3.81.479l1.546-.547A13.06,13.06,0,0,0,4.712.6a5.136,5.136,0,0,1,3.659.784l1.078-.245S8.005.554,7.573.428,7.143.17,7.143.17A5.365,5.365,0,0,1,9.9,1.037,12.848,12.848,0,0,0,12.166.541Z" transform="translate(75.775 94.305) rotate(-124)"/><path class="j" d="M1040.386,746.145s-14.327-.879-12.637,9.347a2.5,2.5,0,0,0,1.271,2.629s.028-.759,1.468-.5a6.505,6.505,0,0,0,1.558.078,3.2,3.2,0,0,0,1.9-.8h0s4.028-1.694,5.593-8.4c0,0,1.16-1.461,1.115-1.838l-2.424,1.059a4.491,4.491,0,0,1,.177,3.253s-.08-3.176-.544-3.112c-.094,0-1.257.614-1.257.614s1.42,3.1.346,5.346c0,0,.405-3.814-.793-5.12l-1.7,1.013s1.662,3.2.537,5.8c0,0,.288-4-.893-5.558l-1.541,1.224s1.558,3.151.609,5.314c0,0-.125-4.658-.945-5.011a9.627,9.627,0,0,0-1.555,1.711s1.07,2.286.409,3.493c0,0-.409-3.1-.741-3.116a10.451,10.451,0,0,0-1.486,3.465,7.587,7.587,0,0,1,1.16-3.663,4.023,4.023,0,0,0-2.078,1.087s.211-1.454,2.393-1.581a9.454,9.454,0,0,1,1.406-1.655,8.638,8.638,0,0,0-3.484.409s1.157-1.373,3.882-.748l1.524-1.267a12.326,12.326,0,0,0-4.069.042s1.385-1.214,4.478-.332l1.659-1.009a15.118,15.118,0,0,0-3.886-.353s1.531-.84,4.37.071l1.184-.54s-1.784-.353-2.307-.413-.551-.2-.551-.2a6.069,6.069,0,0,1,3.352.381A15.174,15.174,0,0,0,1040.386,746.145Z" transform="translate(-844.782 -484.229)"/><ellipse class="l" cx="10.14" cy="1.747" rx="10.14" ry="1.747" transform="translate(159.324 250.038)"/></g><g transform="translate(104.525 903.437) rotate(8)"><g transform="translate(0 0)"><path class="c" d="M5.784,16.128C-1.867,28.1.277,43.363.277,43.363s14.549-4.154,22.2-16.128S27.984,0,27.984,0,13.435,4.154,5.784,16.128Z" transform="translate(32.38 8.1)"/><path class="j" d="M32.615,40s-.187-.031-.531-.1c-.275-.057-.653-.139-1.115-.252-4.129-1-15.107-4.378-22.3-13.2C-.337,15.4,0,0,0,0S13.733,2.306,22.8,12.229q.59.64,1.147,1.326c7.835,9.611,8.6,22.518,8.662,25.709C32.621,39.741,32.615,40,32.615,40Z" transform="translate(0 11.323)"/><path class="i" d="M9.967,27.034c-.2.249-.381.461-.528.635-.325.378-.51.576-.51.576s-.226-.288-.6-.828C6.242,24.466-.459,13.977.025,1.881Q.064.931.157,0,.747.64,1.3,1.326C9.14,10.937,9.9,23.844,9.967,27.034Z" transform="translate(22.645 23.552)"/><path class="j" d="M19.9,26.363C19.332,40.668,8.931,51.8,8.931,51.8S-.546,39.741.025,25.437,11,0,11,0,20.474,12.059,19.9,26.363Z" transform="translate(24.037 0)"/></g><line class="e" y1="50.811" x2="2.163" transform="translate(32.966 0.584)"/><path class="e" d="M22.534,16.244c7.713,12.014,5.647,27.264,5.647,27.264S13.611,39.279,5.9,27.264.251,0,.251,0,14.822,4.229,22.534,16.244Z" transform="translate(4.475 7.955)"/></g><g transform="translate(118.012 953.303)"><path class="i" d="M818.1,737.665c-1.274,12.011-9.307,7.986-19.026,7.986-10.268,0-18.653,4.492-19.176-10.171,9.629.3,18.515.718,26.365,1.243l1.766.117a.013.013,0,0,0,.012.005C811.632,737.1,815,737.372,818.1,737.665Z" transform="translate(-779.855 -713.974)"/><path class="c" d="M779.734,618.154c0-11.466,8.617-20.761,19.246-20.761s19.246,9.295,19.246,20.761-8.617,8.131-19.246,8.131S779.734,629.62,779.734,618.154Z" transform="translate(-779.734 -597.393)"/></g><g transform="translate(402.468 890.956)"><rect class="g" width="0.452" height="4.257" transform="translate(61.25 29.09)"/><rect class="g" width="31.621" height="0.46" transform="translate(26.015 37.029)"/><rect class="g" width="0.452" height="4.257" transform="translate(34.598 32.887)"/><rect class="g" width="0.452" height="4.257" transform="translate(48.376 32.887)"/><rect class="g" width="0.452" height="4.257" transform="translate(23.983 14.362)"/><path class="c" d="M142.327,693.889h-2.484v21.4s16.036,5.293,31.621,0v-21.4Z" transform="translate(-116.594 -633.595)"/><ellipse class="c" cx="15.585" cy="2.416" rx="15.585" ry="2.416" transform="translate(23.249 57.992)"/><ellipse class="i" cx="15.585" cy="2.416" rx="15.585" ry="2.416" transform="translate(23.249 57.992)"/><path class="c" d="M214.519,483.6c-3.931,14.808-17.4,23.978-17.4,23.978s-7.092-14.837-3.161-29.645,17.4-23.978,17.4-23.978S218.451,468.794,214.519,483.6Z" transform="translate(-157.57 -448.879)"/><path class="j" d="M126.632,483.6c3.931,14.808,17.4,23.978,17.4,23.978s7.092-14.837,3.161-29.645-17.4-23.978-17.4-23.978S122.7,468.794,126.632,483.6Z" transform="translate(-105.447 -448.879)"/><path class="c" d="M63.87,530.141c10.788,10.7,12.106,27.148,12.106,27.148s-16.173-.9-26.961-11.6-12.106-27.148-12.106-27.148S53.082,519.441,63.87,530.141Z" transform="translate(-36.909 -498.6)"/><path class="c" d="M221.981,530.141c-10.788,10.7-12.106,27.148-12.106,27.148s16.173-.9,26.961-11.6,12.106-27.148,12.106-27.148S232.769,519.441,221.981,530.141Z" transform="translate(-170.809 -498.6)"/><ellipse class="j" cx="4.969" cy="5.063" rx="4.969" ry="5.063" transform="translate(34.09 0)"/></g><rect class="c" width="0.316" height="21.732" transform="translate(207.147 882.084)"/><ellipse class="c" cx="3.016" cy="3.073" rx="3.016" ry="3.073" transform="translate(204.401 878.266)"/><path class="c" d="M108.667,677.619s-.431-9.443-9.264-8.345" transform="translate(99.489 225.69)"/><ellipse class="j" cx="3.463" cy="3.63" rx="3.463" ry="3.63" transform="translate(139.893 887.553)"/><g transform="translate(404.046 415.635)"><path class="l" d="M981.922,219.592a7.4,7.4,0,0,0-4.37.486,6.33,6.33,0,0,1-5.248,0,7.24,7.24,0,0,0-6.17.122,3.759,3.759,0,0,1-1.777.454c-2.5,0-4.584-2.567-5.016-5.955a4.9,4.9,0,0,0,1.251-1.375,6.968,6.968,0,0,1,12.544-.042,4.808,4.808,0,0,0,4.169,2.326h.065C979.345,215.593,981.07,217.221,981.922,219.592Z" transform="translate(-959.327 -199.897)"/><path class="l" d="M989.493,182.751l-4.044,2.615,2.455-4.551a3.967,3.967,0,0,0-2.447-.889h-.065a4.9,4.9,0,0,1-.839-.064l-1.371.884.589-1.089a4.879,4.879,0,0,1-2.4-1.859l-2.455,1.593,1.563-2.87a7.14,7.14,0,0,0-5.5-2.833,7.52,7.52,0,0,0-6.29,3.956,4.669,4.669,0,0,1-4.169,2.283h-.138c-2.817,0-5.1,3.255-5.1,7.267s2.283,7.267,5.1,7.267a3.78,3.78,0,0,0,1.777-.451,7.23,7.23,0,0,1,6.17-.125,6.33,6.33,0,0,0,5.248.013,7.248,7.248,0,0,1,6.118.119,3.761,3.761,0,0,0,1.756.443c2.817,0,5.1-3.252,5.1-7.267A9.368,9.368,0,0,0,989.493,182.751Z" transform="translate(-959.29 -173.69)"/></g><g transform="translate(124.943 731.354)"><path class="l" d="M981.922,219.592a7.4,7.4,0,0,0-4.37.486,6.33,6.33,0,0,1-5.248,0,7.24,7.24,0,0,0-6.17.122,3.759,3.759,0,0,1-1.777.454c-2.5,0-4.584-2.567-5.016-5.955a4.9,4.9,0,0,0,1.251-1.375,6.968,6.968,0,0,1,12.544-.042,4.808,4.808,0,0,0,4.169,2.326h.065C979.345,215.593,981.07,217.221,981.922,219.592Z" transform="translate(-959.327 -199.897)"/><path class="l" d="M989.493,182.751l-4.044,2.615,2.455-4.551a3.967,3.967,0,0,0-2.447-.889h-.065a4.9,4.9,0,0,1-.839-.064l-1.371.884.589-1.089a4.879,4.879,0,0,1-2.4-1.859l-2.455,1.593,1.563-2.87a7.14,7.14,0,0,0-5.5-2.833,7.52,7.52,0,0,0-6.29,3.956,4.669,4.669,0,0,1-4.169,2.283h-.138c-2.817,0-5.1,3.255-5.1,7.267s2.283,7.267,5.1,7.267a3.78,3.78,0,0,0,1.777-.451,7.23,7.23,0,0,1,6.17-.125,6.33,6.33,0,0,0,5.248.013,7.248,7.248,0,0,1,6.118.119,3.761,3.761,0,0,0,1.756.443c2.817,0,5.1-3.252,5.1-7.267A9.368,9.368,0,0,0,989.493,182.751Z" transform="translate(-959.29 -173.69)"/></g><g transform="translate(407.629 762.392)"><path class="l" d="M981.922,219.592a7.4,7.4,0,0,0-4.37.486,6.33,6.33,0,0,1-5.248,0,7.24,7.24,0,0,0-6.17.122,3.759,3.759,0,0,1-1.777.454c-2.5,0-4.584-2.567-5.016-5.955a4.9,4.9,0,0,0,1.251-1.375,6.968,6.968,0,0,1,12.544-.042,4.808,4.808,0,0,0,4.169,2.326h.065C979.345,215.593,981.07,217.221,981.922,219.592Z" transform="translate(-959.327 -199.897)"/><path class="l" d="M989.493,182.751l-4.044,2.615,2.455-4.551a3.967,3.967,0,0,0-2.447-.889h-.065a4.9,4.9,0,0,1-.839-.064l-1.371.884.589-1.089a4.879,4.879,0,0,1-2.4-1.859l-2.455,1.593,1.563-2.87a7.14,7.14,0,0,0-5.5-2.833,7.52,7.52,0,0,0-6.29,3.956,4.669,4.669,0,0,1-4.169,2.283h-.138c-2.817,0-5.1,3.255-5.1,7.267s2.283,7.267,5.1,7.267a3.78,3.78,0,0,0,1.777-.451,7.23,7.23,0,0,1,6.17-.125,6.33,6.33,0,0,0,5.248.013,7.248,7.248,0,0,1,6.118.119,3.761,3.761,0,0,0,1.756.443c2.817,0,5.1-3.252,5.1-7.267A9.368,9.368,0,0,0,989.493,182.751Z" transform="translate(-959.29 -173.69)"/></g><g transform="translate(40.755 740.662)"><line class="p" x2="146.653" y2="34.687" transform="translate(341.631 52.244)"/><line class="p" x2="146.653" y2="22.68" transform="translate(341.631 26.627)"/><line class="p" x2="146.653" y2="16.01" transform="translate(341.631)"/><line class="p" x1="146.653" y2="34.687" transform="translate(0 52.244)"/><line class="p" x1="146.653" y2="22.68" transform="translate(0 26.627)"/><line class="p" x1="146.653" y2="16.01"/></g><g transform="translate(344.142 822.017)"><ellipse class="q" cx="0.346" cy="0.353" rx="0.346" ry="0.353" transform="translate(53.476 98.743)"/><ellipse class="q" cx="0.346" cy="0.353" rx="0.346" ry="0.353" transform="translate(67.329 71.22)"/><ellipse class="q" cx="0.346" cy="0.353" rx="0.346" ry="0.353" transform="translate(48.628 18.291)"/><path class="r" d="M649.578,433.889h5.281q-2.748,1.445-5.517,2.869v-2.735Z" transform="translate(-607.468 -385.252)"/><path class="s" d="M0,4.739a3.6,3.6,0,0,1,2.074-3.3L1.953,0,9.715.054,8.877,9.371,2.739,9.328,2.65,8.272A3.712,3.712,0,0,1,0,4.739ZM2.6,7.715,2.135,2.162A3.621,3.621,0,0,0,1.1,5.031,3.714,3.714,0,0,0,2.6,7.715Z" transform="matrix(0.914, 0.407, -0.407, 0.914, 64.078, 85.048)"/><path class="t" d="M697,535.506s9.15,6.659,6.1,9.323-9.15-7.991-9.15-7.991Z" transform="translate(-634.893 -451.366)"/><path class="t" d="M580.717,563.186s1.743,22.2,2.178,25.3.871,31.075,1.743,34.183a103.116,103.116,0,0,1,1.743,10.654h5.228s-.436-13.762.871-19.089.871-19.977.871-19.977,2.614-26.192,1.307-29.743S580.717,563.186,580.717,563.186Z" transform="translate(-562.609 -468.482)"/><path class="u" d="M592.439,759.448s-2.178,1.332-2.178,2.22.436,3.107,0,4-3.486,4.439-1.743,5.327,9.585,0,9.585,0-.436-6.215-.871-6.659.436-4.883.436-4.883Z" transform="translate(-567.359 -595.935)"/><path class="t" d="M650.771,562.742s.553,22.26.44,25.4,2.335,31,1.788,34.18a103.233,103.233,0,0,0-.636,10.782l-5.2.559s-.984-13.732-2.833-18.89S641.406,595,641.406,595s-5.3-25.768-4.364-29.439S650.771,562.742,650.771,562.742Z" transform="translate(-599.355 -468.582)"/><path class="u" d="M667.528,758.942s2.3,1.091,2.4,1.974-.113,3.137.412,3.973,3.924,4.042,2.282,5.111-9.533,1.025-9.533,1.025-.207-6.227.181-6.715-.936-4.81-.936-4.81Z" transform="translate(-615.956 -595.607)"/><path class="u" d="M582.07,466.288s4.411-7.064-1.253,4.905c-.426,2.361-4.806,13.566-5.091,20.721-.982,24.634-.809,66.7-2.151,69.814-1.725,4,15.843,7.062,16.121,3.107s4.608-65.673,4.608-65.673,5.778,64.624,6.438,67.051,16.04.509,16.671-3.706c-8.785-48.19-6.719-70.593-6.719-70.593s-.87-13.823-7.05-20.721c-1.532-1.5-1.247-2.747-1.1-4.905Z" transform="translate(-557.862 -404.879)"/><path class="t" d="M578.637,459.141s5.664-1.332,6.536.444-2.179,4.439-3.486,4.439a9.447,9.447,0,0,1-3.486-1.332Z" transform="translate(-560.964 -401.284)"/><ellipse class="v" cx="7.843" cy="7.991" rx="7.843" ry="7.991" transform="translate(29.883 3.559)"/><path class="v" d="M620.133,341s-.936,7.094-1.808,7.094,6.535,4,6.535,4l5.664-.888,1.743-2.664s-2.7-4.277-2.7-7.829S620.133,341,620.133,341Z" transform="translate(-587.146 -323.98)"/><path class="j" d="M600.563,362.777a6.343,6.343,0,0,0-1.743-.888h-3.486c-.436,0-6.1,1.332-6.1,1.332L585.749,383.2s6.1,10.21,1.743,18.2a74.244,74.244,0,0,0,13.9,2.908,28.316,28.316,0,0,0,10.936-1.576c.436,0,.436-3.551,0-4.439s.436-.444.436-2.664a27.593,27.593,0,0,1,1.307-6.215l6.1-22.64s-7.843-4.439-9.15-4-5.228,1.776-6.1,1.332A39.758,39.758,0,0,0,600.563,362.777Z" transform="translate(-565.898 -338.658)"/><path class="j" d="M553.073,366.056l-1.307-.444s-2.614-.444-5.664,2.22-14.378,10.654-14.378,10.654-4.357,3.551-3.05,7.547,3.486,13.762,10.021,13.318c0,0,3.921,5.327,6.1,4.439s3.921-4.439,2.614-4.883-4.793-4.883-4.793-4.883l4.357-8.435h1.307l4.793-2.664Z" transform="translate(-528.429 -341.049)"/><path class="j" d="M3.078,0,6.564.439s3.048,1.328,2.605,7.1S8.515,13.483,11.7,30.7c0,0,3.07,26.994,2.2,27.439s-6.1,3.115-5.666,1.339-2.3-13.188-2.3-13.188A35.408,35.408,0,0,1,2.09,32.228L0,21.755Z" transform="matrix(0.998, -0.07, 0.07, 0.998, 45.668, 28.242)"/><path class="u" d="M606.129,315.65c-.972-1.4-2.168-2.625-3.194-3.985-2.365-3.136-3.183-7.315-6.357-9.72-3.141-2.38-8.124-4.722-12.054-4.534-5.179.247-9.288,4.341-12.858,8.172l-8.185,8.782c-1.974,2.118-4.021,4.366-4.732,7.2a11.974,11.974,0,0,0,1.235,8.141,19.729,19.729,0,0,0,5.348,6.505c2.74-3.844,6.579-9.152,6.579-9.152l.894,13.2a37.186,37.186,0,0,0,14.521,1.529l1.449-5.413,1.521,5.113c5.846-.79,11.719-2.846,15.338-7.494A15.984,15.984,0,0,0,606.129,315.65Z" transform="translate(-548.069 -296.925)"/><path class="u" d="M600.88,313.444a13.982,13.982,0,0,1,2.781-11.7c5.017-6.063,14.41-6.4,20.979-.761a16.888,16.888,0,0,1,5.385,8.584,16.818,16.818,0,0,0-5.591-9.492c-6.569-5.643-15.961-5.3-20.979.761A14.106,14.106,0,0,0,600.88,313.444Z" transform="translate(-575.465 -296.052)"/><path class="u" d="M556.313,368.739a13.982,13.982,0,0,1,2.781-11.7c5.017-6.063,14.409-6.4,20.979-.761a16.889,16.889,0,0,1,5.385,8.584,16.819,16.819,0,0,0-5.591-9.492c-6.569-5.643-15.961-5.3-20.979.761A14.106,14.106,0,0,0,556.313,368.739Z" transform="translate(-546.333 -331.836)"/><path class="u" d="M658.32,338.7a13.383,13.383,0,0,1,11.158,3.97c5.429,5.683,4.838,15.24-1.319,21.346a16.431,16.431,0,0,1-8.913,4.616,16.324,16.324,0,0,0,9.821-4.735c6.157-6.106,6.748-15.663,1.319-21.346A13.485,13.485,0,0,0,658.32,338.7Z" transform="translate(-613.336 -323.526)"/><path class="r" d="M2.605.055A2.009,2.009,0,0,0,.462.909a2.841,2.841,0,0,0-.345.87,4.836,4.836,0,0,0,1.5,4.669,9.07,9.07,0,0,1,.954.825A2.8,2.8,0,0,1,3.1,9.757,4.168,4.168,0,0,1,1.67,11.908a1.176,1.176,0,0,0-.351.383c-.233.51.372,1,.526,1.539" transform="matrix(0.996, 0.087, -0.087, 0.996, 69.732, 72.609)"/></g><g transform="translate(30.893 412.028) rotate(-61)"><path class="j" d="M19.952,20.912C15.7,7.67,3.061,0,3.061,0S-2.684,13.8,1.568,27.041,18.459,47.952,18.459,47.952,24.2,34.154,19.952,20.912Z" transform="translate(43.269 114.978)"/><path class="c" d="M9.51,25.291C.307,14.986,0,0,0,0S14.614,1.722,23.817,12.027s9.51,25.291,9.51,25.291S18.713,35.6,9.51,25.291Z" transform="translate(40.208 27.079)"/><path class="c" d="M25.458,23.329C36.226,14.741,38.994.02,38.994.02S24.3-.779,13.536,7.809,0,31.118,0,31.118,14.69,31.916,25.458,23.329Z" transform="translate(0 77.197)"/><path class="c" d="M13.236,0h-1.4A116.5,116.5,0,0,0,2.745,27.161c-.15.73-.294,1.46-.428,2.2-.046.231-.088.468-.129.7A140.013,140.013,0,0,0,.173,48.324C-.76,68.163,2.085,90.182,8.756,115.043c.026.1.051.2.082.3.144.546.294,1.093.443,1.644l1.211-.347c-.015-.052-.026-.1-.041-.152-.124-.452-.247-.9-.366-1.345C3.359,90.2.492,68.158,1.431,48.324A140.406,140.406,0,0,1,2.915,33.37q.24-1.544.51-3.073.263-1.458.557-2.91A114.959,114.959,0,0,1,13.236,0Z" transform="translate(38.054 0)"/><ellipse class="s" cx="11.934" cy="12.159" rx="11.934" ry="12.159" transform="translate(69.033 156.111)"/><path class="c" d="M12.238,24.042C1.957,14.856,0,0,0,0S14.711.038,24.992,9.224,37.231,33.266,37.231,33.266,22.519,33.228,12.238,24.042Z" transform="translate(45.89 115.013)"/></g></g></g></svg>