<svg xmlns="http://www.w3.org/2000/svg" xmlns:xlink="http://www.w3.org/1999/xlink" width="1920" height="1076" viewBox="0 0 1920 1076"><defs><style>.a,.t,.u{fill:#fff;}.a{stroke:#707070;}.b{clip-path:url(#a);}.c{fill:#3f3d56;}.d,.o{fill:#1f5269;}.d,.e{stroke:#3f3d56;}.d,.e,.p,.s{stroke-miterlimit:10;}.d,.e,.s{stroke-width:2px;}.e,.n,.p,.s{fill:none;}.f{fill:#282738;}.g{fill:#f2f2f2;}.h{fill:#a8a8a8;}.i{opacity:0.2;}.j,.m,.p,.u{opacity:0.1;}.k,.m{fill:#3dadbd;}.l{fill:#444053;}.p{stroke:#000;}.q{fill:#d0cde1;}.r{fill:#fa8565;}.s{stroke:#fff;opacity:0;}.v{fill:#ffd5c9;}.w{fill:#2f2e41;}.x{fill:#ffb9b9;}</style><clipPath id="a"><rect class="a" width="1920" height="1076" transform="translate(0 58)"/></clipPath></defs><g class="b" transform="translate(0 -58)"><g transform="translate(-0.473 -403.974)"><g transform="translate(0.473 152.184)"><path class="c" d="M1332.985,1066.224l-1201.474-9.145,12.125-930.033,1201.5,19.985Z" transform="translate(162.952 117.391)"/><path class="d" d="M1129.273,2.447,539.446,266.7V1168.49l589.827,276.83Z" transform="translate(917.855 -2.447)"/><path class="d" d="M1,2.447,590.825,266.7V1168.49L1,1445.32Z" transform="translate(-125.671 -2.447)"/><line class="e" x2="295.82" y2="3.707" transform="translate(818.403 337.338)"/><path class="c" d="M367,190.942l2.532-2.7-13.071-12.684L369.829,163.2l-2.464-2.762-16.284,15.053Z" transform="translate(431.571 161)"/><path class="c" d="M509.25,192.767,506.786,190l13.372-12.352-13.07-12.69,2.53-2.7,15.916,15.456Z" transform="translate(623.965 162.888)"/><ellipse class="c" cx="24.753" cy="25.22" rx="24.753" ry="25.22" transform="translate(941.344 312.825)"/></g><g transform="translate(338.788 263.59)"><path class="f" d="M612.765,0C951.186,0,1225.53,279.525,1225.53,624.337s-223.736,559.247-612.765,526.651C172.962,1183.143,0,969.149,0,624.337S274.344,0,612.765,0Z"/></g><g transform="translate(460.396 616.562)"><ellipse class="g" cx="3" cy="3.057" rx="3" ry="3.057" transform="translate(435.078 2.038)"/><ellipse class="g" cx="3" cy="3.057" rx="3" ry="3.057" transform="translate(352.078 106.983)"/><ellipse class="g" cx="2" cy="2.038" rx="2" ry="2.038" transform="translate(556.078 126.342)"/><ellipse class="g" cx="2" cy="2.038" rx="2" ry="2.038" transform="translate(136.078 172.192)"/><ellipse class="g" cx="2" cy="2.038" rx="2" ry="2.038" transform="translate(568.078 0)"/><ellipse class="g" cx="2" cy="2.038" rx="2" ry="2.038" transform="translate(692.078 97.813)"/><ellipse class="g" cx="2" cy="2.038" rx="2" ry="2.038" transform="translate(814.078 252.684)"/><path class="g" d="M306,121.274h-2.76v-2.812h-1.48v2.812H299v1.509h2.76v2.811h1.48v-2.811H306Z" transform="translate(-43.922 -96.556)"/><path class="h" d="M178.389,719.229s7.463-1.157,9.527-3.073,11.1-5.013,11.969-2.455,12.808,11.68,4.358,12.79-19.811,1.077-22.23-.044S178.389,719.229,178.389,719.229Z" transform="translate(-99.922 -193.354)"/><path class="i" d="M204.285,725.439c-8.449,1.111-19.811,1.077-22.23-.044-1.842-.854-2.979-4.591-3.417-6.326l-.249.041s1.2,6.1,3.624,7.219,13.781,1.155,22.23.044c2.439-.321,3.177-1.31,2.976-2.615C206.973,724.591,206.1,725.2,204.285,725.439Z" transform="translate(-99.922 -193.235)"/><path class="j" d="M439.7,708.032c0,30.791-42.124,21.267-93.7,21.267s-93.074,9.524-93.074-21.267,42.118-37.488,93.694-37.488S439.7,677.241,439.7,708.032Z" transform="translate(-252.922 65.665)"/><path class="c" d="M439.7,700.591c0,30.791-42.124,21.267-93.7,21.267s-93.074,9.524-93.074-21.267S295.04,663.1,346.616,663.1,439.7,669.8,439.7,700.591Z" transform="translate(-252.922 65.524)"/></g><g transform="translate(372.035 794.905)"><g transform="translate(50.2)"><path class="k" d="M207.67,648.306s19.25-3.138,30.8,10.729c0,0-8.47,6.8-26.69-2.619Z" transform="translate(-117.42 -53.144)"/><path class="k" d="M205.61,648s-12.28,15.436-6.25,32.6c0,0,10-4.076,11.1-24.881Z" transform="translate(-117.42 -53.144)"/><path class="k" d="M194.58,623.242s7.7-14.387,38.5,5.747c0,0-4.11,9.679-17.71,8.895S198.17,630.823,194.58,623.242Z" transform="translate(-117.42 -53.706)"/><path class="k" d="M192.59,622.13s-16-1.854-17.52,35.4c0,0,10.13,2.15,17.32-9.639S196.61,629.487,192.59,622.13Z" transform="translate(-117.42 -53.633)"/><path class="k" d="M183.29,593.256s9-25.37,41.58-7.326c0,0-7.45,23.281-38.25,15.956Z" transform="translate(-117.42 -54.439)"/><path class="k" d="M173.27,555.961s16.95-25.625,47-1.834c0,0-10.53,24.066-44.41,10.994Z" transform="translate(-117.42 -55.108)"/><path class="k" d="M169.68,520.514s19.77-23.536,49.54,0c0,0-18.74,20.663-49.54,6.011Z" transform="translate(-117.42 -55.749)"/><path class="k" d="M166.6,486.14s20-24.586,48.51-1.314c0,0-22.58,21.712-48.51,7.061Z" transform="translate(-117.42 -56.415)"/><path class="k" d="M168.4,455.707s21-31.647,47.74-10.189c0,0-22.59,27.194-47.74,16.21Z" transform="translate(-117.42 -57.109)"/><path class="k" d="M173.27,420s22.34-31.382,48.26-7.316c0,0-26.44,27.194-48.26,13.072Z" transform="translate(-117.42 -57.76)"/><path class="k" d="M180.72,388.19s26.44-29.487,49.54-17.718c0,0-27.55,31.32-50.65,25.564Z" transform="translate(-117.42 -58.438)"/><path class="k" d="M190,358.081s30.5-36.089,48.21-24.035c0,0-22.47,27.989-50.45,30.862Z" transform="translate(-117.42 -59.12)"/><path class="k" d="M203.3,322.953s26.7-29.487,46.21-22.171c0,0-22.85,30.567-49.8,31.382Z" transform="translate(-117.42 -59.723)"/><path class="k" d="M215.37,290.162s29.52-28.243,42.35-23.271c0,0-21.3,31.382-43.63,29.548Z" transform="translate(-117.42 -60.353)"/><path class="k" d="M227.18,260.02s25.41-33.735,39.27-31.127c0,0-15.4,30.078-39.27,34.52Z" transform="translate(-117.42 -61.062)"/><path class="k" d="M240,219.088s22.46-25.869,34.59-25.808c0,0-17.73,34.54-35.51,34.245Z" transform="translate(-117.42 -61.732)"/><path class="k" d="M247.58,192.419l21.69-53.879s1.09,48.7-24.45,63.874Z" transform="translate(-117.42 -62.765)"/><path class="k" d="M256.39,134.012S260,89.069,257.67,85.36c0,0,15.51,37.4-1.43,68.52Z" transform="translate(-117.42 -63.77)"/><path class="k" d="M182.45,592.423s-22.5-14.2-37.06,20.561c0,0,20,13.541,39.7-11.687Z" transform="translate(-117.42 -54.248)"/><path class="k" d="M172.56,554.361s-27.6-12.818-41,23.434c0,0,21.31,14.906,43.49-14.264Z" transform="translate(-117.42 -54.954)"/><path class="k" d="M168.4,522.634s-19.77-23.536-49.54,0c0,0,18.74,20.653,49.54,6.011Z" transform="translate(-117.42 -55.709)"/><path class="k" d="M165.93,486.14s-20-24.586-48.51-1.314c0,0,22.58,21.712,48.51,7.061Z" transform="translate(-117.42 -56.415)"/><path class="k" d="M168.4,456.705s-14.05-35.447-44.57-20.2c0,0,16.47,31.433,43.33,26.083Z" transform="translate(-117.42 -57.21)"/><path class="k" d="M175,419.971s-13.95-36.058-44.94-19.359c0,0,19,33.053,43.54,24.912Z" transform="translate(-117.42 -57.9)"/><path class="k" d="M183.7,388.8s-5.54-39.533-31.13-43.068c0,0,5.44,41.683,27.71,50.19Z" transform="translate(-117.42 -58.853)"/><path class="k" d="M190.61,358.563s-2.14-47.6-23.37-49.283c0,0,.72,36.15,21,56.039Z" transform="translate(-117.42 -59.541)"/><path class="k" d="M205.5,322.014s-6.33-39.614-26.57-44.454c0,0,2.51,38.361,24.58,54.144Z" transform="translate(-117.42 -60.14)"/><path class="k" d="M217.77,290.877s-.21-41.265-12.59-47.327c0,0-7.67,37.352,9,52.595Z" transform="translate(-117.42 -60.782)"/><path class="k" d="M228.12,259.9s-1.73-42.5-14.55-48.479c0,0-4.38,33.623,12.63,51.26Z" transform="translate(-117.42 -61.389)"/><path class="k" d="M241.78,222.721s-.08-34.54-9.22-42.661c0,0-9.1,37.852,4.44,49.61Z" transform="translate(-117.42 -61.981)"/><path class="k" d="M246.5,190.816l-8.89-57.526s-12.1,47.134,9.32,67.9Z" transform="translate(-117.42 -62.865)"/><path class="k" d="M248.24,134.437S225.4,95.78,225.87,91.45c0,0,2.42,40.521,31.18,60.726Z" transform="translate(-117.42 -63.655)"/><path class="k" d="M250.92,123.54S229.36,68.612,219.6,64.17c0,0,30.8,15.956,33.12,57.8Z" transform="translate(-117.42 -64.17)"/><path class="l" d="M239,229.244l-1.47-.459c18.19-60.45,22.73-99.046,12.78-108.654l1.06-1.141C261.87,129.189,257.59,167.306,239,229.244Z" transform="translate(-117.42 -63.135)"/><path class="l" d="M188.85,368.8l-2.18-.785c1.93-5.543,4-11.208,6.2-16.71,19-48.224,35.16-93.085,45.52-127.534l1.9-.968C229.9,257.31,214,303.893,195,352.178,192.84,357.69,190.77,363.284,188.85,368.8Z" transform="translate(-117.42 -61.174)"/><path class="l" d="M234.76,698.974c-.3-.336-29.79-34.163-50.35-91.934a346.146,346.146,0,0,1-19.88-105.332c-1.41-44.933,7.85-95.144,23.71-140.708l1.72,2.038c-35.6,102.327-21.46,190.012-2.7,242.8,20.35,57.241,49.5,90.681,49.79,91.037Z" transform="translate(-117.42 -58.564)"/><path class="k" d="M261.75,604.423s9.08-1.477,14.53,5.094c0,0-4,3.209-12.59-1.233Z" transform="translate(-117.42 -53.97)"/><path class="k" d="M260.78,604.28s-5.8,7.285-3,15.365c0,0,4.73-1.936,5.24-11.738Z" transform="translate(-117.42 -53.97)"/><path class="k" d="M255.57,592.593s3.63-6.786,18.17,2.72c0,0-1.94,4.565-8.36,4.2S257.27,596.18,255.57,592.593Z" transform="translate(-117.42 -54.235)"/><path class="k" d="M254.63,592.07s-7.54-.876-8.27,16.71c0,0,4.78,1.019,8.18-4.554S256.53,595.544,254.63,592.07Z" transform="translate(-117.42 -54.201)"/><path class="k" d="M250.24,578.431s4.24-11.972,19.62-3.454c0,0-3.51,10.984-18,7.53Z" transform="translate(-117.42 -54.581)"/><path class="k" d="M245.52,560.854s8-12.094,22.16-.866c0,0-5,11.35-21,5.176Z" transform="translate(-117.42 -54.896)"/><path class="k" d="M243.82,544.091s9.33-11.106,23.38,0c0,0-8.84,9.751-23.38,2.843Z" transform="translate(-117.42 -55.2)"/><path class="k" d="M242.37,527.9s9.45-11.605,22.89-.621c0,0-10.66,10.25-22.89,3.332Z" transform="translate(-117.42 -55.513)"/><path class="k" d="M243.22,513.544s9.93-14.937,22.52-4.819c0,0-10.65,12.838-22.52,7.652Z" transform="translate(-117.42 -55.841)"/><path class="k" d="M245.52,496.693s10.53-14.8,22.77-3.454c0,0-12.48,12.838-22.77,6.113Z" transform="translate(-117.42 -56.148)"/><path class="k" d="M249,481.679s12.47-13.918,23.38-8.365c0,0-13,14.784-23.91,12.064Z" transform="translate(-117.42 -56.468)"/><path class="k" d="M253.39,467.472s14.41-17.036,22.77-11.361c0,0-10.61,13.245-23.81,14.57Z" transform="translate(-117.42 -56.79)"/><path class="k" d="M259.68,450.894s12.6-13.918,21.81-10.464c0,0-10.78,14.438-23.5,14.815Z" transform="translate(-117.42 -57.075)"/><path class="k" d="M265.38,435.419s13.93-13.327,20-10.984c0,0-10.06,14.815-20.59,13.949Z" transform="translate(-117.42 -57.371)"/><path class="k" d="M271,421.193s12-15.915,18.53-14.682c0,0-7.26,14.193-18.53,16.3Z" transform="translate(-117.42 -57.706)"/><path class="k" d="M277,401.887s10.6-12.227,16.32-12.227c0,0-8.36,16.3-16.76,16.159Z" transform="translate(-117.42 -58.023)"/><path class="k" d="M280.58,389.291l10.24-25.421s.51,22.986-11.54,30.139Z" transform="translate(-117.42 -58.51)"/><path class="k" d="M284.74,361.735s1.69-21.234.6-22.955c0,0,7.32,17.647-.67,32.329Z" transform="translate(-117.42 -58.984)"/><path class="k" d="M249.85,578.025s-10.62-6.7-17.49,9.7c0,0,9.44,6.388,18.73-5.512Z" transform="translate(-117.42 -54.491)"/><path class="k" d="M245.18,560.1s-13-6.052-19.34,11.065c0,0,10.06,7.03,20.52-6.745Z" transform="translate(-117.42 -54.824)"/><path class="k" d="M243.22,545.091s-9.33-11.106-23.38,0c0,0,8.84,9.751,23.38,2.843Z" transform="translate(-117.42 -55.181)"/><path class="k" d="M242.05,527.9s-9.45-11.605-22.89-.621c0,0,10.66,10.25,22.89,3.332Z" transform="translate(-117.42 -55.513)"/><path class="k" d="M243.22,514.01s-6.63-16.73-21-9.537c0,0,7.77,14.835,20.45,12.308Z" transform="translate(-117.42 -55.889)"/><path class="k" d="M246.35,496.678s-6.58-17.015-21.21-9.17c0,0,9,15.6,20.55,11.758Z" transform="translate(-117.42 -56.214)"/><path class="k" d="M250.43,481.967s-2.61-18.656-14.68-20.327c0,0,2.56,19.664,13.07,23.689Z" transform="translate(-117.42 -56.664)"/><path class="k" d="M253.7,467.7s-1-22.415-11-23.261c0,0,.34,17.066,9.9,26.44Z" transform="translate(-117.42 -56.988)"/><path class="k" d="M260.72,450.449s-3-18.686-12.54-20.979c0,0,1.19,18.106,11.6,25.554Z" transform="translate(-117.42 -57.271)"/><path class="k" d="M266.51,435.764s-.1-19.471-5.94-22.334c0,0-3.62,17.627,4.25,24.82Z" transform="translate(-117.42 -57.574)"/><path class="k" d="M271.4,421.134s-.82-20.052-6.87-22.874c0,0-2.07,15.864,6,24.188Z" transform="translate(-117.42 -57.861)"/><path class="k" d="M277.84,403.593s0-16.3-4.35-20.123c0,0-4.29,17.861,2.1,23.434Z" transform="translate(-117.42 -58.14)"/><path class="k" d="M280.07,388.5l-4.19-27.143s-5.71,22.232,4.39,32.034Z" transform="translate(-117.42 -58.557)"/><path class="k" d="M280.89,361.936s-10.78-18.248-10.56-20.286c0,0,1.15,19.124,14.72,28.661Z" transform="translate(-117.42 -58.93)"/><path class="k" d="M282.16,356.789S272,330.879,267.38,328.78c0,0,14.53,7.53,15.62,27.276Z" transform="translate(-117.42 -59.173)"/><path class="l" d="M276.51,406.674l-.7-.214c8.59-28.529,10.73-46.736,6-51.281l.5-.53C287.32,359.459,285.31,377.422,276.51,406.674Z" transform="translate(-117.42 -58.684)"/><path class="l" d="M252.87,472.527l-1-.367c.91-2.619,1.89-5.268,2.92-7.886,9-22.762,16.59-43.934,21.49-60.186l.89-.459c-4.9,16.3-12.39,38.269-21.37,61.062C254.75,467.29,253.77,469.929,252.87,472.527Z" transform="translate(-117.42 -57.759)"/><path class="l" d="M274.53,628.337c-.14-.163-14.06-16.119-23.76-43.384a163.409,163.409,0,0,1-9.38-49.721c-.67-21.213,3.7-44.9,11.19-66.411l.81,1.019c-16.8,48.285-10.12,89.662-1.27,114.574,9.6,27.011,23.35,42.793,23.49,42.966Z" transform="translate(-117.42 -56.528)"/></g><ellipse class="m" cx="33.61" cy="4.697" rx="33.61" ry="4.697" transform="translate(0 712.659)"/><ellipse class="m" cx="37.95" cy="5.93" rx="37.95" ry="5.93" transform="translate(375.539 675.368)"/><ellipse class="m" cx="37.95" cy="5.93" rx="37.95" ry="5.93" transform="translate(954.482 683.438)"/><ellipse class="m" cx="86.45" cy="9.93" rx="86.45" ry="9.93" transform="translate(1007.002 716.376)"/><ellipse class="m" cx="49.23" cy="10.81" rx="49.23" ry="10.81" transform="translate(239.047 715.645)"/><path class="k" d="M458.77,215.466s20.17,29.059,36.67,10.189a6.166,6.166,0,0,0,3-6.47s-1.45,1.111-3.17-2.038a16.764,16.764,0,0,0-2.23-3.128,7.861,7.861,0,0,0-4.39-2.466h0s-9.29-5.207-24.18,1.966c0,0-4.49,0-5.12.652l5.64,3.057s2.06-4.31,5.8-5.3c0,0-5.83,5.013-5,5.8.17.153,3.06,1.488,3.06,1.488s3.61-7.458,9.44-8.813c0,0-7.73,5.023-8.34,9.333l4.47,1.752s3.43-8.08,10-9.873c0,0-7.9,5.533-9,10.189l4.63,1.121s3.5-7.815,9-9.272c0,0-8.49,7.336-7.9,9.455,0,0,4.31.764,5.55.4,0,0,2.64-5.543,5.9-6.113,0,0-5.17,5.512-4.68,6.185,0,0,5.87-.53,8.71-2.4a17.645,17.645,0,0,1-8.59,3.332,9.764,9.764,0,0,0,5.16,2.333s-3,1.8-6.58-2.221c0,0-4.6.224-5.23-.2,0,0,3,4.473,6.07,6.113,0,0-4.32-.153-7.31-6.368l-4.68-1.019s3.61,6.113,6.27,7.8c0,0-4.38-.846-7.43-8.151l-4.41-1.671s2.72,5.522,5.28,8.039c0,0-3.89-1.681-6.52-8.569l-2.85-1.416s2.05,3.994,2.75,5.094.45,1.376.45,1.376a15.4,15.4,0,0,1-4.39-7.061S459,215.1,458.77,215.466Z" transform="translate(-261.628 -119.498)"/><path class="k" d="M427,244.617s-33.9-8.752-34.46,16.445c0,0-1.62,4.167,1.86,6.877,0,0,.4-1.793,3.74-.509a15.755,15.755,0,0,0,3.68.917,7.818,7.818,0,0,0,4.91-1.019h0s10.39-2.17,17.15-17.474c0,0,3.43-2.955,3.49-3.882l-6.25,1.386s1.17,4.636-1,7.866c0,0,1.24-7.662.1-7.7-.23,0-3.28.886-3.28.886s2,8.07-1.57,12.95c0,0,2.69-8.936.41-12.624l-4.53,1.63s2.53,8.416-1.33,14.132c0,0,2.49-9.435.37-13.7L406,252.982s2.31,8.263-.94,12.991c0,0,1.8-11.208,0-12.41,0,0-3.77,2.262-4.48,3.362,0,0,1.52,5.961-.61,8.538,0,0,.43-7.611-.36-7.794,0,0-4.14,4.289-5.11,7.591a18.268,18.268,0,0,1,4.42-8.212,9.669,9.669,0,0,0-5.41,1.63s1.15-3.373,6.42-2.659c0,0,3.36-3.21,4.11-3.3,0,0-5.1-1.457-8.51-.652,0,0,3.38-2.731,9.62,0l4.2-2.323s-6.64-2.282-9.74-1.793c0,0,3.88-2.252,10.85,1.3l4.42-1.64s-5.58-2.415-9.13-2.629c0,0,4-1.3,10.41,2.2l3.08-.744s-4.1-1.681-5.33-2.038-1.22-.744-1.22-.744a14.8,14.8,0,0,1,7.84,2.466S427,245.035,427,244.617Z" transform="translate(-271.22 -118.866)"/><path class="k" d="M350.36,129.652s-16.22,31.524,7.75,37.913c0,0,3.61,2.568,7-.255,0,0-1.63-.815.38-3.821a16.789,16.789,0,0,0,1.72-3.444,8.172,8.172,0,0,0,.15-5.094h0s.33-10.8-12.72-21.04c0,0-2-4.076-2.9-4.351l-.12,6.521s4.7-.1,7.27,2.843c0,0-7-3.057-7.33-1.875-.06.224.09,3.454.09,3.454s8.16-.122,12,4.544c0,0-7.9-4.728-11.95-3.322l.51,4.86s8.62-.56,13.18,4.6c0,0-8.43-4.656-13-3.536l1.13,4.707s8.42-.377,12.19,3.933c0,0-10.27-4.371-11.86-2.863,0,0,1.3,4.259,2.18,5.217,0,0,6.05-.132,8,2.578,0,0-7.17-2.18-7.54-1.437,0,0,3.14,5.094,6.07,6.806a17.932,17.932,0,0,1-6.82-6.276,10.278,10.278,0,0,0,.31,5.747s-3-1.926-1.06-6.99c0,0-2.29-4.076-2.2-4.83,0,0-2.57,4.717-2.58,8.284,0,0-1.84-3.984,2.24-9.527l-1.24-4.707s-3.72,6.062-4,9.241c0,0-1.25-4.361,3.75-10.454l-.54-4.758s-3.6,4.972-4.62,8.447c0,0-.31-4.3,4.51-9.822v-3.22s-2.56,3.678-3.2,4.809-1,1.019-1,1.019a15.346,15.346,0,0,1,4.17-7.2S350.75,129.713,350.36,129.652Z" transform="translate(-271.22 -121.012)"/><path class="n" d="M315.85,462.3l-3.24,6.062s19.46,5.787,26.49,3.851,29.74-17.627,29.74-17.627Z" transform="translate(-22.898 -56.797)"/><g transform="translate(151.639 470.247)"><path class="o" d="M994.706,639c-1.4,7.388-9.823,32-9.823,32s-12.632,36.891-16.139,37.551-168.369-3.122-175.416,0-47.012.068-47.012.068-24.557,1.784-36.5,4.848-76.48,7.989-79.644,7.989-31.625-9.841-36.692-8.61-35.231-3.073-42.244-1.231-35.8-9.831-40-7.989-23.86,3.073-29.468,5.536-148.049-3.694-150.859-3.074c-.454.1-2.212.369-4.712.766-13.274,2.036-49.313,7.223-49.313,7.223l-22.455-6.787s-19.645-1.222-25.962-.611S193.4,683.335,193.4,683.335s-2.81-11.693,0-14.766,0-18.421,0-18.421a60.409,60.409,0,0,1,7.743-29.523c8.418-14.757,13.329-36.281,13.329-36.281s6.272-27.138,14.015-33.285,35.784-6.157,49.114-4.3l1.161.145c17.7,2.2,125.395,12.139,135.66,11.538,10.531-.621,49.114,1.231,54.733-.621s134.023,3.694,134.023,3.694,21.747-6.787,27.013-8,22.8-33.818,28.417-37.512c1.781-1.173,3.318-2.346,4.856-3.578a65.332,65.332,0,0,1,14.081-8.726c10.531-4.916,37.9,15.377,33.683,23.987-3.783,7.756-6.438,8.028-8.971,8.9a8.928,8.928,0,0,0-.852.33c-2.81,1.231-13.274,17.83-13.274,17.83s138.271-3.073,153.668-4.3,61.746,0,66.657-3.073,53.317,5.536,53.317,5.536l25.265,46.742S996.166,631.619,994.706,639Z" transform="translate(-192.151 -502.939)"/><path class="k" d="M317.776,708.15c-12.438,2.036-46.208,7.223-46.208,7.223l-21.041-6.787s-18.409-1.222-24.327-.611-32.878-23.3-32.878-23.3-2.633-11.693,0-14.766,0-18.421,0-18.421a63.6,63.6,0,0,1,7.256-29.523c7.888-14.757,12.49-36.281,12.49-36.281s5.877-27.138,13.133-33.285,33.531-6.157,46.021-4.3l1.088.145c26.483,38.22,69.872,103.945,71.229,126.546C345.4,689.234,332.463,700.3,317.776,708.15Z" transform="translate(-192.151 -504.281)"/><path class="p" d="M427.177,651.73s-8.541,2.259-21.041.417-28.266,3.074-28.266,3.074" transform="translate(-171.527 -507.469)"/><path class="p" d="M456.52,655.33s9.868,2.453,36.164,3.073,29.592-1.842,41.461,0,24.451,3.073,24.451,3.073" transform="translate(-161.193 -507.579)"/><path class="p" d="M381.67,666.654s36.164-6.147,51.95,0,46.643-1.842,51.276,0,28.276,2.278,35.511,2.375,11.827,1.745,21.041,0,46.021.8,46.021.8" transform="translate(-167.059 -507.841)"/><path class="p" d="M535.18,615.544s19.072-4.683,33.531,0,43.4.97,58.522,3.452,59.164,10.452,63.777,5.536" transform="translate(-149.49 -506.304)"/><path class="p" d="M620.18,636.984s13.153-3.083,25.643,0,35.5,6.147,42.083,4.3a228.323,228.323,0,0,1,25.633-5.672c10.521-1.716,38.8-11.489,49.317-9.366s23.011-4.3,34.205-6.322,16.439-2.288,30.246,0,21.041,8.5,23.011,6.322" transform="translate(-125.979 -506.452)"/><path class="p" d="M780.66,597.567c1.98-1.231,11.184,5.536,30.246,6.157s36.817-6.3,36.817-6.3-1.969-2,9.868,0,57.858,5.071,57.858,5.071" transform="translate(-120.119 -505.788)"/><path class="p" d="M866.619,579.077s-23.664-6.157-33.531,0-20.378.611-23.664,0-32.225-.553-40.766-2.734-33.531,2.8-33.531,2.8-31.562-1.716-42.694-.271-36.827,6.564-38.8,3.073-23.011-9.443-30.246-6.157" transform="translate(-125.862 -505.128)"/><path class="p" d="M610.35,586.777s18.077-3.073,24,0,26.949,0,26.949,0,17.092,3.073,19.694,4.3" transform="translate(-144.734 -505.45)"/><path class="p" d="M790.18,570.286s7.888-2.463,24.98,0a99.676,99.676,0,0,0,32.547-1.1s17.424-1.474,25.975,1.939,25.395-1.134,25.395-1.134" transform="translate(-119.771 -504.946)"/><path class="p" d="M313.17,608.142s5.255-3.694,24.327,0,28.266-1.638,28.266-1.638-7.888-.417,9.2,0,26.307-6.244,26.307-6.244" transform="translate(-178.185 -505.902)"/><path class="p" d="M296,596.448s-.653-6.574,17.755,0,28.929,3.607,28.929,3.607a62.067,62.067,0,0,1,23.664-2.909c13.153.97,30.909,0,30.909,0" transform="translate(-188.359 -505.697)"/><path class="p" d="M284,579.059s3.939-4.392,21.694,0,23.674,0,23.674,0,17.745.223,28.929,4.15" transform="translate(-188.797 -505.197)"/><path class="p" d="M306.19,572.536s5.255-.31,17.756,0,25.643,0,25.643,0" transform="translate(-179.558 -505.054)"/><path class="p" d="M259.711,648.977s-9.857-7.582-3.286-11.887,15.724.514,15.724,3.015v15.435s-28.929,9.841-28.929,3.073,8.551-38.4,11.837-40.421,11.174-21.5,13.806-14.543,17.8,48.817,17.8,48.817A24.727,24.727,0,0,1,273.5,666.691c-10.521,4.848-48.654,5.265-47.991-2.909s11.174-49.8,11.174-49.8,17.756-44.948,27.613-34.283,14.511,29.31,22.358,36.9,24.98,36.688,17.756,50.126S245.2,693.053,245.2,693.053s-41.461-9.221-32.878-40.585,13.806-84.264,26.3-87.337,24.99-6.787,35.511,0,31.552,48.158,35.5,51.444,25.643,34.109,21.694,44.231-26.3,39.626-38.133,43.93-39.45-4.3-39.45-4.3" transform="translate(-191.457 -504.716)"/><path class="p" d="M722.94,654.936s24.98-.621,30.9,0,17.755-14.262,24.327-12.362,9.2,12.556,21.041,10.617,42.082-4.508,42.082-4.508,16.439,1.125,27.613,0,19.694-.107,25.643,0,23.011,0,23.011,0l5.183,2.763" transform="translate(-122.227 -507.185)"/><path class="p" d="M740.7,635.609a187.014,187.014,0,0,1,24.99,0c11.174.97,47.338-6.04,63.113-5.284s23.674-4.722,30.9-3.878,12.5,4.537,23.674,4.557,38.745-4.557,38.745-4.557" transform="translate(-121.578 -506.697)"/><path class="p" d="M418.47,688.758s46.021,5.526,61.154,0,23.011-7.388,33.531-5.536,7.256-5.08,26.3-.7,52.6,6.515,61.154,3.607,68.41,9.385,68.41,9.385" transform="translate(-160.251 -508.362)"/><path class="p" d="M490.14,701s19.072,1.842,31.562,3.073,69.7,5.536,81.532,0,85.471-.155,85.471-.155,16.439,1.066,26.3,0,34.848-2.909,34.848-2.909" transform="translate(-149.57 -508.969)"/><path class="k" d="M662.987,527.683c-3.545,7.756-6.033,8.028-8.406,8.9-11.878-5.032-27.136-16.647-36.351-24.161a60.728,60.728,0,0,1,13.195-8.726C641.292,498.781,666.936,519.073,662.987,527.683Z" transform="translate(-145.021 -502.939)"/><path class="k" d="M348,713.979V689.992l9.163,11.993s12.49-73.443,15.776-70.079,0,63.021,0,63.021L380.826,690l3.949,10.752S407.133,668.7,409.1,672.9s-4.6,27.855-4.6,27.855l32.878-62.633s-11.184,53.732-7.256,56.806,19.062-9.23,21.694-4.925-24.327,26.924-24.327,26.924Z" transform="translate(-173.864 -506.862)"/><path class="k" d="M752.12,712.261l9.857-23.987s7.9,10.432,9.868,10.752,12.49-5.817,12.49-5.817V666.12L800.774,696.1l7.888-2.909,3.286-12.158,3.949,7.233s29.582-69.536,46.021-62.749l-23.664,59.676,23.664-16.56S851.4,695.924,849.1,696.089s20.73-2.909,20.73-2.909l-7.909,19.081Z" transform="translate(-121.161 -506.657)"/><path class="p" d="M630.6,516.205s7.857,12.148,15.434,11.635,11.64-6.079,9.2-9.618-18.657-10.132-18.657-10.132" transform="translate(-144.539 -503.096)"/><path class="p" d="M636.09,515.15s3.949,8.61,6.986,5.061S636.09,515.15,636.09,515.15Z" transform="translate(-144.707 -503.311)"/><path class="j" d="M844.25,697.13c6.478-2.114,44.384-2.909,50.623-3.044-3.68-3.752-6.4-6.787-6.4-6.787s-30.878-.582-39.792,4.072C846.634,692.428,845.214,694.532,844.25,697.13Z" transform="translate(-117.797 -508.551)"/><path class="j" d="M870.129,550.9s-13.06,4.072-16.584,9.889S870.129,550.9,870.129,550.9Z" transform="translate(-117.473 -504.399)"/><path class="j" d="M863.723,537.7c-.415.582-17.89,16.977-16.792,20.942S863.723,537.7,863.723,537.7Z" transform="translate(-117.701 -503.997)"/><path class="j" d="M771.288,549.7s-19.486,8.59-21.145,12.342S771.288,549.7,771.288,549.7Z" transform="translate(-131.793 -504.363)"/><path class="j" d="M770.05,561.1s-17.621,6.981-19.984,8.726S770.05,561.1,770.05,561.1Z" transform="translate(-131.869 -504.71)"/><path class="j" d="M761.991,576.466s-7.784,5.42-12.086,1.164S761.991,576.466,761.991,576.466Z" transform="translate(-132.342 -505.145)"/><path class="n" d="M491.3,579.21" transform="translate(-160.392 -505.261)"/></g><path class="n" d="M305.92,471.08s3.45,10.749,11.15,12.807Z" transform="translate(-23.865 -56.485)"/><path class="n" d="M318.08,473.31s-.81,8.263,4.87,10.331S318.08,473.31,318.08,473.31Z" transform="translate(-23.325 -56.443)"/><path class="k" d="M35.112,1.544S.7-7.393.346,17.478a6.01,6.01,0,0,0,1.943,6.806s.39-1.767,3.784-.47a16.5,16.5,0,0,0,3.736.938,8.013,8.013,0,0,0,4.965-.963h0S25.28,21.737,32,6.687c0,0,3.449-2.887,3.5-3.8L29.179,4.2s1.225,4.587-.945,7.757c0,0,1.19-7.554.035-7.6-.233,0-3.315.846-3.315.846s2.1,7.984-1.479,12.771c0,0,2.648-8.8.307-12.46L19.207,7.08s2.635,8.331-1.226,13.94c0,0,2.441-9.293.257-13.526L13.911,9.619s2.411,8.178-.841,12.817c0,0,1.727-11.049-.107-12.252,0,0-3.8,2.2-4.509,3.28,0,0,1.591,5.9-.545,8.424,0,0,.37-7.51-.432-7.7,0,0-4.157,4.2-5.111,7.449a17.519,17.519,0,0,1,4.407-8.069,9.844,9.844,0,0,0-5.466,1.562s1.136-3.319,6.481-2.569c0,0,3.376-3.139,4.135-3.223,0,0-5.179-1.483-8.626-.718,0,0,3.4-2.666,9.745.084l4.235-2.257S10.531,4.138,7.395,4.594c0,0,3.911-2.189,11,1.383L22.86,4.4S17.187,1.963,13.589,1.72c0,0,4.041-1.253,10.564,2.264l3.114-.707S23.1,1.581,21.85,1.218,20.608.473,20.608.473a15.491,15.491,0,0,1,7.963,2.5S35.116,1.957,35.112,1.544Z" transform="translate(250.663 280.831) rotate(-124)"/><path class="k" d="M1064.5,746.181s-41.37-2.537-36.49,26.99c0,0-1,5.227,3.67,7.591,0,0,.08-2.191,4.24-1.447a18.774,18.774,0,0,0,4.5.224,9.23,9.23,0,0,0,5.49-2.313h0s11.63-4.891,16.15-24.26c0,0,3.35-4.218,3.22-5.308l-7,3.057s2.38,5.094.51,9.394c0,0-.23-9.17-1.57-8.987-.27,0-3.63,1.773-3.63,1.773s4.1,8.946,1,15.436c0,0,1.17-11.014-2.29-14.784l-4.92,2.924s4.8,9.231,1.55,16.761c0,0,.83-11.554-2.58-16.047l-4.45,3.536s4.5,9.1,1.76,15.344c0,0-.36-13.449-2.73-14.468,0,0-3.89,3.5-4.49,4.942,0,0,3.09,6.6,1.18,10.087,0,0-1.18-8.956-2.14-9,0,0-3.88,5.94-4.29,10.005,0,0,.17-6.052,3.35-10.576a11.616,11.616,0,0,0-6,3.138s.61-4.2,6.91-4.565c0,0,3.2-4.5,4.06-4.779,0,0-6.26-.54-10.06,1.182,0,0,3.34-3.964,11.21-2.16l4.4-3.658s-8.25-1.151-11.75.122c0,0,4-3.5,12.93-.958l4.79-2.914s-7-1.539-11.22-1.019c0,0,4.42-2.425,12.62.2l3.42-1.559s-5.15-1.019-6.66-1.192-1.59-.591-1.59-.591a17.525,17.525,0,0,1,9.68,1.1S1064.62,746.65,1064.5,746.181Z" transform="translate(-546.678 -79.82)"/><ellipse class="m" cx="29.28" cy="5.043" rx="29.28" ry="5.043" transform="translate(460.052 698.477)"/></g><g transform="translate(1257.49 1245.345) rotate(8)"><g transform="translate(0 0)"><path class="c" d="M16.674,46.55C-5.42,81.126.771,125.192.771,125.192s42.011-11.993,64.1-46.57S80.778-.02,80.778-.02,38.767,11.973,16.674,46.55Z" transform="translate(93.518 23.383)"/><path class="k" d="M94.178,115.5s-.54-.089-1.535-.3c-.793-.166-1.885-.4-3.219-.728C77.5,111.586,45.8,101.836,25.028,76.363-.973,44.466,0,0,0,0S39.653,6.66,65.841,35.311q1.7,1.847,3.313,3.828c22.624,27.753,24.822,65.022,25.012,74.234C94.193,114.753,94.178,115.5,94.178,115.5Z" transform="translate(-0.008 32.67)"/><path class="j" d="M28.777,78.062c-.584.718-1.1,1.331-1.523,1.833-.939,1.091-1.472,1.663-1.472,1.663s-.651-.832-1.747-2.391C18.022,70.647-1.329,40.358.07,5.432Q.184,2.687.452,0q1.7,1.847,3.313,3.828C26.389,31.581,28.587,68.849,28.777,78.062Z" transform="translate(65.381 67.981)"/><path class="k" d="M57.451,76.117c-1.648,41.3-31.683,73.45-31.683,73.45S-1.6,114.746.052,73.442,31.735-.008,31.735-.008,59.1,34.813,57.451,76.117Z" transform="translate(69.418 -0.017)"/></g><line class="e" y1="146.719" x2="6.246" transform="translate(95.183 1.66)"/><path class="e" d="M65.065,46.9c22.27,34.692,16.3,78.726,16.3,78.726S39.3,113.418,17.027,78.726.722,0,.722,0,42.8,12.212,65.065,46.9Z" transform="translate(12.918 22.945)"/></g><g transform="translate(1296.474 1389.309)"><path class="j" d="M890.2,741.79c-3.678,34.681-26.873,23.058-54.939,23.058-29.65,0-53.86,12.972-55.37-29.369,27.8.854,53.464,2.075,76.128,3.589q2.577.172,5.1.337a.038.038,0,0,0,.035.014C871.538,740.154,881.252,740.943,890.2,741.79Z" transform="translate(-779.781 -673.379)"/><path class="c" d="M779.734,657.341c0-33.108,24.881-59.947,55.574-59.947s55.574,26.839,55.574,59.947S866,680.82,835.308,680.82,779.734,690.448,779.734,657.341Z" transform="translate(-779.734 -597.393)"/></g><g transform="translate(1346.474 1220.83)"><rect class="g" width="1.304" height="12.293" transform="translate(176.861 83.998)"/><rect class="g" width="91.306" height="1.329" transform="translate(75.12 106.923)"/><rect class="g" width="1.304" height="12.293" transform="translate(99.903 94.962)"/><rect class="g" width="1.304" height="12.293" transform="translate(139.686 94.962)"/><rect class="g" width="1.304" height="12.293" transform="translate(69.25 41.47)"/><path class="c" d="M147.017,693.889h-7.174v61.8s46.305,15.284,91.306,0v-61.8Z" transform="translate(-72.711 -519.79)"/><ellipse class="c" cx="45.001" cy="6.977" rx="45.001" ry="6.977" transform="translate(67.132 167.454)"/><ellipse class="j" cx="45.001" cy="6.977" rx="45.001" ry="6.977" transform="translate(67.132 167.454)"/><path class="c" d="M255.564,539.557c-11.352,42.757-50.236,69.238-50.236,69.238s-20.478-42.842-9.126-85.6,50.236-69.238,50.236-69.238S266.916,496.8,255.564,539.557Z" transform="translate(-91.121 -439.293)"/><path class="k" d="M128.872,539.557c11.352,42.757,50.236,69.238,50.236,69.238s20.478-42.842,9.126-85.6S138,453.957,138,453.957,117.52,496.8,128.872,539.557Z" transform="translate(-67.703 -439.293)"/><path class="c" d="M114.76,552.036c31.151,30.9,34.955,78.392,34.955,78.392s-46.7-2.6-77.851-33.495-34.955-78.392-34.955-78.392S83.609,521.139,114.76,552.036Z" transform="translate(-36.909 -460.961)"/><path class="c" d="M244.831,552.036c-31.151,30.9-34.955,78.392-34.955,78.392s46.7-2.6,77.851-33.495,34.955-78.392,34.955-78.392S275.982,521.139,244.831,552.036Z" transform="translate(-97.069 -460.961)"/><ellipse class="k" cx="14.348" cy="14.619" rx="14.348" ry="14.619" transform="translate(98.437 0)"/></g><g transform="translate(0 421.116)"><path class="c" d="M229.347,397.286c-4.21,0-8.463-.068-12.637-.2L216.8,394c5.994.19,12.111.243,18.133.159l.041,3.092Q232.167,397.285,229.347,397.286Z" transform="translate(-74.587 209.281)"/><path class="c" d="M235.631,397.566l-.178-3.086c6-.361,12.083-.868,18.071-1.507l.317,3.074C247.807,396.692,241.681,397.2,235.631,397.566Z" transform="translate(-56.98 208.283)"/><path class="c" d="M216.11,397.48c-6.053-.473-12.17-1.092-18.182-1.844l.37-3.068c5.966.744,12.036,1.36,18.043,1.828Z" transform="translate(-92.231 207.888)"/><path class="c" d="M254.5,396.415l-.455-3.056c5.964-.923,11.975-1.993,17.859-3.184l.591,3.032C266.564,394.407,260.509,395.487,254.5,396.415Z" transform="translate(-39.516 205.552)"/><path class="c" d="M197.3,396c-5.98-1.033-12.016-2.219-17.941-3.53l.644-3.023c5.879,1.3,11.869,2.479,17.8,3.5Z" transform="translate(-109.677 204.839)"/><path class="c" d="M273.107,393.537l-.729-3c5.855-1.475,11.742-3.106,17.5-4.845l.862,2.965C284.938,390.409,279.006,392.051,273.107,393.537Z" transform="translate(-22.293 201.174)"/><path class="c" d="M178.7,392.788c-5.866-1.59-11.769-3.338-17.545-5.2l.914-2.947c5.733,1.846,11.59,3.581,17.41,5.158Z" transform="translate(-126.778 200.151)"/><path class="c" d="M291.3,388.941l-1-2.92c5.681-2.013,11.4-4.188,16.986-6.468l1.126,2.872C302.78,384.721,297.021,386.913,291.3,388.941Z" transform="translate(-5.457 195.184)"/><path class="c" d="M160.465,387.866c-5.7-2.133-11.429-4.436-17.037-6.843l1.178-2.85c5.564,2.389,11.252,4.673,16.906,6.791Z" transform="translate(-143.428 193.837)"/><path class="c" d="M308.892,382.661l-1.257-2.814c5.456-2.526,10.94-5.222,16.3-8.014l1.381,2.754C319.916,377.4,314.39,380.116,308.892,382.661Z" transform="translate(10.828 187.649)"/><path class="c" d="M325.754,374.776l-1.5-2.685c5.232-3.042,10.456-6.24,15.522-9.506l1.621,2.612C336.29,368.489,331.028,371.712,325.754,374.776Z" transform="translate(26.437 178.624)"/><path class="c" d="M341.769,365.338l-1.737-2.534c4.927-3.507,9.844-7.181,14.614-10.916l1.849,2.452C351.69,358.1,346.734,361.8,341.769,365.338Z" transform="translate(41.261 168.183)"/><path class="c" d="M356.8,354.431l-1.956-2.364c4.592-3.948,9.162-8.063,13.585-12.23l2.06,2.271C366.034,346.307,361.429,350.453,356.8,354.431Z" transform="translate(55.176 156.421)"/><path class="c" d="M370.728,342.146l-2.16-2.171c4.234-4.371,8.421-8.894,12.444-13.443l2.255,2.069C379.213,333.185,374.994,337.741,370.728,342.146Z" transform="translate(68.067 143.434)"/><path class="c" d="M383.429,328.589l-2.344-1.963c3.825-4.742,7.59-9.636,11.2-14.547l2.43,1.851C391.078,318.879,387.283,323.812,383.429,328.589Z" transform="translate(79.826 129.329)"/><path class="c" d="M394.8,313.869l-2.51-1.736c3.385-5.078,6.7-10.3,9.851-15.535l2.587,1.619C401.549,303.488,398.209,308.754,394.8,313.869Z" transform="translate(90.35 114.219)"/><path class="c" d="M404.739,298.106l-2.656-1.495c2.913-5.372,5.744-10.889,8.415-16.4l2.721,1.371C410.529,287.134,407.675,292.693,404.739,298.106Z" transform="translate(99.552 98.226)"/><path class="c" d="M413.156,281.424l-2.78-1.241c2.418-5.627,4.74-11.39,6.9-17.127l2.833,1.108C417.934,269.946,415.593,275.753,413.156,281.424Z" transform="translate(107.342 81.48)"/><path class="c" d="M419.972,263.928l-2.881-.972c1.894-5.814,3.681-11.757,5.311-17.665l2.922.836C423.681,252.08,421.879,258.07,419.972,263.928Z" transform="translate(113.65 64.142)"/><path class="c" d="M425.109,245.867l-2.956-.7c1.359-5.959,2.6-12.045,3.693-18.086l2.984.559C427.73,233.728,426.478,239.86,425.109,245.867Z" transform="translate(118.404 46.368)"/><path class="c" d="M428.544,227.336l-3.008-.42c.816-6.056,1.506-12.231,2.049-18.355l3.023.278C430.06,215.011,429.365,221.233,428.544,227.336Z" transform="translate(121.583 28.293)"/><path class="c" d="M430.257,208.495l-3.032-.139c.27-6.127.407-12.341.407-18.47h3.035C430.667,196.061,430.53,202.323,430.257,208.495Z" transform="translate(123.17 10.066)"/><path class="c" d="M427.549,175.119c-.606-6.1-1.44-9.068-2.32-15.138l3-.451c.886,6.116,1.646,10.784,2.258,16.926Z" transform="translate(121.294 -19.562)"/><path class="c" d="M425.53,159.82c-1.157-6.032-2.463-12.1-3.882-18.046l2.949-.731c1.43,5.988,2.746,12.107,3.912,18.184Z" transform="translate(117.93 -37.606)"/><path class="c" d="M421.889,141.574c-1.692-5.888-3.542-11.81-5.5-17.6l2.869-1.006c1.971,5.839,3.835,11.808,5.541,17.74Z" transform="translate(112.994 -55.252)"/><path class="c" d="M416.564,123.715c-2.214-5.691-4.585-11.4-7.048-16.975l2.768-1.27c2.482,5.617,4.871,11.371,7.1,17.1Z" transform="translate(106.534 -72.326)"/><path class="c" d="M409.635,106.477c-2.716-5.459-5.594-10.929-8.553-16.256l2.641-1.524c2.983,5.369,5.881,10.881,8.618,16.382Z" transform="translate(98.611 -88.697)"/><path class="q" d="M657.624,275.741c-.175.49-2.229,4.454-17.923,20.71A213.745,213.745,0,0,0,657.624,275.741Z" transform="translate(322.768 93.862)"/></g><g transform="translate(1475.647 925.244)"><path class="k" d="M886.438,518.037c-16,49.815-63.545,78.67-63.545,78.67s-21.612-51.911-5.616-101.726,63.545-78.67,63.545-78.67S902.435,468.223,886.438,518.037Z" transform="translate(-648.605 -350.482)"/><path class="c" d="M841.22,649.145c-34.621,38.766-35.776,95.143-35.776,95.143s54.977-6.477,89.6-45.243S930.818,603.9,930.818,603.9,875.841,610.379,841.22,649.145Z" transform="translate(-654.182 -167.39)"/><path class="c" d="M823.222,549.63c40.508,32.306,50.92,87.688,50.92,87.688s-55.265,3-95.773-29.3-50.92-87.688-50.92-87.688S782.714,517.324,823.222,549.63Z" transform="translate(-727.449 -249.033)"/><path class="c" d="M851.059,943.879h-5.275A438.3,438.3,0,0,1,811.592,841.7c-.562-2.747-1.105-5.493-1.609-8.28-.175-.869-.33-1.759-.485-2.648a526.744,526.744,0,0,1-7.583-68.686c-3.51-74.634,7.2-157.469,32.291-250.994.1-.375.194-.751.31-1.126.543-2.055,1.105-4.11,1.668-6.185l4.557,1.3c-.058.2-.1.375-.155.573-.465,1.7-.931,3.379-1.377,5.059-25.309,93.821-36.092,176.755-32.562,251.369a528.225,528.225,0,0,0,5.585,56.257q.9,5.809,1.92,11.56.989,5.484,2.095,10.947a432.46,432.46,0,0,0,34.812,103.03Z" transform="translate(-658.107 -265.111)"/><ellipse class="r" cx="44.895" cy="45.743" rx="44.895" ry="45.743" transform="translate(259.7)"/><path class="c" d="M862.5,478.907c-38.677,34.558-46.041,90.445-46.041,90.445s55.343-.143,94.019-34.7,46.041-90.445,46.041-90.445S901.181,444.349,862.5,478.907Z" transform="translate(-643.829 -323.256)"/></g><g transform="translate(140.172 795.156)"><path class="c" d="M430.234,607.327c41.369,48.534,41.213,117.692,41.213,117.692s-67.228-9.533-108.6-58.067-41.213-117.692-41.213-117.692S388.866,558.792,430.234,607.327Z" transform="translate(-243.191 -13.219)"/><path class="k" d="M353.025,444.467c18.225,61.542,75.72,98.3,75.72,98.3s27.947-63.023,9.722-124.565-75.72-98.3-75.72-98.3S334.8,382.925,353.025,444.467Z" transform="translate(-219.503 -237.076)"/><path class="c" d="M417.689,398.194c46.459,43.492,53.93,112.229,53.93,112.229s-67.853-1.777-114.312-45.269-53.93-112.229-53.93-112.229S371.23,354.7,417.689,398.194Z" transform="translate(-260.345 -204.845)"/><path class="c" d="M469.363,484.072c-50.569,38.439-64.879,106.042-64.879,106.042s67.677,5.281,118.246-33.158,64.879-106.042,64.879-106.042S519.931,445.634,469.363,484.072Z" transform="translate(-165.366 -109.445)"/><path class="c" d="M541.865,738.267s-.446.593-1.338,1.66H363.48a159.414,159.414,0,0,1,57.833-24.7C483.315,703.291,541.865,738.267,541.865,738.267Z" transform="translate(-203.884 146.345)"/><path class="c" d="M439.824,829.645c-.213,1.087-.446,2.174-.679,3.26-.213,1.067-.446,2.134-.679,3.2q-.727,3.438-1.513,6.876A522.56,522.56,0,0,1,362.481,1017.9H355.46c34.735-50.823,60.9-110.8,75.811-176.083.427-1.9.853-3.794,1.261-5.711.562-2.549,1.086-5.1,1.61-7.647q1.425-7,2.676-14.069c19.316-108.424,11.268-232.321-24.494-378.032-.5-2.055-1.028-4.13-1.532-6.2-.078-.257-.136-.494-.194-.751l5.624-1.462c.64,2.549,1.28,5.1,1.881,7.647l.349,1.363C455.552,588.986,462.534,717.526,439.824,829.645Z" transform="translate(-211.418 -131.629)"/><ellipse class="r" cx="55.061" cy="56.101" rx="55.061" ry="56.101" transform="translate(0 0)"/></g><rect class="c" width="0.911" height="62.753" transform="translate(698.438 1255.362)"/><ellipse class="c" cx="8.71" cy="8.874" rx="8.71" ry="8.874" transform="translate(690.184 1246.488)"/><path class="c" d="M126.154,693.538s-1.244-27.266-26.751-24.1" transform="translate(572.74 600.5)"/><ellipse class="k" cx="10" cy="10.481" rx="10" ry="10.481" transform="translate(472.473 1277.417)"/><g transform="translate(1354.748 752.338)"><path class="m" d="M1024.545,238.885a21.374,21.374,0,0,0-12.618,1.4,18.278,18.278,0,0,1-15.154,0,20.906,20.906,0,0,0-17.817.353,10.853,10.853,0,0,1-5.131,1.311c-7.223,0-13.235-7.413-14.484-17.2a14.146,14.146,0,0,0,3.612-3.971c4.236-6.953,10.8-11.415,18.163-11.415s13.844,4.408,18.058,11.292a13.883,13.883,0,0,0,12.039,6.716h.188C1017.1,227.34,1022.084,232.039,1024.545,238.885Z" transform="translate(-959.302 -182.017)"/><path class="m" d="M1046.5,199.855l-11.677,7.551,7.088-13.14a11.454,11.454,0,0,0-7.065-2.568h-.188a14.152,14.152,0,0,1-2.423-.184l-3.958,2.553,1.7-3.143a14.087,14.087,0,0,1-6.922-5.366l-7.088,4.6,4.515-8.287c-4.146-5.067-9.729-8.18-15.869-8.18-7.366,0-13.927,4.469-18.163,11.423a13.482,13.482,0,0,1-12.039,6.593h-.4c-8.134,0-14.725,9.4-14.725,20.983s6.591,20.983,14.725,20.983a10.912,10.912,0,0,0,5.132-1.3,20.877,20.877,0,0,1,17.817-.36,18.278,18.278,0,0,0,15.154.038,20.927,20.927,0,0,1,17.667.345,10.86,10.86,0,0,0,5.071,1.28c8.134,0,14.725-9.391,14.725-20.983A27.055,27.055,0,0,0,1046.5,199.855Z" transform="translate(-959.29 -173.69)"/></g><g transform="translate(424.748 985.663)"><path class="m" d="M1024.545,238.885a21.374,21.374,0,0,0-12.618,1.4,18.278,18.278,0,0,1-15.154,0,20.906,20.906,0,0,0-17.817.353,10.853,10.853,0,0,1-5.131,1.311c-7.223,0-13.235-7.413-14.484-17.2a14.146,14.146,0,0,0,3.612-3.971c4.236-6.953,10.8-11.415,18.163-11.415s13.844,4.408,18.058,11.292a13.883,13.883,0,0,0,12.039,6.716h.188C1017.1,227.34,1022.084,232.039,1024.545,238.885Z" transform="translate(-959.302 -182.017)"/><path class="m" d="M1046.5,199.855l-11.677,7.551,7.088-13.14a11.454,11.454,0,0,0-7.065-2.568h-.188a14.152,14.152,0,0,1-2.423-.184l-3.958,2.553,1.7-3.143a14.087,14.087,0,0,1-6.922-5.366l-7.088,4.6,4.515-8.287c-4.146-5.067-9.729-8.18-15.869-8.18-7.366,0-13.927,4.469-18.163,11.423a13.482,13.482,0,0,1-12.039,6.593h-.4c-8.134,0-14.725,9.4-14.725,20.983s6.591,20.983,14.725,20.983a10.912,10.912,0,0,0,5.132-1.3,20.877,20.877,0,0,1,17.817-.36,18.278,18.278,0,0,0,15.154.038,20.927,20.927,0,0,1,17.667.345,10.86,10.86,0,0,0,5.071,1.28c8.134,0,14.725-9.391,14.725-20.983A27.055,27.055,0,0,0,1046.5,199.855Z" transform="translate(-959.29 -173.69)"/></g><g transform="translate(1385.748 1059.022)"><path class="m" d="M1024.545,238.885a21.374,21.374,0,0,0-12.618,1.4,18.278,18.278,0,0,1-15.154,0,20.906,20.906,0,0,0-17.817.353,10.853,10.853,0,0,1-5.131,1.311c-7.223,0-13.235-7.413-14.484-17.2a14.146,14.146,0,0,0,3.612-3.971c4.236-6.953,10.8-11.415,18.163-11.415s13.844,4.408,18.058,11.292a13.883,13.883,0,0,0,12.039,6.716h.188C1017.1,227.34,1022.084,232.039,1024.545,238.885Z" transform="translate(-959.302 -182.017)"/><path class="m" d="M1046.5,199.855l-11.677,7.551,7.088-13.14a11.454,11.454,0,0,0-7.065-2.568h-.188a14.152,14.152,0,0,1-2.423-.184l-3.958,2.553,1.7-3.143a14.087,14.087,0,0,1-6.922-5.366l-7.088,4.6,4.515-8.287c-4.146-5.067-9.729-8.18-15.869-8.18-7.366,0-13.927,4.469-18.163,11.423a13.482,13.482,0,0,1-12.039,6.593h-.4c-8.134,0-14.725,9.4-14.725,20.983s6.591,20.983,14.725,20.983a10.912,10.912,0,0,0,5.132-1.3,20.877,20.877,0,0,1,17.817-.36,18.278,18.278,0,0,0,15.154.038,20.927,20.927,0,0,1,17.667.345,10.86,10.86,0,0,0,5.071,1.28c8.134,0,14.725-9.391,14.725-20.983A27.055,27.055,0,0,0,1046.5,199.855Z" transform="translate(-959.29 -173.69)"/></g><g transform="translate(117.682 980.917)"><line class="s" x2="423.464" y2="100.161" transform="translate(1262.117 150.857)"/><line class="s" x2="423.464" y2="65.49" transform="translate(1262.117 76.887)"/><line class="s" x2="423.464" y2="46.228" transform="translate(1262.117)"/><line class="s" x1="423.464" y2="100.161" transform="translate(0 150.857)"/><line class="s" x1="423.464" y2="65.49" transform="translate(0 76.887)"/><line class="s" x1="423.464" y2="46.228"/></g><g transform="translate(1353.993 1015.151)"><ellipse class="t" cx="1" cy="1.019" rx="1" ry="1.019" transform="translate(154.414 285.121)"/><ellipse class="t" cx="1" cy="1.019" rx="1" ry="1.019" transform="translate(194.414 205.648)"/><ellipse class="t" cx="1" cy="1.019" rx="1" ry="1.019" transform="translate(140.414 52.815)"/><path class="u" d="M650.023,433.889h15.25q-7.935,4.172-15.93,8.284v-7.9Z" transform="translate(-528.429 -293.449)"/><path class="r" d="M-.009,13.679A10.381,10.381,0,0,1,5.98,4.147L5.63,0,28.044.153l-2.42,26.9L7.9,26.93l-.257-3.048a10.719,10.719,0,0,1-7.653-10.2Zm7.517,8.6L6.156,6.238a10.457,10.457,0,0,0-3,8.284A10.723,10.723,0,0,0,7.508,22.275Z" transform="matrix(0.914, 0.407, -0.407, 0.914, 185.033, 245.585)"/><path class="v" d="M702.753,535.506s26.42,19.228,17.613,26.919-26.42-23.073-26.42-23.073Z" transform="translate(-523.429 -292.549)"/><path class="v" d="M580.717,564.479s5.032,64.093,6.29,73.066,2.516,89.73,5.032,98.7,5.032,30.765,5.032,30.765h15.1s-1.258-39.738,2.516-55.12,2.516-57.684,2.516-57.684,7.549-75.63,3.774-85.885S580.717,564.479,580.717,564.479Z" transform="translate(-528.429 -291.02)"/><path class="w" d="M600.847,759.448s-6.29,3.846-6.29,6.409,1.258,8.973,0,11.537-10.065,12.819-5.032,15.382,27.678,0,27.678,0-1.258-17.946-2.516-19.228,1.258-14.1,1.258-14.1Z" transform="translate(-528.429 -287.301)"/><path class="v" d="M676.891,562.905s1.6,64.277,1.272,73.335,6.742,89.5,5.164,98.7-1.835,31.133-1.835,31.133l-15.014,1.615s-2.843-39.653-8.181-54.546-8.445-57.1-8.445-57.1-15.3-74.4-12.6-85.006S676.891,562.905,676.891,562.905Z" transform="translate(-528.429 -291.018)"/><path class="w" d="M677.342,758.942s6.652,3.152,6.916,5.7-.327,9.058,1.189,11.473,11.33,11.671,6.589,14.759-27.525,2.96-27.525,2.96-.6-17.981.521-19.391-2.7-13.888-2.7-13.888Z" transform="translate(-528.429 -287.311)"/><path class="w" d="M598.331,470.2s12.736-20.4-3.619,14.164c-1.23,6.817-13.878,39.172-14.7,59.834-2.834,71.132-2.335,192.611-6.211,201.588-4.982,11.539,45.747,20.39,46.55,8.973s13.307-189.631,13.307-189.631,16.684,186.6,18.588,193.612,46.317,1.47,48.138-10.7c-25.366-139.148-19.4-203.839-19.4-203.839s-2.512-39.914-20.356-59.834c-4.423-4.326-3.6-7.933-3.163-14.164Z" transform="translate(-528.429 -292.877)"/><path class="v" d="M579.459,460.046s16.355-3.846,18.871,1.282-6.29,12.819-10.065,12.819S578.2,470.3,578.2,470.3Z" transform="translate(-528.429 -292.981)"/><ellipse class="x" cx="22.646" cy="23.073" rx="22.646" ry="23.073" transform="translate(86.287 10.278)"/><path class="x" d="M623.68,344.4s-2.7,20.483-5.22,20.483,18.871,11.537,18.871,11.537l16.355-2.564,5.032-7.691s-7.8-12.351-7.8-22.606S623.68,344.4,623.68,344.4Z" transform="translate(-528.429 -295.237)"/><path class="k" d="M628.525,364.452s-3.774-2.564-5.032-2.564H613.428c-1.258,0-17.613,3.846-17.613,3.846l-10.065,57.684s17.613,29.483,5.032,52.556c0,0,22.52,7.114,40.134,8.4s30.32-4.551,31.578-4.551,1.258-10.255,0-12.819,1.258-1.282,1.258-7.691,3.774-17.946,3.774-17.946l17.613-65.375s-22.646-12.819-26.42-11.537-15.1,5.127-17.613,3.846S628.525,364.452,628.525,364.452Z" transform="translate(-528.429 -294.809)"/><path class="k" d="M599.589,366.946l-3.774-1.282s-7.549-1.282-16.355,6.409-41.517,30.765-41.517,30.765-12.581,10.255-8.807,21.792,10.065,39.738,28.936,38.456c0,0,11.323,15.382,17.613,12.819s11.323-12.819,7.549-14.1-13.839-14.1-13.839-14.1l12.581-24.355h3.774l13.839-7.691Z" transform="translate(-528.429 -294.739)"/><path class="k" d="M8.9,0,18.961,1.27s8.8,3.834,7.523,20.5S24.6,38.934,33.789,88.636c0,0,8.864,77.947,6.346,79.232s-17.627,9-16.362,3.867-6.641-38.081-6.641-38.081S6.952,115.261,6.043,93.061L.008,62.818Z" transform="matrix(0.998, -0.07, 0.07, 0.998, 131.859, 81.55)"/><path class="w" d="M696.077,350.1c-2.807-4.044-6.259-7.579-9.222-11.506-6.829-9.056-9.192-21.122-18.356-28.066-9.068-6.871-23.459-13.635-34.806-13.093-14.955.714-26.819,12.535-37.129,23.6l-23.636,25.359c-5.7,6.115-11.61,12.607-13.664,20.777-1.974,7.852-.048,16.287,3.567,23.507a56.968,56.968,0,0,0,15.443,18.784c7.912-11.1,19-26.427,19-26.427l2.581,38.124c13.4,4.526,27.8,5.416,41.928,4.415l4.184-15.631,4.391,14.765c16.88-2.28,33.839-8.219,44.288-21.64C706.2,388.222,706.809,365.561,696.077,350.1Z" transform="translate(-528.429 -296.027)"/><path class="w" d="M601.814,346.272c-2.334-11.943.188-24.318,8.029-33.794,14.487-17.507,41.608-18.491,60.576-2.2a48.765,48.765,0,0,1,15.549,24.786,48.563,48.563,0,0,0-16.143-27.409c-18.968-16.294-46.089-15.311-60.576,2.2C600.831,320.027,598.543,333.538,601.814,346.272Z" transform="translate(-528.429 -296.052)"/><path class="w" d="M557.248,401.567c-2.334-11.943.188-24.318,8.029-33.794,14.487-17.507,41.608-18.491,60.576-2.2A48.766,48.766,0,0,1,641.4,390.362a48.563,48.563,0,0,0-16.143-27.409c-18.968-16.294-46.089-15.311-60.576,2.2C556.265,375.322,553.977,388.833,557.248,401.567Z" transform="translate(-528.429 -295.008)"/><path class="w" d="M658.32,339.065c11.895-1.193,23.733,2.581,32.218,11.464,15.675,16.41,13.969,44.006-3.81,61.637a47.444,47.444,0,0,1-25.737,13.329,47.134,47.134,0,0,0,28.358-13.673c17.78-17.631,19.486-45.226,3.81-61.637C684.05,340.649,671.079,337,658.32,339.065Z" transform="translate(-528.429 -295.251)"/><path class="u" d="M7.522.157A5.8,5.8,0,0,0,1.334,2.625a8.2,8.2,0,0,0-1,2.511,13.963,13.963,0,0,0,4.32,13.483A26.191,26.191,0,0,1,7.412,21a8.092,8.092,0,0,1,1.526,7.173,12.034,12.034,0,0,1-4.117,6.21,3.4,3.4,0,0,0-1.013,1.1c-.674,1.474,1.073,2.88,1.519,4.444" transform="matrix(0.996, 0.087, -0.087, 0.996, 201.355, 209.662)"/></g></g></g></svg>