<svg xmlns="http://www.w3.org/2000/svg" width="40" height="40" viewBox="0 0 40 40"><defs><style>.a{fill:#fa8565;}</style></defs><g transform="translate(0 0)"><path class="a" d="M20,40A20,20,0,1,1,40,20,20,20,0,0,1,20,40ZM20,.976A19.024,19.024,0,1,0,39.024,20,19.024,19.024,0,0,0,20,.976Z" transform="translate(0 0)"/><path class="a" d="M34.594,23H25.8A2.8,2.8,0,0,0,23,25.8v8.8a2.8,2.8,0,0,0,2.8,2.8h8.8a2.8,2.8,0,0,0,2.8-2.8V25.8A2.8,2.8,0,0,0,34.594,23Zm.8,1.659h.316V27.1H33.279V24.659Zm-7.249,4.062a2.527,2.527,0,1,1-.48,1.475A2.527,2.527,0,0,1,28.146,28.721Zm7.848,5.873a1.379,1.379,0,0,1-1.4,1.391H25.8a1.379,1.379,0,0,1-1.4-1.391V28.721H26.55a3.934,3.934,0,1,0,7.293,0h2.151Z" transform="translate(-10.197 -10.197)"/></g></svg>