<svg xmlns="http://www.w3.org/2000/svg" width="40" height="40" viewBox="0 0 40 40"><defs><style>.a{fill:#fa8565;}</style></defs><path class="a" d="M20,40A20,20,0,1,1,40,20,20,20,0,0,1,20,40ZM20,.976A19.024,19.024,0,1,0,39.024,20,19.024,19.024,0,0,0,20,.976Z" transform="translate(0 0)"/><path class="a" d="M26.17,36.042h-2.8V27.055h2.8ZM24.7,25.931h-.02a1.565,1.565,0,1,1,.04-3.119,1.565,1.565,0,1,1-.02,3.119Zm12.7,10.111h-3.2v-4.65c0-1.2-.5-2.047-1.6-2.047a1.6,1.6,0,0,0-1.519,1.1,2.035,2.035,0,0,0-.068.732v4.866H27.882s.04-8.236,0-8.984h3.15v1.423a2.885,2.885,0,0,1,2.8-1.5c2,0,3.562,1.291,3.562,4.074Z" transform="translate(-10.197 -10.323)"/></svg>