<svg xmlns="http://www.w3.org/2000/svg" viewBox="0 0 116.69 116.69"><g data-name="Layer 2"><path d="M66.36 57.62v2.43L68.52 58a15.43 15.43 0 00-2.16-.38z"/><path d="M70.69 58.64l-4.33 4.19V85.9h13.21V71.8a14.22 14.22 0 00-8.88-13.16zM42.48 85.96h12.13V74.21L42.48 85.96zm12.13-34.67V37.67A13.58 13.58 0 0042 24.14v39.77zM42 66.74v16.91L72 54.6a13.52 13.52 0 00.62-18.46z" fill="#fff"/><path d="M108.12 80.81a54.59 54.59 0 11.38-44.07" fill="none" stroke="#fff" stroke-linejoin="bevel" stroke-width="7.5"/><path d="M108.5 36.74a54.77 54.77 0 01-.38 44.07" opacity=".2" fill="none" stroke="#fff" stroke-linejoin="bevel" stroke-width="7.5"/></g></svg>