<svg xmlns="http://www.w3.org/2000/svg" xmlns:xlink="http://www.w3.org/1999/xlink" width="68.43" height="68.43" viewBox="0 0 68.43 68.43"><defs><style>.a{fill:none;}.b{fill:#3dadbd;}.c{clip-path:url(#a);}.d{fill:#fa8565;}.e{opacity:0.9;}.f{clip-path:url(#c);}.g{opacity:0.2;}.h{clip-path:url(#d);}</style><clipPath id="a"><rect class="a" width="68.43" height="68.43"/></clipPath><clipPath id="c"><rect class="a" width="65.645" height="68.43"/></clipPath><clipPath id="d"><rect class="b" width="7.028" height="27.617"/></clipPath></defs><g class="c" transform="translate(0)"><g transform="translate(0 0)"><g class="c"><path class="d" d="M41.989,54.084V64L59.578,46.964a7.948,7.948,0,0,0,.36-10.829Z" transform="translate(-17.366 -14.945)"/><g class="e"><g class="f"><path class="b" d="M34.215,68.43a34.215,34.215,0,1,1,31.43-47.757l-4.039,1.742a29.817,29.817,0,1,0-.2,24.064l4.008,1.811A34.294,34.294,0,0,1,34.215,68.43" transform="translate(0 0)"/></g></g><g class="g" transform="translate(61.402 20.673)"><g class="h"><g class="e"><g class="h"><path class="b" d="M108.716,62.871l-4.008-1.811a29.913,29.913,0,0,0,.2-24.064l4.038-1.743a34.308,34.308,0,0,1-.235,27.618" transform="translate(-104.708 -35.253)"/></g></g></g></g><path class="d" d="M68.9,58.639,66.36,61.1V74.627h7.746V66.356A8.34,8.34,0,0,0,68.9,58.639" transform="translate(-27.446 -24.252)"/><path class="d" d="M49.391,54.121l-7.4,7.4v9.912l7.4-7.168Z" transform="translate(-17.366 -22.384)"/><path class="d" d="M49.391,40.062V32.075a7.965,7.965,0,0,0-7.4-7.936V47.464Z" transform="translate(-17.366 -9.984)"/><path class="d" d="M42.478,81.1h7.115v-6.89Z" transform="translate(-17.568 -30.691)"/></g></g></g></svg>