<svg xmlns="http://www.w3.org/2000/svg" xmlns:xlink="http://www.w3.org/1999/xlink" viewBox="0 0 1075.56 605"><defs><style>.cls-1{fill:#209895;}.cls-2{fill:url(#linear-gradient);}.cls-3{fill:url(#linear-gradient-2);}.cls-4{fill:url(#radial-gradient);}.cls-10,.cls-5,.cls-6,.cls-7{fill:none;}.cls-5,.cls-6,.cls-7{stroke:#ffca97;}.cls-5{stroke-miterlimit:10;}.cls-6{stroke-miterlimit:10;}.cls-7{stroke-miterlimit:10;}.cls-8{fill:url(#radial-gradient-2);}.cls-9{fill:url(#radial-gradient-3);}.cls-10{stroke:#e6394e;stroke-miterlimit:10;stroke-width:4px;}.cls-11{fill:#904757;}.cls-12{fill:url(#linear-gradient-3);}.cls-13{fill:url(#linear-gradient-4);}.cls-14{fill:#b0a895;}.cls-15{fill:url(#radial-gradient-4);}.cls-16{fill:url(#linear-gradient-5);}.cls-17{fill:url(#linear-gradient-6);}.cls-18{fill:url(#linear-gradient-7);}.cls-19{fill:#1e1e38;}.cls-20{fill:url(#linear-gradient-8);}.cls-21{fill:#efeff7;}.cls-22{fill:#000008;}.cls-23{fill:#1d2b41;}.cls-24{fill:url(#radial-gradient-5);}.cls-25{fill:url(#radial-gradient-6);}.cls-26{fill:url(#linear-gradient-9);}.cls-27{fill:url(#linear-gradient-10);}.cls-28{fill:url(#radial-gradient-7);}</style><linearGradient id="linear-gradient" x1="537.01" y1="-2877.54" x2="537.01" y2="-2558.75" gradientTransform="matrix(1, 0, 0, -1, 0, -2265.63)" gradientUnits="userSpaceOnUse"><stop offset="0" stop-color="#1d2b41"/><stop offset="0.51" stop-color="#111e4c"/><stop offset="1" stop-color="#0b1852"/></linearGradient><linearGradient id="linear-gradient-2" x1="471.06" y1="-2562.14" x2="600.7" y2="-2562.14" gradientTransform="matrix(1, 0, 0, -1, 0, -2265.63)" gradientUnits="userSpaceOnUse"><stop offset="0" stop-color="#564d60"/><stop offset="0.31" stop-color="#484559"/><stop offset="0.89" stop-color="#253045"/><stop offset="1" stop-color="#1d2b41"/></linearGradient><radialGradient id="radial-gradient" cx="532.25" cy="-4062.07" r="40.18" gradientTransform="matrix(1, 0, 0, -0.55, -1.7, -1846.97)" gradientUnits="userSpaceOnUse"><stop offset="0" stop-color="#ffeddd"/><stop offset="0.5" stop-color="#ffdab8"/><stop offset="1" stop-color="#ffca97"/></radialGradient><radialGradient id="radial-gradient-2" cx="548.41" cy="-5420.61" r="72.26" gradientTransform="matrix(1, 0, 0, -0.4, 0, -1663.23)" gradientUnits="userSpaceOnUse"><stop offset="0" stop-color="#ffca97"/><stop offset="0.31" stop-color="#f9c393"/><stop offset="0.76" stop-color="#e7ae89"/><stop offset="1" stop-color="#dca183"/></radialGradient><radialGradient id="radial-gradient-3" cx="548.41" cy="-4284.89" r="126.96" gradientTransform="matrix(1, 0, 0, -0.55, 0, -1802.72)" gradientUnits="userSpaceOnUse"><stop offset="0" stop-color="#333e6e"/><stop offset="0.48" stop-color="#0b1852"/><stop offset="1" stop-color="#08123d"/></radialGradient><linearGradient id="linear-gradient-3" x1="598.9" y1="-2706.77" x2="753.29" y2="-2706.77" gradientTransform="matrix(0.92, 0.4, 0.4, -0.92, 1136.86, -2310.56)" xlink:href="#linear-gradient-2"/><linearGradient id="linear-gradient-4" x1="629.71" y1="-2664.01" x2="724.34" y2="-2827.92" gradientTransform="matrix(1, 0, 0, -1, 0, -2265.63)" gradientUnits="userSpaceOnUse"><stop offset="0.41" stop-color="#1d2b41"/><stop offset="0.71" stop-color="#1b2843"/><stop offset="0.9" stop-color="#12204b"/><stop offset="1" stop-color="#0b1852"/></linearGradient><radialGradient id="radial-gradient-4" cx="634.95" cy="-2587.14" fx="608.7700437198043" fy="-2619.4884005914982" r="268.64" gradientTransform="matrix(1, 0, 0, -1.07, 0, -2333.39)" gradientUnits="userSpaceOnUse"><stop offset="0" stop-color="#ffca97"/><stop offset="0.04" stop-color="#ebb38c"/><stop offset="0.11" stop-color="#cc8e7a"/><stop offset="0.17" stop-color="#b6746d"/><stop offset="0.23" stop-color="#a86465"/><stop offset="0.28" stop-color="#a35e62"/><stop offset="0.29" stop-color="#a25c61"/><stop offset="0.41" stop-color="#97505b"/><stop offset="0.58" stop-color="#924958"/><stop offset="1" stop-color="#904757"/></radialGradient><linearGradient id="linear-gradient-5" x1="430.82" y1="-2398.81" x2="430.82" y2="-2597.18" gradientTransform="matrix(1, 0, 0, -1, 0, -2265.63)" gradientUnits="userSpaceOnUse"><stop offset="0" stop-color="#564d60"/><stop offset="0.01" stop-color="#51495c"/><stop offset="0.05" stop-color="#3a364c"/><stop offset="0.09" stop-color="#2a2841"/><stop offset="0.13" stop-color="#21203a"/><stop offset="0.2" stop-color="#1e1e38"/><stop offset="0.64" stop-color="#202039"/><stop offset="0.8" stop-color="#27253e"/><stop offset="0.91" stop-color="#322f46"/><stop offset="1" stop-color="#433d52"/></linearGradient><linearGradient id="linear-gradient-6" x1="643.28" y1="-2408.54" x2="643.28" y2="-2623.28" xlink:href="#linear-gradient-5"/><linearGradient id="linear-gradient-7" x1="533.91" y1="-2373.1" x2="533.91" y2="-2576.33" gradientTransform="matrix(1, 0, 0, -1, 0, -2265.63)" gradientUnits="userSpaceOnUse"><stop offset="0" stop-color="#904757"/><stop offset="0.47" stop-color="#8e4656"/><stop offset="0.64" stop-color="#874352"/><stop offset="0.76" stop-color="#7c3d4b"/><stop offset="0.86" stop-color="#6b3541"/><stop offset="0.94" stop-color="#552a34"/><stop offset="1" stop-color="#402027"/></linearGradient><linearGradient id="linear-gradient-8" x1="552.84" y1="-2507.98" x2="629.16" y2="-2552.04" gradientTransform="matrix(1, 0, 0, -1, 0, -2265.63)" gradientUnits="userSpaceOnUse"><stop offset="0" stop-color="#ff5058"/><stop offset="0.35" stop-color="#fd5058"/><stop offset="0.53" stop-color="#f54f58"/><stop offset="0.66" stop-color="#e84e58"/><stop offset="0.77" stop-color="#d64d58"/><stop offset="0.87" stop-color="#be4b57"/><stop offset="0.96" stop-color="#a04857"/><stop offset="1" stop-color="#904757"/></linearGradient><radialGradient id="radial-gradient-5" cx="536.52" cy="-1648.54" r="88.66" gradientTransform="matrix(1, 0, 0, -2, 0, -3104.99)" gradientUnits="userSpaceOnUse"><stop offset="0" stop-color="#ffca97"/><stop offset="0.05" stop-color="#ffca97"/><stop offset="0.46" stop-color="#dda384"/><stop offset="0.8" stop-color="#c88978"/><stop offset="1" stop-color="#c08073"/></radialGradient><radialGradient id="radial-gradient-6" cx="537.34" cy="-2893.02" fy="-2914.516731481826" r="53.76" gradientTransform="matrix(1, 0, 0, -0.8, 0, -2094.49)" gradientUnits="userSpaceOnUse"><stop offset="0" stop-color="#fff"/><stop offset="0.01" stop-color="#f6f6f6"/><stop offset="0.04" stop-color="#c8c8c8"/><stop offset="0.07" stop-color="#9d9d9d"/><stop offset="0.11" stop-color="#777"/><stop offset="0.15" stop-color="#575757"/><stop offset="0.2" stop-color="#3b3b3b"/><stop offset="0.25" stop-color="#252525"/><stop offset="0.31" stop-color="#141414"/><stop offset="0.38" stop-color="#090909"/><stop offset="0.49" stop-color="#020202"/><stop offset="0.78"/></radialGradient><linearGradient id="linear-gradient-9" x1="475.15" y1="-2706.74" x2="320.76" y2="-2706.74" gradientTransform="matrix(0.4, 0.92, 0.92, -0.4, 2720.77, -1004.36)" xlink:href="#linear-gradient-2"/><linearGradient id="linear-gradient-10" x1="448.85" y1="-2670.08" x2="356.39" y2="-2830.22" gradientTransform="matrix(1, 0, 0, -1, 0, -2265.63)" gradientUnits="userSpaceOnUse"><stop offset="0" stop-color="#1d2b41"/><stop offset="0.51" stop-color="#1b2843"/><stop offset="0.84" stop-color="#12204b"/><stop offset="1" stop-color="#0b1852"/></linearGradient><radialGradient id="radial-gradient-7" cx="450.79" cy="-2061.1" fx="491.41772750448405" fy="-2085.569699681857" r="212.62" gradientTransform="matrix(1, 0, 0, -1.6, 0, -2849.23)" xlink:href="#radial-gradient-4"/></defs><title>mixer_dog</title><g id="Layer_2" data-name="Layer 2"><rect id="bg" class="cls-1" width="1075.56" height="605"/><g id="dog"><path id="body_main-3" data-name="body main-3" class="cls-2" d="M699,611.91H375c-19.19,0-25.25-17.28-25.25-38.59L359.27,455c0-89.35,49.33-108.55,145.85-161.91H568.9C655.3,335.25,714.75,365.61,714.75,455l9.51,118.29c0,21.31-6,38.59-25.25,38.59Z"/><path id="neck" class="cls-3" d="M599.49,312.66c-22.63,23.52-104.56,16.08-126.84,0-7.7-5.59,15.66-23.5,6.33-33,20.19-18.1,96.23-19.91,114.18,0C583.2,289.11,606.07,305.74,599.49,312.66Z"/><g id="necklace"><path id="bone" class="cls-4" d="M569.34,385.21V385h.49a7.72,7.72,0,1,0-7.7-7.74v.53H514.2v-.51A7.72,7.72,0,1,0,506,385v.17a7.76,7.76,0,1,0,7.85,7.66,7.88,7.88,0,0,0-.39-2.36H562a7.51,7.51,0,0,0-.4,2.4,7.72,7.72,0,1,0,7.72-7.72h0Z"/><g id="chain"><g id="chain_right" data-name="chain right"><rect class="cls-5" x="494.61" y="357.63" width="8.86" height="20.25" rx="3.5" transform="translate(-113.88 460.59) rotate(-45)"/><rect class="cls-6" x="485.78" y="344.95" width="8.86" height="20.25" rx="3.5" transform="translate(-113.87 393.43) rotate(-39.55)"/><rect class="cls-6" x="480.7" y="333.58" width="8.86" height="20.25" rx="3.5" transform="translate(-107.8 387.59) rotate(-39.55)"/><rect class="cls-6" x="476.92" y="320.92" width="8.86" height="20.25" rx="3.5" transform="translate(-100.6 382.29) rotate(-39.55)"/><rect class="cls-6" x="475.64" y="309.55" width="8.86" height="20.25" rx="3.5" transform="translate(-93.65 378.87) rotate(-39.55)"/><rect class="cls-6" x="474.38" y="298.15" width="8.86" height="20.25" rx="3.5" transform="translate(-86.68 375.46) rotate(-39.55)"/><rect class="cls-6" x="475.64" y="290.55" width="8.86" height="20.25" rx="3.5" transform="translate(-81.55 374.52) rotate(-39.55)"/></g><g id="chain_left" data-name="chain left"><rect class="cls-5" x="566.5" y="363.32" width="20.25" height="8.86" rx="3.5" transform="translate(-91.15 515.45) rotate(-45)"/><rect class="cls-7" x="575.39" y="350.65" width="20.25" height="8.86" rx="3.5" transform="translate(-61.1 580.45) rotate(-50.45)"/><rect class="cls-7" x="580.45" y="339.27" width="20.25" height="8.86" rx="3.5" transform="translate(-50.49 580.22) rotate(-50.45)"/><rect class="cls-7" x="584.24" y="326.62" width="20.25" height="8.86" rx="3.5" transform="translate(-39.36 578.55) rotate(-50.45)"/><rect class="cls-7" x="585.51" y="315.23" width="20.25" height="8.86" rx="3.5" transform="translate(-30.11 575.39) rotate(-50.45)"/><rect class="cls-7" x="586.76" y="303.84" width="20.25" height="8.86" rx="3.5" transform="translate(-20.88 572.22) rotate(-50.45)"/><rect class="cls-7" x="585.51" y="296.26" width="20.25" height="8.86" rx="3.5" transform="translate(-15.49 568.5) rotate(-50.45)"/></g></g></g><g id="drum"><ellipse id="drum_top" data-name="drum top" class="cls-8" cx="548.41" cy="505.01" rx="94.88" ry="37.95"/><path id="drum_sides" data-name="drum sides" class="cls-9" d="M453.52,569.54c0,20.91,42.47,38,94.89,38s94.88-17,94.88-38v-65.8c0,50.61-189.77,50.61-189.77,0Z"/><path id="drum_cap_bottom" data-name="drum cap bottom" class="cls-10" d="M642.64,517.66c0,20.62-42.47,36.12-94.88,36.12s-94.87-15.44-94.87-36.12"/><path id="drum_cap_top" data-name="drum cap top" class="cls-10" d="M642.64,560.68c0,20.61-42.47,36.12-94.88,36.12s-94.87-15.44-94.87-36.12"/><g id="drumlines"><path id="drumline6" class="cls-11" d="M513.68,537.28h0a6.4,6.4,0,0,1,6.4,6.4v61.83a6.41,6.41,0,0,1-6.4,6.4h0a6.41,6.41,0,0,1-6.4-6.4V543.68A6.4,6.4,0,0,1,513.68,537.28Z"/><path id="drumline5" class="cls-11" d="M580.73,537.28h0a6.39,6.39,0,0,1,6.4,6.4v61.83a6.4,6.4,0,0,1-6.4,6.4h0a6.4,6.4,0,0,1-6.39-6.4V543.68A6.39,6.39,0,0,1,580.73,537.28Z"/><path id="drumline4" class="cls-11" d="M471.94,522.09h0a5.76,5.76,0,0,1,5.76,5.76V591a5.76,5.76,0,0,1-5.76,5.76h0a5.76,5.76,0,0,1-5.76-5.76V527.85A5.76,5.76,0,0,1,471.94,522.09Z"/><path id="drumline3" class="cls-11" d="M622.47,522.09h0a5.76,5.76,0,0,1,5.76,5.76V591a5.76,5.76,0,0,1-5.76,5.76h0a5.76,5.76,0,0,1-5.76-5.76V527.85A5.76,5.76,0,0,1,622.47,522.09Z"/><rect id="drumline2" class="cls-11" x="445.82" y="504.39" width="9.22" height="74.64" rx="4.6"/><rect id="drumline1" class="cls-11" x="638.12" y="504.39" width="9.22" height="74.64" rx="4.6"/></g></g><g id="right_side" data-name="right side"><rect id="upperarm_right-2" data-name="upperarm right-2" class="cls-12" x="625.85" y="324.78" width="100.53" height="232.58" rx="48.5" transform="translate(-119.87 306.6) rotate(-23.53)"/><path id="lowerarm_right-2" data-name="lowerarm right-2" class="cls-13" d="M737.07,552.2l5.32-5.87c18.16-20,18.16-52.36,0-72.25l-59.71-65.7c-18.16-20-47.53-20-65.76,0l-5.32,5.88c-18.16,20-18.16,52.33,0,72.24l59.71,65.7a43.6,43.6,0,0,0,61.5,4.26,42.83,42.83,0,0,0,4.26-4.26Z"/><path id="drumstick_right" data-name="drumstick right" class="cls-14" d="M559.68,484.27a4.15,4.15,0,0,0,5.85.41,3.87,3.87,0,0,0,.4-.41l141.5-159.8c1.16-1.28,5.93-2.74,8.2-6,2.5-3.63-1.37-8.8-5.06-6.69s-4.37,8.61-5.61,10L559.68,477.39A5.21,5.21,0,0,0,559.68,484.27Z"/><g id="hand_right-2" data-name="hand right-2"><path id="thumb" class="cls-11" d="M680.21,408.06,657.4,383A14.49,14.49,0,0,0,637,381.52a15.16,15.16,0,0,0-1.45,1.44,17.69,17.69,0,0,0-4.37,9.62,14.4,14.4,0,0,0-10.21,1.9c1.54-16.69,13.44-20,26.62-20,13.69,0,32.43,22,35.07,37A17.31,17.31,0,0,0,680.21,408.06Z"/><path id="fingers" class="cls-15" d="M588.44,436a15.2,15.2,0,0,1,8.48-4.81l26.62,29.22a.61.61,0,0,0,.88,0l0,0a.76.76,0,0,0,0-1l-27.21-29.91a18.3,18.3,0,0,1,4.55-13.69,15.06,15.06,0,0,1,10.78-5.07l27.73,30.53a.6.6,0,0,0,.86,0l0,0a.77.77,0,0,0,0-1l-28.14-31a17.94,17.94,0,0,1,4.55-10.87,14.88,14.88,0,0,1,13.49-4.87l26,28.52a.6.6,0,0,0,.86,0l0,0a.75.75,0,0,0,0-1l-26.25-28.86a17.87,17.87,0,0,1,4.22-8.48,14.81,14.81,0,0,1,20.9-1.42,15.86,15.86,0,0,1,1.42,1.42l23.23,25.63a18.58,18.58,0,0,1,0,24.52,15.53,15.53,0,0,1-5.93,4.09,18.68,18.68,0,0,1-1.65,22.36,15,15,0,0,1-11.2,5.07,18.32,18.32,0,0,1-4.62,12.32,14.7,14.7,0,0,1-20.32,1.9,17.58,17.58,0,0,1-3.81,6.52,14.75,14.75,0,0,1-20.81,1.49,14,14,0,0,1-1.49-1.49l-23.23-25.55a18.62,18.62,0,0,1,0-24.62Z"/></g></g><g id="head-3"><path id="ear_left" data-name="ear left" class="cls-16" d="M498.5,133.18c-23.76,5.3-35.28,15.21-40.8,24.71-9.65,16.39-21,32.68-37.28,42.57-135.87,82.85,6.49,231.27,53,31Z"/><path id="ear_right" data-name="ear right" class="cls-17" d="M591.83,142.91c22.14,10.1,31.36,22.25,34.82,32.51,6.07,18,13.86,36.31,27.72,49.43,115.86,109.1-54.08,224.94-58.29,19.43Z"/><path id="head_main-3" data-name="head main-3" class="cls-18" d="M605.27,219.17a33.86,33.86,0,0,1-9-26.62l2.36-22.66a56.48,56.48,0,1,0-112.34-11.75l-2.54,23a33.74,33.74,0,0,1-14.05,24.06l-.36.27a44.32,44.32,0,0,0-10.55,61.8,44.78,44.78,0,0,0,3.53,4.38l36.26,26a44.32,44.32,0,0,0,58,6.17l41.52-18a44.35,44.35,0,0,0,7.11-66.61Z"/><path id="mouth-3" class="cls-19" d="M593.71,243.54c-2.21,21.18-30.82,47-62.43,43.72S477,252.78,479.21,231.58s28.51-24.37,60.07-21.08S596,222.34,593.71,243.54Z"/><path id="tongue-2" class="cls-20" d="M550,247.19c21.1,17.53,20.63,9.85,33.69,18.84,13.59,9.35,3,20.36,16.42,31.46a15.08,15.08,0,0,0,16.66,2.32,21.91,21.91,0,0,0,12.41-16.35c7.17-39.92-50.15-45.91-50.15-45.91l-29,9.64"/><g id="teeth"><path id="tooth5" class="cls-21" d="M490.55,242.32c.56-2.38,9.17-.36,8.62,2s-3.54,6.31-5.92,5.7S490,244.72,490.55,242.32Z"/><path id="tooth4" class="cls-21" d="M577.26,251.37c0-2.43-8.91-2.22-8.86.23s2.15,6.9,4.61,6.84S577.32,253.82,577.26,251.37Z"/><path id="tooth3" class="cls-21" d="M544.81,285.49c-.24,2.44-9.07,1.51-8.8-.93s2.68-6.71,5.11-6.44S545.06,283.06,544.81,285.49Z"/><path id="tooth2" class="cls-21" d="M535.88,285.84c-.27,2.43-9.07,1.5-8.82-.93s2.7-6.72,5.13-6.47S536.12,283.4,535.88,285.84Z"/><path id="tooth1" class="cls-21" d="M527.19,283.65c-.25,2.43-9.05,1.52-8.8-.91s2.7-6.71,5.13-6.47,4,5,3.67,7.38Z"/></g><path id="tongue_line" data-name="tongue line" class="cls-22" d="M614.32,295.29a39.42,39.42,0,0,0,.41-9.64,36.49,36.49,0,0,0-2.18-9.34,44.18,44.18,0,0,0-10.91-15.62,83.57,83.57,0,0,0-15.56-11.26,124,124,0,0,0-17.37-8.38v-.14a86.17,86.17,0,0,1,18,7.42A70.86,70.86,0,0,1,602.3,260a45,45,0,0,1,10.8,16.12,37.68,37.68,0,0,1,1.9,9.51,40.29,40.29,0,0,1-.66,9.68Z"/><path id="eyebrow_left" data-name="eyebrow left" class="cls-23" d="M505.23,149.74c14.07,1.77,17.4,6,17.55,9.37a4.27,4.27,0,0,1-4.18,4.34,4.33,4.33,0,0,1-1.52-.25,90.35,90.35,0,0,1-16.43-8.06,3.3,3.3,0,0,0-3.25,0c-2.38,1.21-2.4,1-2.55,0-.47-3.46,2.68-4.74,5.29-5.21A16.39,16.39,0,0,1,505.23,149.74Z"/><path id="eyebrow_right" data-name="eyebrow right" class="cls-23" d="M581.75,157.72c-14.12-1.18-18.25,2.25-19,5.55a4.27,4.27,0,0,0,3.23,5.09,4.7,4.7,0,0,0,1.45.07,90.91,90.91,0,0,0,17.73-4.49,3.36,3.36,0,0,1,3.2.57c2.07,1.67,2.15,1.52,2.51.49,1.16-3.29-1.66-5.19-4.11-6.19a16.52,16.52,0,0,0-5-1.09Z"/><path id="snout" class="cls-24" d="M561.18,159.17c-7.6,26.48,12.78,41.31,26.25,48a23.17,23.17,0,0,1,12.78,25.65c-7,31.25-67.37,15.87-64.64.91h-.21c-.4,15-60.83,17.72-63-12.87a23.1,23.1,0,0,1,17.53-23.71c14.71-3.8,37.7-14.07,35.59-42.36a20.27,20.27,0,0,1,11.16-19.94c7.16-3.38,13.3-1.1,18,2.64A20.5,20.5,0,0,1,561.18,159.17Z"/><path id="nose-2" class="cls-25" d="M557.44,219.39c.57-5.55-8-11-19-12.16s-20.6,2.41-21.17,8c-.36,3.44,3,10.82,8.08,6.71l1.16,2.66c-.9,2.95,3.55,6,9.5,6.58s10.86-1.42,10.59-4.48l1.69-2.38C552.23,229.36,557.07,222.83,557.44,219.39Z"/><g id="whisker_dots-3" data-name="whisker dots-3"><circle id="dot" class="cls-22" cx="497.08" cy="230.91" r="1.27"/><circle id="dot-2" class="cls-22" cx="493.37" cy="217.8" r="1.27"/><circle id="dot-3" class="cls-22" cx="504.72" cy="224.72" r="1.27"/></g><g id="whisker_dots-4" data-name="whisker dots-4"><circle id="dot-4" class="cls-22" cx="573.21" cy="238.84" r="1.27"/><circle id="dot-5" class="cls-22" cx="579.55" cy="226.79" r="1.27"/><circle id="dot-6" class="cls-22" cx="567.02" cy="231.2" r="1.27"/></g><path id="eyelash_left" data-name="eyelash left" class="cls-22" d="M518.18,181.05c-.93-.65-1.81-1.31-2.66-1.9l-2.65-1.9a18,18,0,0,0-5.4-2.34c-3.53-.71-7,.93-11,2.66a40,40,0,0,1-6.48,2.22,27,27,0,0,1-6.94.75A18.08,18.08,0,0,1,470.27,176a26.72,26.72,0,0,0,12.47.65,43,43,0,0,0,5.93-1.43c1.9-.62,3.81-1.4,5.8-2.26a37.05,37.05,0,0,1,6.56-2.24,13.22,13.22,0,0,1,7.6.47,19.42,19.42,0,0,1,9.55,9.91Z"/><path id="eyelash_right" data-name="eyelash right" class="cls-22" d="M563.37,185.76a19.26,19.26,0,0,1,11.4-7.72,13.21,13.21,0,0,1,7.61,1.11,37.14,37.14,0,0,1,6,3.53c1.79,1.26,3.48,2.4,5.21,3.41a42.75,42.75,0,0,0,5.51,2.62,26.79,26.79,0,0,0,12.36,1.9,18.08,18.08,0,0,1-13.42,1.9,26.31,26.31,0,0,1-6.64-2.15,40.68,40.68,0,0,1-5.89-3.51c-3.63-2.55-6.66-4.85-10.27-4.89a18.57,18.57,0,0,0-5.7,1.18l-3,1.22-3.15,1.4Z"/></g><g id="left_side" data-name="left side"><rect id="upperarm_left-2" data-name="upperarm left-2" class="cls-26" x="281.68" y="390.85" width="232.58" height="100.53" rx="48.5" transform="translate(-165.35 629.89) rotate(-66.47)"/><path id="lowerarm_left-2" data-name="lowerarm left-2" class="cls-27" d="M332.63,544.69l-4.39-6.75C313.3,515,318.11,483,339,466.59l68.76-54.06c20.92-16.45,49.93-11.14,64.87,11.82L477,431.1c14.94,23,10.13,54.9-10.74,71.35l-68.69,54.06c-21,16.45-50,11.15-64.94-11.82Z"/><path id="drumstick_left" data-name="drumstick left" class="cls-14" d="M517.74,509.56a4.17,4.17,0,0,1-5.87-.69,4.25,4.25,0,0,1-.31-.43L395.73,325.32c-1-1.46-5.46-3.8-7.21-7.39-1.9-4.05,2.66-8.44,6-5.71s3,9.3,4.05,10.86L518.75,502.77a5.19,5.19,0,0,1-1,6.79Z"/><g id="hand_left-2" data-name="hand left-2"><path id="thumb-2" class="cls-11" d="M410.16,412.68,436.37,392a14.61,14.61,0,0,1,20.52,2.37A15.58,15.58,0,0,1,458,396a18.07,18.07,0,0,1,2.87,10.28,14.75,14.75,0,0,1,9.81,3.8c1-16.74-10.3-22.11-23.27-24.48-13.52-2.45-35.28,15.91-40.09,30.17a16,16,0,0,1,2.87-3.06Z"/><path id="fingers-2" class="cls-28" d="M496.52,456.76a15.84,15.84,0,0,0-7.6-6.27l-30.53,24.05a.61.61,0,0,1-.86-.1l0-.05a.74.74,0,0,1,.16-1l31.27-24.62a18.84,18.84,0,0,0-2.43-14.34,15.67,15.67,0,0,0-9.89-6.92l-32,25.12a.59.59,0,0,1-.82-.1l-.05-.07a.75.75,0,0,1,.11-1.05h0L476.18,426a18.49,18.49,0,0,0-2.89-11.56,15.23,15.23,0,0,0-12.58-7.23l-29.77,23.6a.6.6,0,0,1-.83-.09l-.05-.06a.73.73,0,0,1,.14-1l30.18-23.82a18.3,18.3,0,0,0-2.9-9.13,14.87,14.87,0,0,0-20.4-5.12,14.29,14.29,0,0,0-1.6,1.11l-26.73,21a18.52,18.52,0,0,0-3.65,24.2,16.29,16.29,0,0,0,5.25,5.1,18.68,18.68,0,0,0-1.69,22.36,15.51,15.51,0,0,0,10.3,7,18.62,18.62,0,0,0,2.72,13,14.88,14.88,0,0,0,19.77,5.45,18.16,18.16,0,0,0,2.7,7.11,14.89,14.89,0,0,0,20.42,5.12,14.59,14.59,0,0,0,1.59-1.11l26.62-21a18.46,18.46,0,0,0,3.74-24.15Z"/></g></g></g></g></svg>