<svg xmlns="http://www.w3.org/2000/svg" xmlns:xlink="http://www.w3.org/1999/xlink" viewBox="0 0 1075.56 605"><defs><style>.cls-1{fill:#209895;}.cls-2{fill:url(#radial-gradient);}.cls-3{fill:#ff5058;}.cls-4{fill:url(#radial-gradient-2);}.cls-5{fill:url(#linear-gradient);}.cls-6{fill:url(#linear-gradient-2);}.cls-7{fill:url(#linear-gradient-3);}.cls-8{fill:#ffe467;}.cls-9{fill:url(#radial-gradient-3);}.cls-10{fill:#592447;}.cls-11{fill:#aa272f;}.cls-12{fill:#000008;}.cls-13{fill:#fff;}.cls-14{fill:#07070f;}.cls-15{fill:#3a3a42;}.cls-16{fill:none;stroke:#3a3a42;stroke-miterlimit:10;stroke-width:0.67px;}.cls-17{fill:url(#radial-gradient-4);}</style><radialGradient id="radial-gradient" cx="627.14" cy="-518.8" r="91.19" gradientTransform="matrix(1, 0, 0, -2.92, 0, -1299.17)" gradientUnits="userSpaceOnUse"><stop offset="0" stop-color="#aa272f"/><stop offset="0.49" stop-color="#ad2830"/><stop offset="0.6" stop-color="#b92e36"/><stop offset="0.78" stop-color="#d83d45"/><stop offset="0.97" stop-color="#ff5058"/></radialGradient><radialGradient id="radial-gradient-2" cx="515.54" cy="-1357.8" r="102.75" gradientTransform="matrix(1, 0, 0, -1, 0, -943.07)" gradientUnits="userSpaceOnUse"><stop offset="0.35" stop-color="#592447"/><stop offset="0.54" stop-color="#562446"/><stop offset="0.7" stop-color="#4c2344"/><stop offset="0.84" stop-color="#3b213f"/><stop offset="0.98" stop-color="#231f39"/><stop offset="1" stop-color="#1e1e38"/></radialGradient><linearGradient id="linear-gradient" x1="525.31" y1="-1475.7" x2="525.31" y2="-1551.11" gradientTransform="matrix(1, 0, 0, -1, 0, -943.07)" gradientUnits="userSpaceOnUse"><stop offset="0.09" stop-color="#aa272f"/><stop offset="0.56" stop-color="#ff5058"/><stop offset="0.56" stop-color="#ff5358"/><stop offset="0.6" stop-color="#ff795c"/><stop offset="0.65" stop-color="#ff9a60"/><stop offset="0.7" stop-color="#ffb562"/><stop offset="0.75" stop-color="#ffca64"/><stop offset="0.81" stop-color="#ffd966"/><stop offset="0.89" stop-color="#ffe167"/><stop offset="1" stop-color="#ffe467"/></linearGradient><linearGradient id="linear-gradient-2" x1="524.32" y1="-1442.74" x2="524.32" y2="-1550.1" gradientTransform="matrix(1, 0, 0, -1, 0, -943.07)" gradientUnits="userSpaceOnUse"><stop offset="0.2" stop-color="#ffe467"/><stop offset="0.28" stop-color="#ffc264"/><stop offset="0.37" stop-color="#ff9f60"/><stop offset="0.47" stop-color="#ff825d"/><stop offset="0.57" stop-color="#ff6c5b"/><stop offset="0.69" stop-color="#ff5c59"/><stop offset="0.82" stop-color="#ff5358"/><stop offset="1" stop-color="#ff5058"/></linearGradient><linearGradient id="linear-gradient-3" x1="525.43" y1="-1408.58" x2="525.43" y2="-1509.24" gradientTransform="matrix(1, 0, 0, -1, 0, -943.07)" gradientUnits="userSpaceOnUse"><stop offset="0" stop-color="#ff5058"/><stop offset="0.03" stop-color="#ff615a"/><stop offset="0.11" stop-color="#ff845d"/><stop offset="0.2" stop-color="#ffa260"/><stop offset="0.29" stop-color="#ffba63"/><stop offset="0.4" stop-color="#ffcd65"/><stop offset="0.52" stop-color="#ffda66"/><stop offset="0.68" stop-color="#ffe267"/><stop offset="1" stop-color="#ffe467"/></linearGradient><radialGradient id="radial-gradient-3" cx="490.63" cy="-1001.59" r="84.11" gradientTransform="matrix(1, 0, 0, -1.27, 0, -1001.63)" gradientUnits="userSpaceOnUse"><stop offset="0" stop-color="#ff5058"/><stop offset="0.2" stop-color="#fa4e56"/><stop offset="0.43" stop-color="#ec474f"/><stop offset="0.67" stop-color="#d53c44"/><stop offset="0.92" stop-color="#b52c34"/><stop offset="1" stop-color="#aa272f"/></radialGradient><radialGradient id="radial-gradient-4" cx="489.86" cy="-1449.76" r="184.59" gradientTransform="matrix(1, 0, 0, -0.92, 0, -918.82)" gradientUnits="userSpaceOnUse"><stop offset="0.39" stop-color="#ff5058"/><stop offset="1" stop-color="#aa272f"/></radialGradient></defs><title>mixer_bird</title><g id="Layer_2" data-name="Layer 2"><rect id="bg" class="cls-1" width="1075.56" height="605"/><g id="bird"><g id="wing_left" data-name="wing left"><path id="wing_left-2" data-name="wing left-2" class="cls-2" d="M566.17,233.17c-9.63-51.56,83-83.24,102.53-135.62s12.12-48.68,12.12-48.68c34.34,23.6-5.06,105.84-14.93,125.09a.6.6,0,0,0,.27.81.6.6,0,0,0,.72-.14c17.34-19.24,20.66-31,31.6-56.92,9.53,21.48-23.05,70.31-34.84,86.78a.62.62,0,0,0,.09.86.61.61,0,0,0,.85-.09h0c32.46-32.48,30.24-52.36,30.24-39-.6,31.13-23.14,50-23.14,50,28,8.53,2.44,29.29,2.44,29.29,20.7,35.34-7.33,49.95-7.33,49.95,20.71,19.5-11,26.8-11,26.8,11,47.51-28,39-28,39-6.06,34.13-40.23,20.78-40.23,20.78C527.9,330.83,566.17,233.17,566.17,233.17Z"/><path id="wing_cap_left" data-name="wing cap left" class="cls-3" d="M591.21,179.78s18.31-10.55,23.15-4.87c6.5,7.71-14.65,30.46-14.65,30.46s22.57,3.17,23.14,11c.5,6.92-18.31,13.4-18.31,13.4s13.18,10.11,12.18,15.84c-.79,4.56-12.18,7.32-12.18,7.32s4.58,15.11,1.21,20.71c-4.19,7.05-21.84,2.76-21.84,2.76s1.43,13.37-2.53,15.51c-7.32,4-25.8-15.51-25.8-15.51,6.32-38.08,11.3-44.18,11.3-44.18C558.37,204.15,591.21,179.78,591.21,179.78Z"/></g><g id="body"><path id="body_main" data-name="body main" class="cls-4" d="M425.43,500.5c34.23,29.09,161.66,22.06,186.64-15.35,15.07-22.59-7-81.49-9.36-108.64-3.39-39.4-46.27-68.61-85.26-65.26l-36.93,3.19a71.24,71.24,0,0,0-64.45,77.41C418.41,419,404.77,482.92,425.43,500.5Z"/><path id="body_ruffle1" data-name="body ruffle1" class="cls-5" d="M673.27,608c-11.38-23.8-31.43-70-41.83-75.41-90.36,92.81-230.8,26.82-230.8,26.82L377.35,608Z"/><path id="body_ruffle2" data-name="body ruffle2" class="cls-6" d="M409.26,523.07l-28.6,58.31c-3.11,3.23,1,8.08,5.49,6.41l14.28-5.49c4.51-1.72,9.3,2.23,7.71,6.35-1.39,3.55,3.08,6.81,6.7,4.91l16.94-8.88a21.45,21.45,0,0,1,25.48,4.54l6.69,7.54a5,5,0,0,0,5.71,1.19l23.8-10.78a21.64,21.64,0,0,1,22,2.73L535.57,606a5,5,0,0,0,6.12,0l19.92-16.2a21.3,21.3,0,0,1,24.86-.77l19.39,13.07a4.82,4.82,0,0,0,6.63-1.1l9.85-15.16c4.9-7.58,15.63-10.45,24.81-6.62l15.49,6.46c4.32,1.83,8.29-2.6,5.49-6-6.08-7.17-33.23-73.75-45.57-80-83.23,83.25-213.3,23.4-213.3,23.4Z"/><path id="body_ruffle1-2" data-name="body ruffle1-2" class="cls-7" d="M417.64,487.42,390.89,542c-2.91,3,.92,7.56,5.06,6l13.38-5.09c4.21-1.62,8.7,2.1,7.22,5.95-1.3,3.33,2.87,6.37,6.28,4.59l15.87-8.33a20.13,20.13,0,0,1,23.8,4.27l6.26,7.06a4.68,4.68,0,0,0,5.35,1.1l22.32-10.09a20.25,20.25,0,0,1,20.63,2.57l19,15.12a4.67,4.67,0,0,0,5.73,0L560.44,550a20,20,0,0,1,23.28-.73l18.15,12.18a4.54,4.54,0,0,0,6.21-1l9.15-14.21c4.61-7.1,14.65-9.79,23.25-6.2L655,546.07c4,1.68,7.76-2.44,5.07-5.62-5.67-6.74-31.12-69.1-42.66-74.94-77.92,78-199.77,21.91-199.77,21.91Z"/></g><g id="head"><path id="head_ruffle" data-name="head ruffle" class="cls-8" d="M445.42,326.47l-25.63,24.7a2.71,2.71,0,0,0,3,4.34l8.36-4a3.31,3.31,0,0,1,4.38,4.28,2.66,2.66,0,0,0,3.83,3.3l9.94-6.41A10.81,10.81,0,0,1,464,355.45l3.79,5.13a2.53,2.53,0,0,0,3.3.71L485,353.47A10.78,10.78,0,0,1,497.84,355l11.51,10.82a2.56,2.56,0,0,0,3.56,0l11.75-11.51a10.85,10.85,0,0,1,14.43-.92l11.07,8.7a2.59,2.59,0,0,0,3.62-.48,2.26,2.26,0,0,0,.25-.38l5.89-10.64a11.1,11.1,0,0,1,14.49-5l8.89,4.23a2.77,2.77,0,0,0,3.23-4.23c-3.43-4.89-18.11-11.54-21.32-19.92Z"/><path id="head_main" data-name="head main" class="cls-9" d="M453.29,314.59l-16.18,18.85a2.14,2.14,0,0,0,.24,3,2.17,2.17,0,0,0,2.25.34l6.77-3a2.66,2.66,0,0,1,3.66,3.32,2.16,2.16,0,0,0,3.13,2.56l8-4.87a9.16,9.16,0,0,1,12,2.2l3.09,3.95a2.11,2.11,0,0,0,2.67.57l11.3-5.93a9.14,9.14,0,0,1,10.34,1.26l9.41,8.39a2.17,2.17,0,0,0,2.9,0l9.48-8.77a9.15,9.15,0,0,1,11.7-.63l9,6.74a2.14,2.14,0,0,0,3-.47l.12-.17,4.72-8.15a9.17,9.17,0,0,1,11.72-3.66l7.32,3.32a2.16,2.16,0,0,0,2.83-1.1,2.14,2.14,0,0,0-.25-2.14c-10-13.35-25.28-44.17-.42-87.89-50.82-84.07-123.44-31.49-119.26,1.83a24.51,24.51,0,0,1-5.06,19.05c-6,7.06-17.21,11.64-37.91-1.51a1.12,1.12,0,0,0-1.56,1.51c11,19.16,32,22.19,44.18,22.19a1.08,1.08,0,0,1,.22,2.12,49.27,49.27,0,0,1-31.4-2.45,1.11,1.11,0,0,0-1.5.49,1.13,1.13,0,0,0,.25,1.34c12.62,12.39,25,13.93,31.35,13.71a1.06,1.06,0,0,1,1.1,1,1,1,0,0,1-.59,1c-8,4.07-17.43,3.43-22.23,2.71a1.1,1.1,0,0,0-1.19,1,1.06,1.06,0,0,0,.28.83c8.15,8.12,18.31,7.15,23.53,5.88a1.06,1.06,0,0,1,1,1.08,1,1,0,0,1-.13.5Z"/><path id="mouth" class="cls-10" d="M563.86,268.12c-4.89,11,11.68,16.13,11.68,16.13a29.86,29.86,0,0,1-30-12.47C544.36,266.89,563.86,268.12,563.86,268.12Z"/><path id="face" class="cls-8" d="M558.46,227.84c54.58,25.92,49.71,53.09,45.68,62.87a2.2,2.2,0,0,1-2.88,1.17,2.13,2.13,0,0,1-1-.88C582.81,262.08,572,269.42,572,269.42a35.47,35.47,0,0,1-25.14-.31c3.37,14.37,20.14,15.12,27.76,14.64a1.1,1.1,0,0,1,.69,2c-26.05,18.93-58,1.94-72.92-8.26a42.87,42.87,0,0,1-16.06-19.7c-13.79-35.37,39.89-42.56,56.43-25.63a13.79,13.79,0,0,0,5.49,3.66c10.44,3.35,10.2-8,10.2-8Z"/><ellipse id="cere" class="cls-11" cx="558.5" cy="233.21" rx="4.63" ry="6.61" transform="translate(-25.1 393.59) rotate(-38.03)"/><ellipse id="nostril" class="cls-12" cx="584.07" cy="260.46" rx="1.23" ry="1.83" transform="translate(254.66 808.61) rotate(-83.03)"/><g id="eye"><ellipse id="eye_main" data-name="eye main" class="cls-12" cx="515.87" cy="255.3" rx="10.94" ry="13.37" transform="translate(200.35 736.7) rotate(-83.09)"/><g id="eye_highlights" data-name="eye highlights"><circle id="eye_highlight2" data-name="eye highlight2" class="cls-13" cx="512.37" cy="249.24" r="3.66"/><circle id="eye_highlight1" data-name="eye highlight1" class="cls-13" cx="523.2" cy="256.09" r="1.83"/></g></g></g><g id="microphone"><path id="microphone_head" data-name="microphone head" class="cls-14" d="M573.33,336.85c5.49-5.38,8.71-11,3.18-16.39l-3.18-3.13a14.43,14.43,0,0,0-20,0,13.55,13.55,0,0,0-.36,19.16l.36.36,3.21,3.11C562,345.36,567.8,342.23,573.33,336.85Z"/><path id="microphone_body" data-name="microphone body" class="cls-14" d="M625.34,387.58c2.84-2.78,4.56-5.71,1.83-8.62l-46.39-48.81c-3.9-4.18-5.77.37-9.87,4.36s-8.74,5.82-4.47,9.61l50.06,45.3C619.48,392,622.48,390.37,625.34,387.58Z"/><path id="microphone_head_line" data-name="microphone head line" class="cls-15" d="M555.86,339.34c-2.4-2.34.38-8.37,5.91-13.75s11.7-8.11,14.1-5.77l-1.65-1.61c-2.4-2.34-8.58.37-14.11,5.77s-8.3,11.41-5.9,13.75Z"/><path id="microphone_body_line" data-name="microphone body line" class="cls-15" d="M566.51,344.27c-1.94-1.84.57-5.75,4.54-9.64s7.93-6.31,9.87-4.41l-1.33-1.3c-1.94-1.83-5.9.53-9.87,4.41s-6.48,7.75-4.54,9.64Z"/><path id="microphone_body_line2" data-name="microphone body line2" class="cls-16" d="M573.4,350.05c-1.74-1.7,0-6,3.66-9.7s8.2-5.26,9.94-3.57"/></g><g id="wing_right" data-name="wing right"><path id="wing_main_right" data-name="wing main right" class="cls-17" d="M594.55,383.63c6.77,11.88-25.33,32.5-33,36.75a1,1,0,0,0,0,1.83c6.83,4.46,26.64-2.95,27.26-3.57,5.49,11.59-27.9,37-36.18,44.82a2.09,2.09,0,0,0,0,3l0,0c2.4,2.47,6.37,8.84,3.33,11.88-3.66,3.66-13.14,4.14-20.94,4.62a1.82,1.82,0,0,0-1.68,1.83c0,7.43-4.78,16.13-8.3,20.26a11,11,0,0,1-8.05,3.5c-10.37.9-27.8-4.21-31.59-4.48a2.07,2.07,0,0,0-2,1c-1.83,3.37-7.65,13-11.55,13.47-5,.59-15.14-9.88-18.44-13.45a2.07,2.07,0,0,0-2.45-.46c-4.25,2.12-17,8.11-21.75,6.61-6.89-2.16-17.07-20.14-19.94-25.36a2.09,2.09,0,0,0-2.34-1c-3.5.86-11.76,2.62-14.27.8s-3.42-11.22-3.66-13.89a2.15,2.15,0,0,0-.55-1.27c-41.58-45,28.53-100.59,28.53-100.59C421.93,385.77,545,435.74,598,308.42c17.13,8.2-32.3,68.84-32.3,68.84s16.48-10.36,36.62-34.13c9.85,8.55-18.15,36.78-31.88,49.6a.87.87,0,0,0-.17,1.23.88.88,0,0,0,1.23.18h0s10.57-.53,23.06-10.51Z"/><path id="wing_cap_right" data-name="wing cap right" class="cls-11" d="M393.62,394.08c-4.61,19.63,11.23,13.53,11.23,13.53,3.66,25.64,26.8,7.33,26.8,7.33,16.48,16.48,26.8-1.23,26.8-1.23,25.64,9.74,13.41-9.74,13.41-9.74,28.69,4.58,28.45-11.72,12.34-11.77a90.89,90.89,0,0,1-12.67-.59c-45.35-6.53-54.49-23-54.49-23-17.06,7.31-23.42,25.45-23.42,25.45Z"/></g></g></g></svg>