<svg xmlns="http://www.w3.org/2000/svg" xmlns:xlink="http://www.w3.org/1999/xlink" viewBox="0 0 1075.56 605"><defs><style>.cls-1,.cls-2,.cls-35{fill:none;}.cls-2{stroke:#231f28;stroke-width:5.76px;}.cls-3{fill:#209895;}.cls-4{fill:url(#radial-gradient);}.cls-5{clip-path:url(#clip-path);}.cls-6{fill:url(#_10_lpi_80_3);}.cls-7{fill:url(#_10_lpi_80_3-3);}.cls-8{fill:url(#_10_lpi_80_3-5);}.cls-9{fill:url(#_10_lpi_80_3-7);}.cls-10{fill:url(#_10_lpi_80_3-9);}.cls-11{fill:url(#_10_lpi_80_3-11);}.cls-12{fill:url(#linear-gradient);}.cls-13{fill:url(#linear-gradient-2);}.cls-14{fill:url(#linear-gradient-3);}.cls-15{fill:url(#linear-gradient-4);}.cls-16{fill:url(#radial-gradient-2);}.cls-17{fill:url(#linear-gradient-5);}.cls-18{fill:url(#linear-gradient-6);}.cls-19{fill:url(#linear-gradient-7);}.cls-20{fill:url(#radial-gradient-3);}.cls-21{fill:url(#radial-gradient-4);}.cls-22{fill:url(#radial-gradient-5);}.cls-23{fill:#056574;}.cls-24{fill:url(#linear-gradient-8);}.cls-25{fill:url(#linear-gradient-9);}.cls-26{fill:url(#linear-gradient-10);}.cls-27{isolation:isolate;font-size:31.11px;fill:#ffe03d;font-family:CooperBlack, Cooper Black;}.cls-28{fill:url(#linear-gradient-11);}.cls-29{fill:url(#linear-gradient-12);}.cls-30{fill:#231413;}.cls-31{fill:#592447;}.cls-32{fill:url(#linear-gradient-13);}.cls-33{fill:#fff;}.cls-34{fill:#3a3a42;}.cls-35{stroke:#3a3a42;stroke-miterlimit:10;stroke-width:0.67px;}.cls-36{fill:url(#radial-gradient-6);}.cls-37{fill:url(#linear-gradient-14);}.cls-38{fill:url(#linear-gradient-15);}.cls-39{fill:url(#linear-gradient-16);}.cls-40{fill:url(#linear-gradient-17);}</style><radialGradient id="radial-gradient" cx="491.56" cy="-1279.89" r="132.61" gradientTransform="matrix(0.99, -0.16, -0.2, -1.23, -64.86, -1100.49)" gradientUnits="userSpaceOnUse"><stop offset="0.1" stop-color="#ede4a7"/><stop offset="0.32" stop-color="#ede0a5"/><stop offset="0.53" stop-color="#efd59f"/><stop offset="0.72" stop-color="#f1c395"/><stop offset="0.91" stop-color="#f4a987"/><stop offset="1" stop-color="#f6997f"/></radialGradient><clipPath id="clip-path"><path class="cls-1" d="M679.67,592.42c161.63-213.87-68.49-301.2-13.31-335.71,6.7-4.2,12.13-10.27,12.25-18,.23-15.91-15-24.87-31.5-24a41.81,41.81,0,0,0-28.54,14c-38,41.79,31.11,82.79,46.08,100.64,105.74,134.77-1.21,237.91-1.21,237.91Z"/></clipPath><pattern id="_10_lpi_80_3" data-name=" 10 lpi 80 3" width="72" height="72" patternTransform="matrix(0.71, -0.4, -0.66, -1.02, 48.72, 637.05)" patternUnits="userSpaceOnUse" viewBox="0 0 72 72"><rect class="cls-1" width="72" height="72"/><path class="cls-1" d="M0,72H72V0H0Z"/><path class="cls-2" d="M71.75,3.6h72.5M71.75,18h72.5M71.75,32.4h72.5M71.75,46.8h72.5M71.75,61.2h72.5M71.75,10.8h72.5M71.75,25.2h72.5M71.75,39.6h72.5M71.75,54h72.5M71.75,68.4h72.5M-.25,3.6h72.5M-.25,18h72.5M-.25,32.4h72.5M-.25,46.8h72.5M-.25,61.2h72.5M-.25,10.8h72.5M-.25,25.2h72.5M-.25,39.6h72.5M-.25,54h72.5M-.25,68.4h72.5M-72.25,3.6H.25M-72.25,18H.25m-72.5,14.4H.25m-72.5,14.4H.25m-72.5,14.4H.25m-72.5-50.4H.25m-72.5,14.4H.25m-72.5,14.4H.25M-72.25,54H.25m-72.5,14.4H.25"/></pattern><pattern id="_10_lpi_80_3-3" data-name=" 10 lpi 80 3-3" width="72" height="72" patternTransform="matrix(0.84, -0.36, -0.52, -1.1, 10.94, 505.09)" patternUnits="userSpaceOnUse" viewBox="0 0 72 72"><rect class="cls-1" width="72" height="72"/><path class="cls-1" d="M0,72H72V0H0Z"/><path class="cls-2" d="M71.75,3.6h72.5M71.75,18h72.5M71.75,32.4h72.5M71.75,46.8h72.5M71.75,61.2h72.5M71.75,10.8h72.5M71.75,25.2h72.5M71.75,39.6h72.5M71.75,54h72.5M71.75,68.4h72.5M-.25,3.6h72.5M-.25,18h72.5M-.25,32.4h72.5M-.25,46.8h72.5M-.25,61.2h72.5M-.25,10.8h72.5M-.25,25.2h72.5M-.25,39.6h72.5M-.25,54h72.5M-.25,68.4h72.5M-72.25,3.6H.25M-72.25,18H.25m-72.5,14.4H.25m-72.5,14.4H.25m-72.5,14.4H.25m-72.5-50.4H.25m-72.5,14.4H.25m-72.5,14.4H.25M-72.25,54H.25m-72.5,14.4H.25"/></pattern><pattern id="_10_lpi_80_3-5" data-name=" 10 lpi 80 3-5" width="72" height="72" patternTransform="matrix(1.03, -0.46, -0.5, -1.1, -131.17, 399.22)" patternUnits="userSpaceOnUse" viewBox="0 0 72 72"><rect class="cls-1" width="72" height="72"/><path class="cls-1" d="M0,72H72V0H0Z"/><path class="cls-2" d="M71.75,3.6h72.5M71.75,18h72.5M71.75,32.4h72.5M71.75,46.8h72.5M71.75,61.2h72.5M71.75,10.8h72.5M71.75,25.2h72.5M71.75,39.6h72.5M71.75,54h72.5M71.75,68.4h72.5M-.25,3.6h72.5M-.25,18h72.5M-.25,32.4h72.5M-.25,46.8h72.5M-.25,61.2h72.5M-.25,10.8h72.5M-.25,25.2h72.5M-.25,39.6h72.5M-.25,54h72.5M-.25,68.4h72.5M-72.25,3.6H.25M-72.25,18H.25m-72.5,14.4H.25m-72.5,14.4H.25m-72.5,14.4H.25m-72.5-50.4H.25m-72.5,14.4H.25m-72.5,14.4H.25M-72.25,54H.25m-72.5,14.4H.25"/></pattern><pattern id="_10_lpi_80_3-7" data-name=" 10 lpi 80 3-7" width="72" height="72" patternTransform="matrix(1.11, 0.16, 0.16, -1.2, -265.12, 664.74)" patternUnits="userSpaceOnUse" viewBox="0 0 72 72"><rect class="cls-1" width="72" height="72"/><path class="cls-1" d="M0,72H72V0H0Z"/><path class="cls-2" d="M71.75,3.6h72.5M71.75,18h72.5M71.75,32.4h72.5M71.75,46.8h72.5M71.75,61.2h72.5M71.75,10.8h72.5M71.75,25.2h72.5M71.75,39.6h72.5M71.75,54h72.5M71.75,68.4h72.5M-.25,3.6h72.5M-.25,18h72.5M-.25,32.4h72.5M-.25,46.8h72.5M-.25,61.2h72.5M-.25,10.8h72.5M-.25,25.2h72.5M-.25,39.6h72.5M-.25,54h72.5M-.25,68.4h72.5M-72.25,3.6H.25M-72.25,18H.25m-72.5,14.4H.25m-72.5,14.4H.25m-72.5,14.4H.25m-72.5-50.4H.25m-72.5,14.4H.25m-72.5,14.4H.25M-72.25,54H.25m-72.5,14.4H.25"/></pattern><pattern id="_10_lpi_80_3-9" data-name=" 10 lpi 80 3-9" width="72" height="72" patternTransform="matrix(1.11, 0.16, 0.16, -1.2, -280.42, 630.14)" patternUnits="userSpaceOnUse" viewBox="0 0 72 72"><rect class="cls-1" width="72" height="72"/><path class="cls-1" d="M0,72H72V0H0Z"/><path class="cls-2" d="M71.75,3.6h72.5M71.75,18h72.5M71.75,32.4h72.5M71.75,46.8h72.5M71.75,61.2h72.5M71.75,10.8h72.5M71.75,25.2h72.5M71.75,39.6h72.5M71.75,54h72.5M71.75,68.4h72.5M-.25,3.6h72.5M-.25,18h72.5M-.25,32.4h72.5M-.25,46.8h72.5M-.25,61.2h72.5M-.25,10.8h72.5M-.25,25.2h72.5M-.25,39.6h72.5M-.25,54h72.5M-.25,68.4h72.5M-72.25,3.6H.25M-72.25,18H.25m-72.5,14.4H.25m-72.5,14.4H.25m-72.5,14.4H.25m-72.5-50.4H.25m-72.5,14.4H.25m-72.5,14.4H.25M-72.25,54H.25m-72.5,14.4H.25"/></pattern><pattern id="_10_lpi_80_3-11" data-name=" 10 lpi 80 3-11" width="72" height="72" patternTransform="matrix(0.74, -0.43, -0.65, -1.02, 14.31, 621.82)" patternUnits="userSpaceOnUse" viewBox="0 0 72 72"><rect class="cls-1" width="72" height="72"/><path class="cls-1" d="M0,72H72V0H0Z"/><path class="cls-2" d="M71.75,3.6h72.5M71.75,18h72.5M71.75,32.4h72.5M71.75,46.8h72.5M71.75,61.2h72.5M71.75,10.8h72.5M71.75,25.2h72.5M71.75,39.6h72.5M71.75,54h72.5M71.75,68.4h72.5M-.25,3.6h72.5M-.25,18h72.5M-.25,32.4h72.5M-.25,46.8h72.5M-.25,61.2h72.5M-.25,10.8h72.5M-.25,25.2h72.5M-.25,39.6h72.5M-.25,54h72.5M-.25,68.4h72.5M-72.25,3.6H.25M-72.25,18H.25m-72.5,14.4H.25m-72.5,14.4H.25m-72.5,14.4H.25m-72.5-50.4H.25m-72.5,14.4H.25m-72.5,14.4H.25M-72.25,54H.25m-72.5,14.4H.25"/></pattern><linearGradient id="linear-gradient" x1="553.05" y1="-1226.7" x2="553.05" y2="-1551.03" gradientTransform="matrix(1, 0, 0, -1, 0, -943.07)" gradientUnits="userSpaceOnUse"><stop offset="0.44" stop-color="#592447"/><stop offset="1" stop-color="#1e1e38"/></linearGradient><linearGradient id="linear-gradient-2" x1="551.54" y1="-1445.74" x2="539.04" y2="-1516.71" gradientTransform="matrix(1, 0, 0, -1, 0, -943.07)" gradientUnits="userSpaceOnUse"><stop offset="0" stop-color="#8a8881"/><stop offset="0.01" stop-color="#8c8d84"/><stop offset="0.07" stop-color="#98a592"/><stop offset="0.14" stop-color="#a2b89d"/><stop offset="0.22" stop-color="#a8c5a4"/><stop offset="0.33" stop-color="#accda9"/><stop offset="0.54" stop-color="#adcfaa"/><stop offset="0.75" stop-color="#adcfaa"/><stop offset="0.79" stop-color="#adcfaa"/><stop offset="0.85" stop-color="#abcba8"/><stop offset="0.9" stop-color="#a6c0a1"/><stop offset="0.95" stop-color="#9cad97"/><stop offset="1" stop-color="#8f9387"/><stop offset="1" stop-color="#8e9186"/></linearGradient><linearGradient id="linear-gradient-3" x1="434.38" y1="-1243.17" x2="434.38" y2="-1369.99" gradientTransform="matrix(1, 0, 0, -1, 0, -943.07)" gradientUnits="userSpaceOnUse"><stop offset="0.12" stop-color="#8a8881"/><stop offset="0.14" stop-color="#8e9186"/><stop offset="0.21" stop-color="#9cac96"/><stop offset="0.28" stop-color="#a5bfa1"/><stop offset="0.35" stop-color="#abcba8"/><stop offset="0.42" stop-color="#adcfaa"/><stop offset="0.74" stop-color="#adcfaa"/><stop offset="0.79" stop-color="#adcfaa"/><stop offset="0.85" stop-color="#a7c4a3"/><stop offset="0.94" stop-color="#98a692"/><stop offset="1" stop-color="#8e9186"/></linearGradient><linearGradient id="linear-gradient-4" x1="349.15" y1="-1327.75" x2="442" y2="-1327.75" gradientTransform="matrix(1, 0, 0, -1, 0, -943.07)" gradientUnits="userSpaceOnUse"><stop offset="0.15" stop-color="#43846c"/><stop offset="0.31" stop-color="#437763"/><stop offset="0.71" stop-color="#415b4f"/><stop offset="0.95" stop-color="#415048"/></linearGradient><radialGradient id="radial-gradient-2" cx="383.61" cy="-1326.36" fx="396.91782802320705" fy="-1313.7587242970574" r="52.97" gradientTransform="matrix(1, 0, 0, -1, 0, -943.07)" gradientUnits="userSpaceOnUse"><stop offset="0.26" stop-color="#ede4a7"/><stop offset="1" stop-color="#fa766c"/></radialGradient><linearGradient id="linear-gradient-5" x1="398.18" y1="-1353.84" x2="409.97" y2="-1347.04" gradientTransform="matrix(1, 0, 0, -1, 0, -943.07)" gradientUnits="userSpaceOnUse"><stop offset="0.62"/><stop offset="0.65" stop-color="#0f0f0f"/><stop offset="0.72" stop-color="#363636"/><stop offset="0.82" stop-color="#767676"/><stop offset="0.94" stop-color="#cdcdcd"/><stop offset="1" stop-color="#fff"/></linearGradient><linearGradient id="linear-gradient-6" x1="418.61" y1="-1333.91" x2="430.4" y2="-1327.09" xlink:href="#linear-gradient-5"/><linearGradient id="linear-gradient-7" x1="377.73" y1="-1373.74" x2="389.53" y2="-1366.93" xlink:href="#linear-gradient-5"/><radialGradient id="radial-gradient-3" cx="537.86" cy="-1302.28" r="29.67" gradientTransform="matrix(1, 0, 0, -1, 0, -943.07)" gradientUnits="userSpaceOnUse"><stop offset="0" stop-color="#056574"/><stop offset="0.54" stop-color="#ff5058"/><stop offset="0.92" stop-color="#fd5058"/><stop offset="0.93" stop-color="#f75159"/><stop offset="0.94" stop-color="#e6525b"/><stop offset="0.96" stop-color="#cb545e"/><stop offset="0.97" stop-color="#a45862"/><stop offset="0.98" stop-color="#725c68"/><stop offset="1" stop-color="#39616e"/></radialGradient><radialGradient id="radial-gradient-4" cx="515.45" cy="-1254.51" r="85.22" gradientTransform="matrix(1, 0, 0, -0.99, 0, -940.47)" gradientUnits="userSpaceOnUse"><stop offset="0" stop-color="#afd3ac"/><stop offset="0" stop-color="#aacfaa"/><stop offset="0.03" stop-color="#83b79e"/><stop offset="0.07" stop-color="#61a092"/><stop offset="0.11" stop-color="#448e89"/><stop offset="0.15" stop-color="#2d7f81"/><stop offset="0.2" stop-color="#1b737b"/><stop offset="0.25" stop-color="#0e6b77"/><stop offset="0.33" stop-color="#076675"/><stop offset="0.5" stop-color="#056574"/><stop offset="0.72" stop-color="#076675"/><stop offset="0.79" stop-color="#0e6b77"/><stop offset="0.85" stop-color="#19727b"/><stop offset="0.9" stop-color="#2a7d80"/><stop offset="0.93" stop-color="#408b88"/><stop offset="0.97" stop-color="#5b9c90"/><stop offset="1" stop-color="#7ab19b"/><stop offset="1" stop-color="#7eb39c"/></radialGradient><radialGradient id="radial-gradient-5" cx="454.34" cy="-1272.98" r="29.67" gradientTransform="matrix(1, 0, 0, -1, 0, -943.07)" gradientUnits="userSpaceOnUse"><stop offset="0" stop-color="#056574"/><stop offset="0.09" stop-color="#056574"/><stop offset="0.29" stop-color="#705c68"/><stop offset="0.54" stop-color="#ff5058"/><stop offset="0.8" stop-color="#fd5058"/><stop offset="0.85" stop-color="#f85059"/><stop offset="0.9" stop-color="#e9525a"/><stop offset="0.96" stop-color="#d1545d"/><stop offset="1" stop-color="#ba565f"/></radialGradient><linearGradient id="linear-gradient-8" x1="685.78" y1="-1347.28" x2="600.82" y2="-1355.71" xlink:href="#linear-gradient-3"/><linearGradient id="linear-gradient-9" x1="598.37" y1="-1140.88" x2="461.81" y2="-1219.72" gradientTransform="matrix(1, 0, 0, -1, 0, -943.07)" gradientUnits="userSpaceOnUse"><stop offset="0" stop-color="#ede4a7"/><stop offset="0.44" stop-color="#ede2a6"/><stop offset="0.6" stop-color="#eedba2"/><stop offset="0.71" stop-color="#efd09c"/><stop offset="0.8" stop-color="#f1bf93"/><stop offset="0.88" stop-color="#f4a987"/><stop offset="0.95" stop-color="#f78e79"/><stop offset="1" stop-color="#fa766c"/></linearGradient><linearGradient id="linear-gradient-10" x1="513.97" y1="-1093.88" x2="513.97" y2="-1167.08" gradientTransform="matrix(1, 0, 0, -1, 0, -943.07)" gradientUnits="userSpaceOnUse"><stop offset="0" stop-color="#43846c"/><stop offset="0.29" stop-color="#44816b"/><stop offset="0.48" stop-color="#467868"/><stop offset="0.64" stop-color="#496962"/><stop offset="0.78" stop-color="#4e545a"/><stop offset="0.92" stop-color="#54394f"/><stop offset="1" stop-color="#592447"/></linearGradient><linearGradient id="linear-gradient-11" x1="473.91" y1="-1156.52" x2="473.91" y2="-1101.79" gradientTransform="matrix(1, 0, 0, -1, 0, -943.07)" gradientUnits="userSpaceOnUse"><stop offset="0"/><stop offset="0.01" stop-color="#020102"/><stop offset="0.08" stop-color="#1d0c17"/><stop offset="0.16" stop-color="#331529"/><stop offset="0.26" stop-color="#441c36"/><stop offset="0.39" stop-color="#502040"/><stop offset="0.56" stop-color="#572345"/><stop offset="1" stop-color="#592447"/></linearGradient><linearGradient id="linear-gradient-12" x1="533.92" y1="-1170.76" x2="597.4" y2="-1170.76" gradientTransform="matrix(1, 0, 0, -1, 0, -943.07)" gradientUnits="userSpaceOnUse"><stop offset="0.2" stop-color="#ede4a7"/><stop offset="0.39" stop-color="#ede1a5"/><stop offset="0.53" stop-color="#efd7a0"/><stop offset="0.67" stop-color="#f1c697"/><stop offset="0.8" stop-color="#f3ae8a"/><stop offset="0.92" stop-color="#f7907a"/><stop offset="1" stop-color="#fa766c"/></linearGradient><linearGradient id="linear-gradient-13" x1="479.71" y1="-1191.72" x2="476.99" y2="-1139.61" gradientTransform="matrix(1, 0, 0, -1, 0, -943.07)" gradientUnits="userSpaceOnUse"><stop offset="0" stop-color="#707070"/><stop offset="0.01" stop-color="#676767"/><stop offset="0.07" stop-color="#424242"/><stop offset="0.14" stop-color="#252525"/><stop offset="0.2" stop-color="#111"/><stop offset="0.26" stop-color="#040404"/><stop offset="0.32"/><stop offset="0.53" stop-color="#020202"/><stop offset="0.6" stop-color="#090909"/><stop offset="0.66" stop-color="#141414"/><stop offset="0.7" stop-color="#252525"/><stop offset="0.74" stop-color="#3b3b3b"/><stop offset="0.77" stop-color="#575757"/><stop offset="0.8" stop-color="#777"/><stop offset="0.83" stop-color="#9d9d9d"/><stop offset="0.85" stop-color="#c8c8c8"/><stop offset="0.88" stop-color="#f6f6f6"/><stop offset="0.88" stop-color="#fff"/><stop offset="0.91" stop-color="#b0b0b0"/><stop offset="0.94" stop-color="#686868"/><stop offset="0.97" stop-color="#353535"/><stop offset="0.99" stop-color="#151515"/><stop offset="1" stop-color="#090909"/></linearGradient><radialGradient id="radial-gradient-6" cx="501.16" cy="-1308.04" r="40.92" gradientTransform="matrix(1, 0, 0, -1, 0, -943.07)" gradientUnits="userSpaceOnUse"><stop offset="0.2" stop-color="#ede4a7"/><stop offset="0.45" stop-color="#ede2a6"/><stop offset="0.59" stop-color="#eed9a1"/><stop offset="0.7" stop-color="#f0cb9a"/><stop offset="0.8" stop-color="#f2b78f"/><stop offset="0.9" stop-color="#f59d81"/><stop offset="0.98" stop-color="#f97e70"/><stop offset="1" stop-color="#fa766c"/></radialGradient><linearGradient id="linear-gradient-14" x1="475.36" y1="-1292.46" x2="486.51" y2="-1286.02" gradientTransform="matrix(1, 0, 0, -1, 0, -943.07)" gradientUnits="userSpaceOnUse"><stop offset="0" stop-color="#fff"/><stop offset="0" stop-color="#fefefe"/><stop offset="0.09" stop-color="#b2b2b2"/><stop offset="0.17" stop-color="#737373"/><stop offset="0.24" stop-color="#414141"/><stop offset="0.3" stop-color="#1e1e1e"/><stop offset="0.35" stop-color="#080808"/><stop offset="0.38"/></linearGradient><linearGradient id="linear-gradient-15" x1="454.92" y1="-1307.69" x2="466.09" y2="-1301.25" xlink:href="#linear-gradient-14"/><linearGradient id="linear-gradient-16" x1="495.77" y1="-1277.21" x2="506.94" y2="-1270.77" xlink:href="#linear-gradient-14"/><linearGradient id="linear-gradient-17" x1="600.93" y1="-1362.38" x2="561.44" y2="-1430.76" xlink:href="#linear-gradient-4"/></defs><title>mixer_tiger</title><g id="Layer_2" data-name="Layer 2"><rect id="bg" class="cls-3" width="1075.56" height="605"/><g id="tiger"><g id="tail"><path id="tail_main" data-name="tail main" class="cls-4" d="M679.67,592.42c161.63-213.87-68.49-301.2-13.31-335.71,6.7-4.2,12.13-10.27,12.25-18,.23-15.91-15-24.87-31.5-24a41.81,41.81,0,0,0-28.54,14c-38,41.79,31.11,82.79,46.08,100.64,105.74,134.77-1.21,237.91-1.21,237.91Z"/><g class="cls-5"><g id="stripes"><g id="stripe_pattern" data-name="stripe pattern"><path class="cls-6" d="M687.65,316.75l-24.91,14.7,8.89,12.65,28.23-12-12.21-15.32Z"/><path class="cls-7" d="M719.63,364.4l-32.3,10.42,6.42,16.51,34.57-10.25Z"/><path class="cls-8" d="M740.31,418.74l-39,14,6,16.74,41.65-14-8.68-16.7Z"/><path class="cls-9" d="M739.67,488.66l-40.46-8.77-3.77,17.38,42.74,10.15Z"/><path class="cls-10" d="M709.93,555.93l-40.46-8.75-3.77,17.36,42.73,10.15Z"/><path class="cls-11" d="M658.58,274.13,620.69,290.7l15,14.6s.58-.72,29.74-15.69C663,287.27,658.58,274.13,658.58,274.13Z"/></g></g></g></g><path id="body_main-2" data-name="body main-2" class="cls-12" d="M690.62,583.77a14.9,14.9,0,0,0-2.94-2.78c-.56-5.84-3.75-12.7-10.88-20.92,0,0-44.6-33.6-39-238.77-112-98.5-223.82,26.85-225.53,30.54,0,0,21,44.33,30.46,87.26a108.6,108.6,0,0,1-4.1,60.27c-4.51,12.52-8.71,28.77-6.47,41.86a20.82,20.82,0,0,0,3.13,7.44c.91,1.48,1,5-5,13,0,0-5.25,9.24-1.75,19.05A14.89,14.89,0,0,0,436.74,608H679a14.88,14.88,0,0,0,11.63-24.18Z"/><path id="body_pocket" data-name="body pocket" class="cls-13" d="M459.8,497.15c-4.25,20.63-.89,46.55.24,54a3.88,3.88,0,0,0,2.27,3c61.28,27,141,20.06,167.2,16.76a3.89,3.89,0,0,0,2.61-6.19c-9.08-11.66-11.3-37.33-11.78-46a3.89,3.89,0,0,0-3.15-3.55c-112.09-23-145.35-22.25-154.06-21.06A3.89,3.89,0,0,0,459.8,497.15Z"/><path id="upperarm_left" data-name="upperarm left" class="cls-14" d="M381.57,417.75a32.83,32.83,0,0,1-2.05-46.39c.25-.29.52-.56.78-.84l58.47-60a34.88,34.88,0,0,1,48.43-1.25,32.86,32.86,0,0,1,2.05,46.4c-.26.28-.52.56-.79.83l-58.46,60a34.89,34.89,0,0,1-48.43,1.24Z"/><path id="lowerarm_left" data-name="lowerarm left" class="cls-15" d="M355.94,358.47l10.79-11c10-10.33,27.59-10,39.18.77l26.5,24.5c11.66,10.75,12.81,27.82,2.76,38.13L424.4,421.91c-10.07,10.3-27.61,10-39.2-.78L358.7,396.6C347.14,385.85,345.89,368.83,355.94,358.47Z"/><g id="hand_left" data-name="hand left"><path class="cls-16" d="M412.42,350.56a44.71,44.71,0,0,0-62.21,0,42.15,42.15,0,0,0-1.08,59.6l1.08,1.08,13.61,13.28a14,14,0,0,0,11.55,4l1-.15a16.1,16.1,0,0,0,11.22-8.81,14.13,14.13,0,0,0,.91-10.56L386.53,407c.52.25,1.05.48,1.61.7a15,15,0,0,0-.72-1.58l1.94,1.95a15.25,15.25,0,0,0,10.87-.92,16.23,16.23,0,0,0,7.78-7.54,14.24,14.24,0,0,0,.93-10.62l-2-1.94a13.5,13.5,0,0,0,1.61.7,13.15,13.15,0,0,0-.71-1.58l1.94,2a15.23,15.23,0,0,0,8.36,0A15.84,15.84,0,0,0,429.9,373v-.17a13,13,0,0,0-4-8.81Z"/><path class="cls-17" d="M405.36,397.88c3.78.68,6.32,13.61,6.32,13.61a1.16,1.16,0,0,1-.62,1.53,1.2,1.2,0,0,1-.93,0s-13.3-2.47-14-6.17C395.47,403.83,402.08,397.32,405.36,397.88Z"/><path class="cls-18" d="M425.72,378c3.77.66,6.32,13.61,6.32,13.61a1.17,1.17,0,0,1-.61,1.54,1.21,1.21,0,0,1-1,0s-13.27-2.47-14-6.15C415.9,383.84,422.51,377.39,425.72,378Z"/><path class="cls-19" d="M384.87,417.81c3.77.68,6.3,13.61,6.3,13.61a1.17,1.17,0,0,1-.62,1.53,1.16,1.16,0,0,1-.93,0s-13.3-2.48-14-6.16C375.05,423.68,381.65,417.24,384.87,417.81Z"/></g><g id="headphones"><ellipse id="headphones_right" data-name="headphones right" class="cls-20" cx="537.86" cy="359.21" rx="30.04" ry="29.3"/><path id="headphone_main" data-name="headphone main" class="cls-21" d="M544.26,357.32a7.3,7.3,0,0,0,8.4,6,7,7,0,0,0,2-.65c16.64-7.78,29.77-20.9,35.66-37.6,12.25-34.71-11.36-71.94-52.73-83.1s-84.87,7.78-97.11,42.54a56.38,56.38,0,0,0,1.4,41.12,8.62,8.62,0,0,0,11.25,4.73,8,8,0,0,0,1.17-.59,10.41,10.41,0,0,0,5-10.94A46.09,46.09,0,0,1,461.28,295c9.16-25.91,37.19-36.94,68.05-28.64s45.86,32,36.72,57.9a50.49,50.49,0,0,1-18.37,24.31,8.84,8.84,0,0,0-3.54,8.78Z"/><ellipse id="headphones_left" data-name="headphones left" class="cls-22" cx="454.34" cy="329.91" rx="30.04" ry="29.3"/><ellipse id="headphones_left_inside" data-name="headphones left inside" class="cls-23" cx="454.34" cy="329.91" rx="13.22" ry="12.89"/></g><path id="upperarm_right" data-name="upperarm right" class="cls-24" d="M639,502a34,34,0,0,1-36.74-30.79L593,353a33.68,33.68,0,0,1,31.42-35.82h.15A34,34,0,0,1,661.34,348L670.54,466a33.71,33.71,0,0,1-31.34,35.9Z"/><g id="head-2"><path id="head_main-2" data-name="head main-2" class="cls-25" d="M534.89,214.11c39.23-20.9,59.92,8.65,62.39,12.48a.73.73,0,0,1,0,.8c-11.51,15.94-19.17,19.44-21.83,20.18a.72.72,0,0,0-.52.88.7.7,0,0,0,.11.23l10.05,14.78a.74.74,0,0,1-.23,1,.71.71,0,0,1-.49.1l-7.78-.85a.74.74,0,0,0-.52,1.34l4.41,3a.75.75,0,0,1,.16,1,.8.8,0,0,1-.47.29l-2.43.44A23.37,23.37,0,0,0,564.67,277a286,286,0,0,0-32.29,41.7,24.89,24.89,0,0,1-11.22,9.82c-7.64,3.25-13.37,2.18-17.5-.12-4.8-2.68-8.53-7.64-8.3-13,1.36-31.11-28.23-53.25-28.27-53.23-50.82,9-11.49-71.75-2.06-73.42,44.53-10.09,66,20.59,68.91,25.28A.75.75,0,0,0,534.89,214.11Z"/><g id="hat"><path id="hat_main" data-name="hat main" class="cls-26" d="M572.2,224c.41-87-140.24-95.27-112.94-31.11C515.35,209.72,572.2,224,572.2,224Z"/><text class="cls-27" transform="translate(481.93 181.82)">T</text><path id="hat_flap" data-name="hat flap" class="cls-28" d="M526.16,211.8c-61.26-83.47-131.29-55.53-94.14-4.71A15.82,15.82,0,0,0,448.23,213C488.05,204.24,526.16,211.8,526.16,211.8Z"/></g><g id="ear"><path id="ear_main" data-name="ear main" class="cls-29" d="M533.92,213.88a.75.75,0,0,0,1,.23c39.23-20.9,59.92,8.65,62.39,12.48a.73.73,0,0,1,0,.8c-11.51,15.94-19.17,19.44-21.83,20.18a.72.72,0,0,0-.52.88.7.7,0,0,0,.11.23Z"/><path id="inside_ear" data-name="inside ear" class="cls-30" d="M559.83,227.76c20.88-6.1,20.51-1.28,20.51-1.28a24.25,24.25,0,0,1-9.06,4c3.78.53,1.6,2.1,1.6,2.1l-4.51,1.95"/></g><g id="whiskers"><g id="whiskers_left" data-name="whiskers left"><path class="cls-31" d="M439.76,252.69c-2.55,1.94-5.23,3.67-7.78,5.54s-5.23,3.67-7.68,5.62c-1.24.95-2.51,1.94-3.89,2.81l-3.69,2.94c-2.51,1.94-4.88,3.89-7.29,6-4.8,4-9.41,8.32-13.92,12.71s-8.83,9-12.95,13.87a76.48,76.48,0,0,1,10.73-15.93,121.47,121.47,0,0,1,13.61-13.61,129,129,0,0,1,15.55-11.27c2.69-1.75,5.58-3.17,8.38-4.71A86.85,86.85,0,0,1,439.76,252.69Zm-4.57-5.14c-2.74,1.36-5.54,2.53-8.3,3.76l-8.21,3.75c-2.68,1.36-5.46,2.49-8.09,3.89l-4,1.94-3.89,2.16c-5.25,2.86-10.36,5.93-15.3,9.27a110,110,0,0,0-14.11,11.16,55.68,55.68,0,0,1,12.28-13.61,99.82,99.82,0,0,1,15.26-10.26,119.9,119.9,0,0,1,16.71-7.43c2.85-1.05,5.83-1.94,8.71-2.74s5.95-1.34,8.94-1.89Zm-.66-3.46c-6.79.7-13.48,1.13-20.14,1.95s-13.3,1.73-19.89,2.89-13.15,2.55-19.68,4-13,3.24-19.56,5.17A97.39,97.39,0,0,1,374,250.06a143.25,143.25,0,0,1,40.16-7,115.77,115.77,0,0,1,20.38,1.07Z"/></g><g id="whiskers_right" data-name="whiskers right"><path class="cls-31" d="M482.76,247.42c3.19.11,6.4.29,9.59.64a84.46,84.46,0,0,1,9.49,1.53,125.54,125.54,0,0,1,18.53,5.2,121.45,121.45,0,0,1,17.49,8.08,78,78,0,0,1,15.56,11.26c-5.56-3.17-11.24-5.83-17-8.55A188,188,0,0,0,519,258.44c-3-1.07-5.84-2.18-8.91-3.09l-4.49-1.48L501,252.53c-3-1-6.07-1.71-9.12-2.61s-6.08-1.63-9.16-2.5Zm2.53-6.4c3-.52,6-.91,9.06-1.24a84.48,84.48,0,0,1,9.14-.43,115.32,115.32,0,0,1,18.28,1.24A98,98,0,0,1,539.63,245a55.09,55.09,0,0,1,16.22,8.51,114.27,114.27,0,0,0-17.09-5.62q-8.76-2.11-17.5-3.42l-4.43-.66-4.53-.48c-3-.47-6-.55-8.95-.92l-9-.7c-3-.17-6-.31-9.06-.64Zm-.62-3.46a114.92,114.92,0,0,1,18.76-8,142.69,142.69,0,0,1,19.81-5,140,140,0,0,1,20.32-2.19,96.59,96.59,0,0,1,20.38,1.12c-6.79.43-13.48,1.09-20.15,1.95s-13.28,1.75-19.87,3-13.14,2.55-19.65,4.14-13,3.35-19.6,5Z"/></g></g><path id="glasses" class="cls-32" d="M475.05,211.49c-10.33-3.72-20.36,1.63-20.36,1.63-5.83-4-17.25-.47-23.33,1.95a7.32,7.32,0,0,0-4.61,6c-3.63,37.43,34.3,20.84,28.39-5.67a23.76,23.76,0,0,1,18.18-2s-7.9,32.31,22.1,33.93l10.15-.12a24.81,24.81,0,0,0,24.77-24.55v-1.64a14,14,0,0,0-14.21-13.82H516l-31.22.37A13,13,0,0,0,475.05,211.49Z"/><path id="nose" class="cls-31" d="M463.69,229.37a91,91,0,0,0-18.94,3.37,12.64,12.64,0,0,0,8.75,8A26.85,26.85,0,0,0,463.69,229.37Z"/><g id="whisker_dots" data-name="whisker dots"><ellipse id="whisker_dot1" data-name="whisker dot1" class="cls-30" cx="468.83" cy="240.76" rx="0.89" ry="0.87" transform="translate(-35.78 88.66) rotate(-10.41)"/><ellipse id="whisker_dot2" data-name="whisker dot2" class="cls-30" cx="481.45" cy="248.54" rx="0.89" ry="0.87" transform="translate(-36.1 88.19) rotate(-10.09)"/><ellipse id="whisker_dot3" data-name="whisker dot3" class="cls-30" cx="469.11" cy="249" rx="0.89" ry="0.87" transform="translate(-37.26 88.84) rotate(-10.41)"/></g><g id="whisker_dots-2" data-name="whisker dots-2"><ellipse id="whisker_dot1-2" data-name="whisker dot1-2" class="cls-30" cx="442.14" cy="247.2" rx="0.89" ry="0.87" transform="matrix(0.98, -0.18, 0.18, 0.98, -36.47, 81.28)"/><ellipse id="whisker_dot2-2" data-name="whisker dot2-2" class="cls-30" cx="450.47" cy="252.87" rx="0.89" ry="0.87" transform="translate(-37.33 82.83) rotate(-10.09)"/></g><path id="mouth-2" class="cls-30" d="M495,307.73s5.84,23.19,23.64-3.64c6.42-9.72,10-22.51,4.55-32.68-5.21-9.72-18.64-16.68-39.48-9.29a21.42,21.42,0,0,1-14.33.17c-6-2.2-12.83-7.78-15.89-21.56,0,0,3,14.62,12.39,21.6,20.63,13,29.12,45.4,29.12,45.4Z"/><path id="tooth_right" data-name="tooth right" class="cls-33" d="M450.59,261.05a136,136,0,0,0,10.69,9.23.68.68,0,0,0,1.09-.6,13,13,0,0,1,.72-7.06C457.61,263.85,450.59,261.05,450.59,261.05Z"/><path id="tooth_left" data-name="tooth left" class="cls-33" d="M484.26,262.62c5.29,5,7,6.59,8.81,8a.67.67,0,0,0,.95-.13.66.66,0,0,0,.14-.49,34.3,34.3,0,0,1,.33-9.16,26.09,26.09,0,0,0-10.23,1.81Z"/><path id="tongue" class="cls-31" d="M524.76,284c-8.89-1.95-14.08,3.69-17.17,13.76a15.92,15.92,0,0,1-11.37,11.55C503.66,330.59,528.41,297.62,524.76,284Z"/><path id="nose_line" data-name="nose line" class="cls-30" d="M454.44,225.41A17.31,17.31,0,0,1,467.66,224"/></g><g id="microphone-2"><path id="microphone_head-2" data-name="microphone head-2" class="cls-30" d="M492.72,335c-5.83-5.83-9.28-11.66-3.4-17.49l3.4-3.31a15.3,15.3,0,0,1,21.25,0,14.43,14.43,0,0,1,.33,20.4L514,335l-3.4,3.3C504.69,344,498.69,340.74,492.72,335Z"/><path id="microphone_body-2" data-name="microphone body-2" class="cls-30" d="M437.48,388.88c-3-3-4.84-6.05-1.94-9.14l49.27-51.85c4.14-4.42,6.12.41,10.46,4.64s9.29,6.17,4.76,10.21l-53.18,48c-3.15,2.82-6.33,1.05-9.37-1.9Z"/><path id="microphone_head_line-2" data-name="microphone head line-2" class="cls-34" d="M511.25,337.73c2.54-2.49-.39-8.91-6.26-14.62s-12.43-8.6-15-6.11l1.75-1.71c2.54-2.49,9.09.39,15,6.1s8.8,12.14,6.26,14.62Z"/><path id="microphone_body_line-2" data-name="microphone body line-2" class="cls-34" d="M500,342.9c1.95-1.95-.6-6.11-4.82-10.23s-8.42-6.61-10.48-4.67l1.42-1.38c2.06-1.94,6.24.59,10.48,4.71s6.86,8.2,4.8,10.23Z"/><path id="microphone_body_line2-2" data-name="microphone body line2-2" class="cls-35" d="M492.64,349c1.83-1.79,0-6.39-3.89-10.28s-8.73-5.6-10.55-3.89"/></g><g id="hand_right" data-name="hand right"><path class="cls-36" d="M472.4,390c17.19,12.81,45.05,12.81,62.22,0s17.18-33.62,0-46.43L521,333.43a16.69,16.69,0,0,0-11.55-3,7.78,7.78,0,0,0-1,.11,16.08,16.08,0,0,0-11.24,6.73,8.58,8.58,0,0,0-.9,8.09l1.95,1.51a15.38,15.38,0,0,0-1.62-.54,9.89,9.89,0,0,0,.72,1.21L495.46,346a19.55,19.55,0,0,0-10.87.7,15,15,0,0,0-7.78,5.83,8.6,8.6,0,0,0-.93,8.11l1.95,1.52c-.53-.2-1.07-.37-1.62-.53a13.3,13.3,0,0,0,.72,1.21L475,361.31a19.64,19.64,0,0,0-8.36,0c-6.92,1.5-11.94,6.24-11.8,11.66v.14a9.11,9.11,0,0,0,4,6.73Z"/><path class="cls-37" d="M479.54,353.8c-3.78-.5-6.32-10.42-6.32-10.42-.45-.74.56-1.49,1.55-1.16,0,0,13.3,1.94,14,4.7.61,2.47-6,7.33-9.21,6.88Z"/><path class="cls-38" d="M459.1,369.05c-3.77-.51-6.32-10.42-6.32-10.42-.44-.74.59-1.5,1.58-1.17,0,0,13.28,1.94,14,4.7.58,2.4-6,7.33-9.24,6.89Z"/><path class="cls-39" d="M500,338.56c-3.77-.5-6.3-10.42-6.3-10.42-.45-.74.57-1.5,1.56-1.17,0,0,13.3,1.95,14,4.71.58,2.39-6,7.33-9.24,6.88Z"/></g><path id="lowerarm_right" data-name="lowerarm right" class="cls-40" d="M661.65,490.54c-12.32,14-34.68,15-49.93,2.2L514.24,411C499,398.25,543.62,347.56,559,360.36L656.48,442C671.61,454.85,674,476.54,661.65,490.54Z"/></g></g></svg>