<svg xmlns="http://www.w3.org/2000/svg" xmlns:xlink="http://www.w3.org/1999/xlink" viewBox="0 0 1075.56 605"><defs><style>.cls-1{fill:#209895;}.cls-2{fill:url(#linear-gradient);}.cls-3{fill:#17325f;}.cls-4{fill:url(#linear-gradient-2);}.cls-5{fill:url(#linear-gradient-3);}.cls-6{fill:url(#radial-gradient);}.cls-11,.cls-14,.cls-21,.cls-7{fill:none;stroke-miterlimit:10;}.cls-7{stroke:#1e1e26;stroke-width:0.16px;}.cls-8{fill:url(#linear-gradient-4);}.cls-9{fill:#564d60;}.cls-10{fill:#dddde5;}.cls-11{stroke:#fff;stroke-width:0.9px;}.cls-12{fill:url(#radial-gradient-2);}.cls-13{fill:url(#linear-gradient-5);}.cls-14{stroke:#17325f;}.cls-15{fill:#16000b;}.cls-16{fill:url(#radial-gradient-3);}.cls-17{fill:#0c0c14;}.cls-18{fill:url(#linear-gradient-6);}.cls-19{fill:#fff;}.cls-20{fill:url(#linear-gradient-7);}.cls-21{stroke:#000008;stroke-width:0.17px;}.cls-22{fill:url(#linear-gradient-8);}.cls-23{fill:url(#linear-gradient-9);}.cls-24{fill:url(#linear-gradient-10);}.cls-25{fill:url(#linear-gradient-11);}.cls-26{fill:url(#linear-gradient-12);}.cls-27{fill:url(#linear-gradient-13);}.cls-28{fill:url(#linear-gradient-14);}</style><linearGradient id="linear-gradient" x1="516.27" y1="-2567.09" x2="493.98" y2="-2885.81" gradientTransform="matrix(1, 0, 0, -1, 0, -2265.63)" gradientUnits="userSpaceOnUse"><stop offset="0" stop-color="#e6394e"/><stop offset="0.08" stop-color="#9e324b"/><stop offset="0.16" stop-color="#522a47"/><stop offset="0.22" stop-color="#222645"/><stop offset="0.25" stop-color="#102444"/><stop offset="0.4" stop-color="#132a4f"/><stop offset="0.5" stop-color="#152f59"/><stop offset="1" stop-color="#102342"/></linearGradient><linearGradient id="linear-gradient-2" x1="584.52" y1="-2322.87" x2="584.52" y2="-2784.96" gradientTransform="matrix(1, 0, 0, -1, 0, -2265.63)" gradientUnits="userSpaceOnUse"><stop offset="0" stop-color="#17325f"/><stop offset="0.02" stop-color="#17325f"/><stop offset="0.55" stop-color="#087787"/><stop offset="0.7" stop-color="#097485"/><stop offset="0.8" stop-color="#0b6b80"/><stop offset="0.89" stop-color="#0e5c78"/><stop offset="0.97" stop-color="#13476b"/><stop offset="1" stop-color="#153c65"/></linearGradient><linearGradient id="linear-gradient-3" x1="542.66" y1="-2352.41" x2="542.66" y2="-2386.86" gradientTransform="matrix(1, 0, 0, -1, 0, -2265.63)" gradientUnits="userSpaceOnUse"><stop offset="0" stop-color="#17325f"/><stop offset="0.53"/><stop offset="1" stop-color="#102342"/></linearGradient><radialGradient id="radial-gradient" cx="585.75" cy="-2714.26" fx="550.8288594598869" fy="-2621.8501535268188" r="203.78" gradientTransform="matrix(1, 0, 0, -1, 0, -2265.63)" gradientUnits="userSpaceOnUse"><stop offset="0.19" stop-color="#ff5058"/><stop offset="0.34" stop-color="#f94d55"/><stop offset="0.55" stop-color="#e8454d"/><stop offset="0.78" stop-color="#cb373f"/><stop offset="1" stop-color="#aa272f"/></radialGradient><linearGradient id="linear-gradient-4" x1="450.32" y1="-2756.42" x2="577.4" y2="-2756.42" gradientTransform="matrix(1, 0, 0, -1, 0, -2265.63)" gradientUnits="userSpaceOnUse"><stop offset="0" stop-color="#fff"/><stop offset="0.07" stop-color="#f3f8fc"/><stop offset="0.3" stop-color="#cde2f1"/><stop offset="0.31" stop-color="#cbe1f1"/><stop offset="0.59" stop-color="#accee8"/><stop offset="0.83" stop-color="#99c3e3"/><stop offset="1" stop-color="#92bfe1"/></linearGradient><radialGradient id="radial-gradient-2" cx="-2189.75" cy="-2609.92" fx="-2163.470210486968" fy="-2631.9734744489883" r="237.18" gradientTransform="matrix(0, -1, -0.54, 0, -975.31, -1878.77)" gradientUnits="userSpaceOnUse"><stop offset="0" stop-color="#545454"/><stop offset="0.23" stop-color="#1b1b1b"/><stop offset="0.39"/></radialGradient><linearGradient id="linear-gradient-5" x1="456.51" y1="-2520.59" x2="551.56" y2="-2520.59" gradientTransform="matrix(1, 0, 0, -1, 0, -2265.63)" gradientUnits="userSpaceOnUse"><stop offset="0" stop-color="#4496ae"/><stop offset="0.03" stop-color="#569fba"/><stop offset="0.09" stop-color="#70adcb"/><stop offset="0.15" stop-color="#83b7d7"/><stop offset="0.21" stop-color="#8ebddf"/><stop offset="0.27" stop-color="#92bfe1"/><stop offset="0.41" stop-color="#8ebddf"/><stop offset="0.53" stop-color="#83b7d7"/><stop offset="0.65" stop-color="#71aecb"/><stop offset="0.77" stop-color="#56a0ba"/><stop offset="0.88" stop-color="#358ea4"/><stop offset="0.99" stop-color="#0c7989"/><stop offset="1" stop-color="#087787"/></linearGradient><radialGradient id="radial-gradient-3" cx="574.88" cy="-2462.16" r="93.14" gradientTransform="matrix(1, 0, 0, -1, 0, -2265.63)" gradientUnits="userSpaceOnUse"><stop offset="0.35" stop-color="#92bfe1"/><stop offset="0.48" stop-color="#8fbddf"/><stop offset="0.59" stop-color="#84b8d8"/><stop offset="0.7" stop-color="#72afcd"/><stop offset="0.75" stop-color="#65a8c4"/><stop offset="0.83" stop-color="#519db7"/><stop offset="0.99" stop-color="#1d8294"/><stop offset="1" stop-color="#198092"/></radialGradient><linearGradient id="linear-gradient-6" x1="533.61" y1="-2444.53" x2="566.84" y2="-2444.53" gradientTransform="matrix(1, 0, 0, -1, 0, -2265.63)" gradientUnits="userSpaceOnUse"><stop offset="0" stop-color="#e6394e"/><stop offset="1" stop-color="#102342"/></linearGradient><linearGradient id="linear-gradient-7" x1="636.94" y1="-2453.49" x2="607.03" y2="-2453.49" xlink:href="#linear-gradient-6"/><linearGradient id="linear-gradient-8" x1="577.12" y1="-2367.5" x2="577.12" y2="-2536.61" xlink:href="#linear-gradient-2"/><linearGradient id="linear-gradient-9" x1="579.74" y1="-2777.44" x2="719.95" y2="-2777.44" xlink:href="#linear-gradient-5"/><linearGradient id="linear-gradient-10" x1="668.32" y1="-2704.95" x2="722.34" y2="-2704.95" xlink:href="#linear-gradient-5"/><linearGradient id="linear-gradient-11" x1="688.91" y1="-2652.32" x2="661.96" y2="-2698.97" gradientTransform="matrix(1, 0, 0, -1, 0, -2265.63)" gradientUnits="userSpaceOnUse"><stop offset="0" stop-color="#fff"/><stop offset="0.02" stop-color="#e9e9e9"/><stop offset="0.06" stop-color="#b8b8b8"/><stop offset="0.11" stop-color="#8c8c8c"/><stop offset="0.16" stop-color="#666"/><stop offset="0.21" stop-color="#474747"/><stop offset="0.27" stop-color="#2d2d2d"/><stop offset="0.33" stop-color="#191919"/><stop offset="0.41" stop-color="#0b0b0b"/><stop offset="0.49" stop-color="#020202"/><stop offset="0.65"/></linearGradient><linearGradient id="linear-gradient-12" x1="321.93" y1="-2795.05" x2="429.75" y2="-2795.05" xlink:href="#linear-gradient-5"/><linearGradient id="linear-gradient-13" x1="396.43" y1="-2850.31" x2="473.44" y2="-2850.31" xlink:href="#linear-gradient-5"/><linearGradient id="linear-gradient-14" x1="442.01" y1="-2817.46" x2="488.26" y2="-2844.17" gradientTransform="matrix(1, 0, 0, -1, 0, -2265.63)" gradientUnits="userSpaceOnUse"><stop offset="0.62"/><stop offset="0.67" stop-color="#040404"/><stop offset="0.72" stop-color="#0e0e0e"/><stop offset="0.77" stop-color="#212121"/><stop offset="0.81" stop-color="#3a3a3a"/><stop offset="0.86" stop-color="#5b5b5b"/><stop offset="0.9" stop-color="#848484"/><stop offset="0.94" stop-color="#b3b3b3"/><stop offset="0.99" stop-color="#eaeaea"/><stop offset="1" stop-color="#fff"/></linearGradient></defs><title>mixer_horse.svg</title><g id="Layer_2" data-name="Layer 2"><rect id="bg" class="cls-1" width="1075.56" height="605"/><g id="horse"><path id="body_main-4" data-name="body main-4" class="cls-2" d="M468.2,300c66,22.56,161.57,15.78,193.74,186.12,4.54,24,15,123.54-9.41,124.22-66.42,1.82-175.49,1.82-298.85,0C330.64,610,329,493,335,470.72,353,403.85,397.44,275.81,468.2,300Z"/><g id="hair"><path id="hair_strand1" data-name="hair strand1" class="cls-3" d="M494.68,183.36c-1.24.19-2.51.29-3.75.53a33.22,33.22,0,0,0-3.65,1,28.66,28.66,0,0,0-6.86,3.16,27.74,27.74,0,0,0-5.84,4.91,24.07,24.07,0,0,0-4.25,6.36,24.36,24.36,0,0,1,3.93-6.64,27.64,27.64,0,0,1,5.68-5.33,28.86,28.86,0,0,1,6.86-3.67,32.92,32.92,0,0,1,3.76-1.21c1.27-.32,2.57-.51,3.86-.79Z"/><path id="hair_strand2" data-name="hair strand2" class="cls-3" d="M493.77,183.88a5.2,5.2,0,0,0-2.32-.11,9.09,9.09,0,0,0-2.44.81,15.55,15.55,0,0,0-4.22,3.26,30.14,30.14,0,0,0-3.43,4.37,54.56,54.56,0,0,0-2.69,4.84c.72-1.71,1.44-3.43,2.33-5.14a30,30,0,0,1,3.05-4.72,16.48,16.48,0,0,1,4.33-3.74,8.07,8.07,0,0,1,5.93-1.19Z"/><path id="hair_main" data-name="hair main" class="cls-4" d="M493.53,182.5c-26.91-40.83,22.68-67.69,22.68-67.69,88.3-141.32,268.22-4.37,94.25,214.67a92.41,92.41,0,0,1-8,9c-36.29,34.92.83,90.22.83,90.22,34.81,55.95-28.49,90.65-28.49,90.65,35.52-50.81,19-77,7.64-87.39a83.31,83.31,0,0,1-21.23-30.1c-11.43-28.31-9.95-56.35-7.19-73.57A106,106,0,0,0,546.72,270l-.33-.77a37.36,37.36,0,0,0-11.13-14.43C497.25,224.54,493.53,182.5,493.53,182.5Z"/><path id="scrunchie" class="cls-5" d="M531.5,88.51c-8.44-5.6-12.67,4.48-12.67,4.48-13.72,1.11-7.37,11.18-7.37,11.18-5.27,12.31,5.26,11.19,5.26,11.19,3.18,7.84,13.73,0,13.73,0,7.38,5.59,11.6,1.12,11.6,1.12,9.51,10.07,13.73,1.13,13.73,1.13,10.55,4.46,12.66-4.48,12.66-4.48,9.49-1.12,6.43-10.91,6.43-10.91,1-12.6-8.57-7-8.57-7C562.07,88.51,555.74,93,555.74,93c-5.28-7.85-12.66-1.12-12.66-1.12-6.3-8.89-11.58-3.36-11.58-3.36Z"/></g><g id="guitar"><path id="guitar_main" data-name="guitar main" class="cls-6" d="M496.55,406a52.5,52.5,0,0,1-32.19,22.67,44.62,44.62,0,0,1-12.19,1.15c-150.63-15.45-15.89,259.93,59,111.63l2.61-4.13c11.68-14.74,24.74-18,31.26-18.65a74,74,0,0,0,14.53-2.87c35.3-11.12,26.48-28.66,26.48-28.66-1.13-7.06-14.24-.94-14.24-.94l-.79.19c-17.5,4-26.7-21.12-11.22-30.65L714,360.42h1.07c5.85-7.7,11.82-6,16-3.52a8.78,8.78,0,0,0,9.81-.46,308.47,308.47,0,0,0,24-21.09,6.83,6.83,0,0,1,6.36-1.71c19.86,4.7,20.49-23.29,8.07-21.8l-70.59,16.51a6,6,0,0,0-4.28,4.1l-1.93,6.25L557.9,427.51c-20.59,9.59-30.61-24.62-5.86-38.85,18.49-10.63,9-16.85-.9-16.9a54.85,54.85,0,0,0-33.78,11.88A94,94,0,0,0,496.55,406Z"/><g id="knobs"><path class="cls-3" d="M730.64,322.93l-5.15,1.23L725,322l5.13-1.24Z"/><ellipse class="cls-3" cx="727.37" cy="320.25" rx="4.24" ry="1.68" transform="translate(-55.35 182.47) rotate(-13.78)"/><path class="cls-3" d="M742,320.24l-5.14,1.23-.47-2.18,5.13-1.23Z"/><ellipse class="cls-3" cx="738.76" cy="317.56" rx="4.24" ry="1.68" transform="translate(-54.38 185.11) rotate(-13.78)"/><path class="cls-3" d="M753.43,317.56l-5.15,1.23-.46-2.19,5.14-1.24Z"/><ellipse class="cls-3" cx="750.15" cy="314.89" rx="4.24" ry="1.68" transform="translate(-53.41 187.74) rotate(-13.78)"/><path class="cls-3" d="M764.82,314.86l-5.15,1.24-.46-2.18,5.15-1.23Z"/><ellipse class="cls-3" cx="761.55" cy="312.2" rx="4.24" ry="1.68" transform="translate(-52.45 190.38) rotate(-13.78)"/><path class="cls-3" d="M776.21,312.17l-5.14,1.24-.47-2.18,5.15-1.24Z"/><ellipse class="cls-3" cx="772.94" cy="309.51" rx="4.24" ry="1.68" transform="translate(-51.48 193.02) rotate(-13.78)"/><path class="cls-3" d="M719.23,325.61l-5.13,1.23-.48-2.18,5.15-1.23Z"/><ellipse class="cls-3" cx="715.97" cy="322.94" rx="4.24" ry="1.68" transform="translate(-56.31 179.83) rotate(-13.78)"/><ellipse class="cls-7" cx="718.25" cy="332.45" rx="2.64" ry="2.8"/><ellipse class="cls-7" cx="775.24" cy="319.02" rx="2.64" ry="2.8"/><ellipse class="cls-7" cx="763.84" cy="321.71" rx="2.64" ry="2.8"/><ellipse class="cls-7" cx="752.45" cy="324.39" rx="2.64" ry="2.8"/><ellipse class="cls-7" cx="741.06" cy="327.08" rx="2.64" ry="2.8"/><ellipse class="cls-7" cx="729.66" cy="329.76" rx="2.64" ry="2.8"/></g><path id="pattern" class="cls-8" d="M576.88,499.18c2.78-10.62-6.19-7.55-11.41-8.27-29.75-4.05-10.76-32-23.42-55.51-1.63-3-8.44-22.3-24-5.9-4.36,5.15-6.5,13.16-18.1,18.21-25,10.82-49.61-3.43-49.61,16.78,0,29.85,26.39,35.81,31.66,54.91s-6.33,36.92,8.44,39.15c11.26,1.72,14.12-33.15,31.66-39.15,22.42-7.79,51.34-7,54.8-20.22Z"/><path id="fret_board" data-name="fret board" class="cls-9" d="M534,467,525.84,452a5,5,0,0,1,1.71-6.57L702.86,337.26l12.77,23.26L540.3,468.62a4.39,4.39,0,0,1-6.07-1.33A3.54,3.54,0,0,1,534,467Z"/><g id="frets"><path class="cls-10" d="M710.91,363.35,708.16,365l-12.35-22.58,2.74-1.69Zm-167.78,103L540.4,468l-12.35-22.58,2.73-1.68ZM554,460.06l-2.75,1.7L538.6,438.7l2.73-1.68,12.63,23Zm12.66-7.82-2.74,1.68-12.62-23.05,2.73-1.69,12.63,23.06Zm14.76-9-2.73,1.7L566,421.92l2.73-1.68,12.61,23Zm14.77-8.94L593.42,436,580.81,413l2.73-1.68Zm16.63-10.57-2.75,1.7-12.35-22.58,2.74-1.68Zm17.93-11.19L628,414.26,615.63,391.7l2.72-1.68Zm20-12.3L648,402,635.67,379.4l2.74-1.7ZM670.81,388l-2.75,1.68-12.35-22.58,2.74-1.68Zm20-12.32-2.73,1.68-12.35-22.56,2.73-1.69Z"/></g><path id="middle_line1" data-name="middle line1" class="cls-9" d="M523.66,479.07l-11.89-21.69a4,4,0,0,1,1.32-5.28,2.46,2.46,0,0,1,3.36.85l.07.13,13,23.71a2.8,2.8,0,0,1-.93,3.69,3.53,3.53,0,0,1-4.85-1.19A.94.94,0,0,1,523.66,479.07Z"/><path id="middle_line2" data-name="middle line2" class="cls-9" d="M502.57,491.36l-11.91-21.69a4,4,0,0,1,1.32-5.3,2.49,2.49,0,0,1,3.4.91l0,.07,13,23.73a2.77,2.77,0,0,1-.93,3.67,3.42,3.42,0,0,1-4.73-1.06,2.17,2.17,0,0,1-.19-.33Z"/><path id="middle_line3" data-name="middle line3" class="cls-9" d="M481.51,503.7,469.5,482a4,4,0,0,1,1.32-5.29,2.46,2.46,0,0,1,3.37.85l.07.11,13,23.73a2.79,2.79,0,0,1-.91,3.69,3.55,3.55,0,0,1-4.82-1.38l0,0Z"/><ellipse id="nub" class="cls-9" cx="395.4" cy="537.78" rx="2.68" ry="5.53" transform="translate(-196.54 229.31) rotate(-26.15)"/><g id="strings"><path class="cls-11" d="M714.49,358.57,481,502.77m230.89-149L478.29,497.93M742.07,328.61,475.65,493.09m254-163.28L473,488.25m244.8-157.6L470.33,483.41"/></g><path id="strap" class="cls-12" d="M418,311.19c-11.5,85.64,14.45,118.4,14.45,118.4l17.82.25c-22.84-54.53-10.4-118.78-7.75-130.8a1.92,1.92,0,0,0-1.39-2.33.35.35,0,0,0-.14,0,22.07,22.07,0,0,0-18.17,5.42A14.58,14.58,0,0,0,418,311.19Z"/></g><g id="neck-2"><path id="neck_main" data-name="neck main" class="cls-13" d="M551.56,323.5s-26.39-26.86-3-79.79l-11.65-94.2s-30.75,31.88-43.41,33a609.3,609.3,0,0,0-36.95,114.14c-2.11,42.52,43.28,63.78,43.28,63.78a86.15,86.15,0,0,0,51.7-36.92Z"/><path id="netting" class="cls-14" d="M506.86,357.62l-13.2-2.07,35.54-9.37L463.72,324l87.3-.77s-54.06,7.56-92.84-24.87l75,44.79L472,338.85l42.15,16"/><path id="necklace-2" class="cls-15" d="M463.76,268.86C491.42,301.12,538,285.32,538,285.32l1-5.6s-46.62,15.81-74.28-16.45Z"/></g><g id="head-4"><path id="head_main-4" data-name="head main-4" class="cls-16" d="M600.08,137.75c7.17-27.59,21-36,24.8-36.34a.91.91,0,0,1,1,.86,1.27,1.27,0,0,1,0,.2c-1.19,9.65-8.58,28.47-13.09,39.47a32.57,32.57,0,0,0-.72,23.4,19.69,19.69,0,0,0,1.87,4,18.13,18.13,0,0,1,2.18,14.95l-.31.94a66.45,66.45,0,0,0-3.83,21.12c-.19,24.52,10.3,37.87,19.49,49.76a9.39,9.39,0,0,1,.4,10.8l-3.74,5.68c-.19,3.43-.31,5.76-.4,7.34a3.23,3.23,0,0,1-3.27,3.18h-.06c-21.74-1.61-33.83-12.26-33.83-12.26.82,9.48,5.86,13,10.5,17.15a1.73,1.73,0,0,1,.29,2.41,1.75,1.75,0,0,1-.89.6c-14.66,4.25-18.31-13.73-19.1-19.48a17.77,17.77,0,0,0-1.72-5.69,40.38,40.38,0,0,0-11.17-12.46,54.06,54.06,0,0,0-19.85-9.66c-34.66-9.18-34.32-43.64-30.32-65.34a52.76,52.76,0,0,1,24.37-35.86l.48-.3c-4.55-19.26,5.78-36,8.73-40.34a.73.73,0,0,1,1.3.14c9.63,22,4.74,36.86,4.74,36.86,22.17-28,42.21-1.12,42.21-1.12Z"/><path id="nostril_left" data-name="nostril left" class="cls-17" d="M604.83,269.22c2.11-7.82-1.49-10.72-3.15-9-2.11,2.24,1.16,2.48,2.11,4.47A11.78,11.78,0,0,1,604.83,269.22Z"/><path id="nostril_right" data-name="nostril right" class="cls-17" d="M628.44,272.24c-.54-8.08,3.13-10.29,4.31-8.29,1.49,2.58-1.46,2.25-2.62,4.05A13,13,0,0,0,628.44,272.24Z"/><g id="eye_left" data-name="eye left"><ellipse id="eye_main-2" data-name="eye main-2" class="cls-17" cx="558.93" cy="184.75" rx="7.38" ry="7.84"/><path id="lashes" class="cls-18" d="M537.83,172.43c9.51,7.84,13.73,3.43,21.1,3.43s7.91,9.51,7.91,9.51c-3.92-9.49-9.57-7.4-12.78-5.06A14.87,14.87,0,0,1,540.2,182a37.78,37.78,0,0,1-6.59-3c23.21,6.86,4.22-6.64,4.22-6.64Z"/><ellipse id="eye_highlight" data-name="eye highlight" class="cls-19" cx="556.82" cy="182.5" rx="2.64" ry="2.8"/></g><g id="eye_right" data-name="eye right"><ellipse id="eye_main-3" data-name="eye main-3" class="cls-17" cx="614.15" cy="193.69" rx="6.64" ry="7.84"/><path id="lashes-2" class="cls-20" d="M633.15,181.39c-8.58,7.82-12.36,3.43-19,3.43s-7.12,9.51-7.12,9.51c3.53-9.49,8.58-7.4,11.51-5.07A12.22,12.22,0,0,0,631,191a34.89,34.89,0,0,0,5.85-2.88c-20.83,6.71-3.72-6.71-3.72-6.71Z"/><ellipse id="eye_highlight-2" data-name="eye highlight-2" class="cls-19" cx="616.04" cy="191.46" rx="2.37" ry="2.8"/></g><path id="teeth-2" class="cls-19" d="M626.28,282.57c-10.89,10.16-18.27,9-18.27,9-23.22-14.55-22.17-26.87-22.17-26.87C609.24,285.88,626.28,282.57,626.28,282.57Z"/><path id="teeth_line" data-name="teeth line" class="cls-21" d="M592.21,273.84c15.83,14.82,26.33,13.43,29.58,12.46"/><path id="lips" class="cls-3" d="M590.59,259.72c-5.8,2.79-2.93,4.48-2.64,5,19,18.74,36.15,17.4,40.1,15.67,3.16,2.25-.53,3.93-.53,3.93-6.33,2.23-16.89-2.25-16.89-2.25a57.23,57.23,0,0,1-24.79-17.35c5.15,17.54,18.87,28.38,30.59,24.63,1.07,1.11-1,3.43-1,3.43-13.63,7.7-28.88-17.69-30-26.12-2.15-1.56.6-7.44,4.89-6.86Z"/><path id="eyebrow_right-2" data-name="eyebrow right-2" class="cls-3" d="M600.84,177.48c6-16.8,25.92-9,25.92-9"/><path id="eyebrow_left-2" data-name="eyebrow left-2" class="cls-3" d="M575.29,171.88c-9.49-16.8-41.18-9-41.18-9"/><path id="bangs" class="cls-22" d="M557.89,138.87c8.15,10.5,36,13,21.12,46.33a74.59,74.59,0,0,1-9.71,15.9c-8.1,10.3-27.46,38.09-19.85,63.13a67.49,67.49,0,0,0,1.95,6.55c-2.93-21.14,3.93-42.46,18.88-56.86,15.8-15.27,41.88-45.71,35.15-75-1.63-23.74-26.37-47-50.51-32.6C554.71,105.29,562.16,121,557.89,138.87Z"/></g><g id="leg_right" data-name="leg right"><path id="lowerleg" class="cls-23" d="M714.48,480.7l-82,89.69c-23.49,26.79-69.77-13.73-46.33-40.58l113.25-84.35a10.82,10.82,0,0,1,11.29,1.29A23.74,23.74,0,0,1,715,480.06c-.16.22-.34.43-.51.64Z"/><path id="upperleg" class="cls-24" d="M710.12,477.31l-3.23,1.85a4.91,4.91,0,0,1-6.66-1.94l-.1-.19L669,418a5.34,5.34,0,0,1,1.89-7.1l19.78-11.38a4.89,4.89,0,0,1,6.65,1.91,2.26,2.26,0,0,1,.11.22L719.23,443C725.73,455.33,721.74,470.67,710.12,477.31Z"/><path id="hoof" class="cls-25" d="M696.36,399.15,682,441.6l-17.8-6.86c-12.52-18.67-8.58-44.24,8.86-57.11Z"/></g><g id="leg_left" data-name="leg left"><path id="lowerleg-2" class="cls-26" d="M394.79,600.21l-59.47-73a60.23,60.23,0,0,1-7.53-63.78c7.33-15,15.58-13.59,22.31-9.62A35.6,35.6,0,0,1,363,467.53L429.11,588A12.57,12.57,0,0,1,427,599.82a20.74,20.74,0,0,1-32.21.39Z"/><path id="upperleg-2" class="cls-27" d="M398.33,596l-1.49-3.59a5.39,5.39,0,0,1,2.55-6.86l58-27a4.84,4.84,0,0,1,6.4,2.42l.12.28,9.11,22a5.36,5.36,0,0,1-2.54,6.86l-40.61,18.88c-12.1,5.57-26.24-.28-31.54-13Z"/><path id="hoof-2" class="cls-28" d="M472.94,589.27l-38.7-19.43,7.81-18.08c18.55-11.34,42.26-4.6,53,15.06Z"/></g></g></g></svg>