<svg xmlns="http://www.w3.org/2000/svg" viewBox="0 0 1613.15 907.4"><defs><style>.cls-1{fill:#0f323d;}.cls-2{fill:#fff;}.cls-3{fill:#ef7a52;stroke:#dd6c4e;stroke-linecap:round;stroke-miterlimit:10;stroke-width:6px;}.cls-4{fill:#dd6c4e;}</style></defs><title>ontario_summer1_1</title><g id="Layer_2" data-name="Layer 2"><g id="blue_background"><g id="Layer_11" data-name="Layer 11"><rect class="cls-1" width="1613.15" height="907.4" transform="translate(1613.15 907.4) rotate(180)"/></g></g><g id="logo"><g id="logo-2" data-name="logo"><rect class="cls-1" x="519.34" y="222.73" width="574.48" height="461.94"/><path class="cls-2" d="M581.09,585.47c-8,0-21.05-7.19-21.05-16.15,0-14.31,11.63-38.19,22-38.19,7.89,0,20.06,8.11,20.06,14.47C602.14,558.53,592.88,585.47,581.09,585.47ZM586.68,537c-8.5,0-17.15,22.12-17.15,33.91,0,5.13,4.36,8.8,7.73,8.8,9.19,0,15.69-24.72,15.69-35.59C593,540.31,590.58,537,586.68,537Z"/><path class="cls-2" d="M630.3,580.19c2.3,0,6.43-5.89,10.18-12.78,0,0,.69-1.38,1.69-1.38s2.6,1.23,2.6,2.15a8.13,8.13,0,0,1-1,2.67c-4.21,7.66-8.72,14.62-14.23,14.62-3.45,0-10.34-3.21-10.34-6.66,0-4.89,4.29-17.14,4.29-20a2.79,2.79,0,0,0-2.3-2.6c-1.6,0-5.89,1.91-7,4.82-2,5-5.51,20.51-6,22.73-.3,1-.53,1.76-1.68,1.76-1.76,0-6.28-1.91-6.28-4s5.82-25.18,7.43-30.38a2.67,2.67,0,0,1,2.6-1.61c1.3,0,4.9,4.51,4.9,4.51s7.5-4.51,11.48-4.51c2.3,0,6.43,3.14,6.43,6,0,3.6-4.75,18.52-4.75,22.58A2.63,2.63,0,0,0,630.3,580.19Z"/><path class="cls-2" d="M653.57,550.26h6.58c.46,0,.92.23.92.69,0,1-1.45,4.06-2.68,4.06h-6.12c-2.53,8.65-5.36,19.14-5.36,20.9a4.37,4.37,0,0,0,4.29,4.28c2.22,0,6.43-5.89,10.18-12.78,0,0,.69-1.38,1.68-1.38s2.6,1.23,2.6,2.15a8.18,8.18,0,0,1-1,2.67c-4.21,7.66-8.73,14.62-14.32,14.62-5.2,0-12.4-3.59-12.4-7.42,0-2.07,2.76-13.09,5.36-23h-2.6a.84.84,0,0,1-.84-.77c0-.91,1.38-4,2.6-4h2.14c1.46-5.35,2.68-9.79,3.22-11.48.3-1.07,1-1.68,1.61-1.68,1.53,0,6.58,2.91,6.58,4.29a8,8,0,0,1-.31,1.83Z"/><path class="cls-2" d="M700.87,566c1,0,2.6,1.23,2.6,2.15a8.18,8.18,0,0,1-1,2.67c-4.21,7.66-8.73,14.62-14.24,14.62-3.44,0-9.8-2.91-10.41-5.05,0,0-4.59,5.05-8.49,5.05-3.53,0-9.88-4.82-9.88-9,0-10.11,9.11-27,16.08-27a14.24,14.24,0,0,1,10,4.59c2,0,6.58.54,6.58,2.45,0,2.68-5.2,15.39-5.2,21.51a2.71,2.71,0,0,0,2.07,2.14c2.29,0,6.43-5.89,10.18-12.78C699.19,567.41,699.88,566,700.87,566Zm-22.5-10.41c-3.83,0-10,14.16-10,20.9a3,3,0,0,0,2.68,3.06c1.53,0,5.35-2.68,7.5-7.12,1.53-3.21,3.9-12.47,3.9-14.62C682.5,556.62,679.59,555.62,678.37,555.62Z"/><path class="cls-2" d="M728.42,567.41s.69-1.38,1.69-1.38,2.6,1.23,2.6,2.15a8.13,8.13,0,0,1-1,2.67c-4.21,7.66-8.72,14.62-14.23,14.62-3.45,0-9.57-2.91-9.57-5.89,0-6,4.06-16.92,4.06-20.44,0-.84-3.07-1.45-3.07-1.45s-2.67,6.28-6.42,13.16c0,0-.77,1.38-1.69,1.38s-2.68-1.22-2.68-2.06a8.44,8.44,0,0,1,1.07-2.76,127,127,0,0,0,5.52-11.94s-3.22-2-3.22-4.59,3.22-8.58,5.13-8.58c2.22,0,6.12,2.45,6.12,4.21s-1.15,3.52-1.15,5.51,9.72,2.68,9.72,5.9c0,2.52-4.43,16.53-4.43,20.89a1.36,1.36,0,0,0,1.37,1.38C720.54,580.19,724.67,574.3,728.42,567.41Z"/><path class="cls-2" d="M732.63,551.11a2.45,2.45,0,0,1,2.53-1.61c.92,0,6.12,2.75,6.12,4.21,0,1.76-6.2,19-6.2,24.34a2.54,2.54,0,0,0,2,2.14c2.22,0,6.35-5.89,10.26-12.78,0,0,.61-1.38,1.6-1.38s2.61,1.23,2.61,2.15a7.82,7.82,0,0,1-1.07,2.67c-4.14,7.66-8.73,14.62-14.24,14.62-3.45,0-10.33-3.21-10.33-6.66S731.33,555.85,732.63,551.11Zm3.68-8.27c0-2.91,1.76-7.88,4.28-7.88,1.91,0,5.28,1.3,5.28,3.21,0,2.91-1.83,7.88-4.28,7.88C739.67,546.05,736.31,544.75,736.31,542.84Z"/><path class="cls-2" d="M761.56,549.5c5.9,0,14.24,5.59,14.24,10.33,0,8.8-7.12,25.64-15.84,25.64-5.36,0-14.16-5.05-14.16-10.56C745.8,564.27,753.37,549.5,761.56,549.5Zm-3.14,30.69c3.83,0,10.34-14.23,10.34-22,0-1.68-2.07-3.06-3.6-3.06-3.9,0-10.18,13-10.18,21.59A3.7,3.7,0,0,0,758.42,580.19Z"/><path class="cls-2" d="M822.79,536.79c-3.06,0-11.48,10-11.48,16.31,0,6.66,17.61,7.34,17.61,15.08,0,6.58-9.65,17.29-17.53,17.29-6.36,0-15.69-7.11-15.69-11.55,0-2.3,5-8.27,6.58-8.27.84,0,4,2.07,4,3.14s-1.45,4-1.45,6c0,1.68,2.67,5.36,4.51,5.36,4.44,0,9.34-6.28,9.34-10,0-6.66-17.61-7.74-17.61-17.84,0-8.42,13.4-21.2,20.29-21.2,3.21,0,12.09,5.66,12.09,9.49,0,2.22-2.52,6.81-4.44,10-.46.69-.84,1.23-1.45,1.23-1.23,0-4.75-1.84-4.75-3.22a6.47,6.47,0,0,1,.69-2.07c1.07-2.68,2.14-5.28,2.14-7.34C825.62,538.09,823.94,536.79,822.79,536.79Z"/><path class="cls-2" d="M851,580s-7.27,5.43-10.18,5.43c-4,0-10-4.21-10-7.42,0-3.6,5.21-22.27,6.74-27.1.46-1.07,1-1.45,1.68-1.45,1.46,0,6.51,2.68,6.51,4.06a6.81,6.81,0,0,1-.31,1.83c-.53,2-5.43,18.37-5.43,21.89a2.71,2.71,0,0,0,2.07,2.15c3.06,0,8.72-6.74,9.41-9.19C853.48,564,856,554.17,857,551a1.72,1.72,0,0,1,1.61-1.45c1.53,0,6.58,2.68,6.58,4.06a7.22,7.22,0,0,1-.3,1.83c-.69,2-5.82,18.6-5.82,22.66a2.61,2.61,0,0,0,2.07,2.14c2.22,0,6.43-5.89,10.18-12.78,0,0,.69-1.38,1.68-1.38s2.6,1.23,2.6,2.15a8.18,8.18,0,0,1-1,2.67c-4.29,7.66-8.73,14.62-14.24,14.62C856.93,585.47,851.57,582.26,851,580Z"/><path class="cls-2" d="M915.48,580.19c2.3,0,6.43-5.89,10.18-12.78,0,0,.69-1.38,1.68-1.38s2.61,1.23,2.61,2.15a8.13,8.13,0,0,1-1,2.67c-4.28,7.66-8.72,14.62-14.24,14.62-3.44,0-10.33-3.21-10.33-6.66,0-3.75,4.29-17.14,4.29-20a2.79,2.79,0,0,0-2.3-2.6c-1.84,0-6.12,2.52-7,5.05-1.69,4.67-5.06,20.36-5.44,22.5-.23,1.07-.53,1.76-1.68,1.76-1.84,0-6.28-2-6.28-4.05s5-21.51,5-23.2a2,2,0,0,0-2.14-2.14c-1.61,0-6,2-7.12,4.9-2,5-5.51,20.51-6,22.73-.31,1-.54,1.76-1.69,1.76-1.84,0-6.2-2-6.2-4.05s5.82-25.11,7.43-30.31a2.5,2.5,0,0,1,2.52-1.61c1.3,0,5,4.51,5,4.51s6.58-4.51,10.56-4.51c3.44,0,7,5,7,5s7.27-5,11.33-5c2.3,0,6.51,3.14,6.51,6,0,3.6-4.75,18.52-4.75,22.58A2.63,2.63,0,0,0,915.48,580.19Z"/><path class="cls-2" d="M969.9,580.19c2.3,0,6.43-5.89,10.18-12.78,0,0,.69-1.38,1.68-1.38s2.61,1.23,2.61,2.15a8.13,8.13,0,0,1-1,2.67c-4.29,7.66-8.73,14.62-14.24,14.62-3.44,0-10.33-3.21-10.33-6.66,0-3.75,4.29-17.14,4.29-20a2.79,2.79,0,0,0-2.3-2.6c-1.84,0-6.12,2.52-7,5.05-1.69,4.67-5.06,20.36-5.44,22.5-.23,1.07-.53,1.76-1.68,1.76-1.84,0-6.28-2-6.28-4.05s5.05-21.51,5.05-23.2a2,2,0,0,0-2.14-2.14c-1.61,0-6,2-7.12,4.9-2,5-5.51,20.51-6.05,22.73-.3,1-.53,1.76-1.68,1.76-1.84,0-6.2-2-6.2-4.05s5.82-25.11,7.42-30.31a2.52,2.52,0,0,1,2.53-1.61c1.3,0,5,4.51,5,4.51s6.58-4.51,10.56-4.51c3.44,0,7,5,7,5s7.27-5,11.33-5c2.29,0,6.5,3.14,6.5,6,0,3.6-4.74,18.52-4.74,22.58A2.63,2.63,0,0,0,969.9,580.19Z"/><path class="cls-2" d="M994.31,549.5c3.91,0,11,3.83,11,7.12,0,3.82-4.9,16.07-9.87,16.07a30.64,30.64,0,0,1-7.2-1.07,9.56,9.56,0,0,0-.61,3.75c0,1.84,3.29,4.67,6.58,4.67,4.13,0,10.18-2.83,15.16-12.63,0,0,.61-1.38,1.6-1.38s2.61,1.23,2.61,2.15a8.56,8.56,0,0,1-.92,2.67c-5.21,9.88-11.87,14.62-18.07,14.62-6.73,0-16-5-16-10.94C978.55,565.88,987.2,549.5,994.31,549.5Zm4.9,7.88a2.25,2.25,0,0,0-2.29-1.91c-3,0-7.51,9.11-8.19,12.71C996.07,568.18,999.21,559.45,999.21,557.38Z"/><path class="cls-2" d="M1038.55,567.41s.69-1.38,1.69-1.38,2.6,1.23,2.6,2.15a8.13,8.13,0,0,1-1,2.67c-4.21,7.66-8.72,14.62-14.23,14.62-3.45,0-9.57-2.91-9.57-5.89,0-6,4.06-16.92,4.06-20.44,0-.84-3.07-1.45-3.07-1.45s-2.67,6.28-6.43,13.16c0,0-.76,1.38-1.68,1.38s-2.68-1.22-2.68-2.06a8.44,8.44,0,0,1,1.07-2.76,125.7,125.7,0,0,0,5.51-11.94s-3.21-2-3.21-4.59,3.21-8.58,5.13-8.58c2.22,0,6.12,2.45,6.12,4.21s-1.15,3.52-1.15,5.51,9.72,2.68,9.72,5.9c0,2.52-4.44,16.53-4.44,20.89a1.37,1.37,0,0,0,1.38,1.38C1030.67,580.19,1034.8,574.3,1038.55,567.41Z"/><path class="cls-2" d="M663,605.07h6.3a1.27,1.27,0,0,1,1.1.49,1.7,1.7,0,0,1,.37,1.08,1.88,1.88,0,0,1-.37,1.12,1.34,1.34,0,0,1-1.1.55h-3.5a1.89,1.89,0,0,0-1.1.35,1.28,1.28,0,0,0-.5,1.12v3.77a1.75,1.75,0,0,0,.27,1.08,1,1,0,0,0,1,.42h2.67a1.27,1.27,0,0,1,1.09.48,1.84,1.84,0,0,1,.35,1.09,2,2,0,0,1-.35,1.11,1.23,1.23,0,0,1-1.09.52h-2.73a1.17,1.17,0,0,0-.82.32,1.41,1.41,0,0,0-.35,1.08v7.08a1.59,1.59,0,0,1-.5,1.28,1.68,1.68,0,0,1-1.1.42,1.67,1.67,0,0,1-1.1-.42,1.51,1.51,0,0,1-.5-1.25V616c0-1.51,0-3,0-4.53s0-3,0-4.54c0-.76.18-1.26.56-1.5A2.41,2.41,0,0,1,663,605.07Z"/><path class="cls-2" d="M674.37,615.72v-9a1.57,1.57,0,0,1,.5-1.29,1.72,1.72,0,0,1,2.23,0,1.52,1.52,0,0,1,.5,1.25v20a1.57,1.57,0,0,1-.5,1.27,1.66,1.66,0,0,1-2.23,0,1.6,1.6,0,0,1-.5-1.3Z"/><path class="cls-2" d="M692.67,628a1.24,1.24,0,0,1-.84.45,1.58,1.58,0,0,1-1-.25,1.89,1.89,0,0,1-.77-.93l-4.54-10a.66.66,0,0,0-.25-.39.35.35,0,0,0-.28,0,.42.42,0,0,0-.22.2.67.67,0,0,0-.08.28v9.48a1.6,1.6,0,0,1-.5,1.27,1.63,1.63,0,0,1-1.1.43A1.71,1.71,0,0,1,682,628a1.63,1.63,0,0,1-.52-1.3v-20a1.68,1.68,0,0,1,.39-1.16,1.6,1.6,0,0,1,.91-.54,1.65,1.65,0,0,1,1.87,1.14c.31.8.66,1.66,1,2.58s.75,1.87,1.13,2.84.75,1.91,1.12,2.83.7,1.79,1,2.59a.53.53,0,0,0,.28.28.32.32,0,0,0,.27,0,.48.48,0,0,0,.2-.15.32.32,0,0,0,.08-.2V606.81a1.55,1.55,0,0,1,.52-1.27,1.7,1.7,0,0,1,1.12-.43,1.73,1.73,0,0,1,1.1.41,1.56,1.56,0,0,1,.5,1.25v20A1.81,1.81,0,0,1,692.67,628Z"/><path class="cls-2" d="M698.72,605.14l2.59,0a9,9,0,0,1,2,.2A4.67,4.67,0,0,1,706,607a10.22,10.22,0,0,1,1.67,3,17.61,17.61,0,0,1,.88,3.52,20.24,20.24,0,0,1,0,6.59,18.32,18.32,0,0,1-.88,3.52,10.65,10.65,0,0,1-1.67,3,4.7,4.7,0,0,1-2.65,1.67,10.28,10.28,0,0,1-2,.21l-2.59,0a2.81,2.81,0,0,1-.58-.07,1.82,1.82,0,0,1-.67-.25,1.49,1.49,0,0,1-.53-.53,1.67,1.67,0,0,1-.22-.92V606.87a1.62,1.62,0,0,1,.22-.9,1.52,1.52,0,0,1,.53-.51,1.82,1.82,0,0,1,.67-.25A2.81,2.81,0,0,1,698.72,605.14Zm6.67,11.61a17.53,17.53,0,0,0-.23-2.92,11.89,11.89,0,0,0-.68-2.54,5.74,5.74,0,0,0-1.09-1.78,2,2,0,0,0-1.43-.67h-.9a.74.74,0,0,0-.57.22,1.44,1.44,0,0,0-.3.53,2.18,2.18,0,0,0-.1.67v13a2.07,2.07,0,0,0,.1.66,1.57,1.57,0,0,0,.3.54.74.74,0,0,0,.57.21h.9a1.89,1.89,0,0,0,1.43-.68,5.86,5.86,0,0,0,1.09-1.82,11.83,11.83,0,0,0,.68-2.55A17.53,17.53,0,0,0,705.39,616.75Z"/><path class="cls-2" d="M725.45,615.62l-1.11-2.14c-.44-.87-.89-1.72-1.33-2.57l-1.2-2.25c-.36-.66-.57-1.06-.63-1.22a1.47,1.47,0,0,1-.14-1.35,1.69,1.69,0,0,1,.8-.88,1.67,1.67,0,0,1,1.17-.12,1.61,1.61,0,0,1,1,.92l2.41,4.67a1.94,1.94,0,0,0,1.1,1c.4.1.8-.23,1.2-1l2.43-4.74a1.53,1.53,0,0,1,1-.88,1.68,1.68,0,0,1,2,1,1.56,1.56,0,0,1-.15,1.37c-.07.16-.27.56-.62,1.22s-.74,1.4-1.18,2.22-.89,1.66-1.34,2.52l-1.1,2.12a5.8,5.8,0,0,0-.4,1.1,4.41,4.41,0,0,0-.16,1.1v9a1.56,1.56,0,0,1-.5,1.25,1.71,1.71,0,0,1-2.22,0,1.55,1.55,0,0,1-.52-1.29v-8.91A4.57,4.57,0,0,0,725.45,615.62Z"/><path class="cls-2" d="M747.9,622.59a5.74,5.74,0,0,1-.82,3.18,5.42,5.42,0,0,1-2,1.94,5.74,5.74,0,0,1-5.25.07,5.25,5.25,0,0,1-2-1.89,6,6,0,0,1-.85-3.2q0-1.5,0-3v-6q0-1.5,0-3a5.94,5.94,0,0,1,.85-3.17,5.33,5.33,0,0,1,2-1.89,5.74,5.74,0,0,1,5.25.07,5.42,5.42,0,0,1,2,1.94,5.74,5.74,0,0,1,.82,3.18v11.78Zm-3.3-6v-6.11a2,2,0,0,0-.72-1.7,2.39,2.39,0,0,0-1.57-.55,2.25,2.25,0,0,0-1.53.65,2.38,2.38,0,0,0-.65,1.93v11.72a2.38,2.38,0,0,0,.65,1.93,2.25,2.25,0,0,0,1.53.65,2.39,2.39,0,0,0,1.57-.55,2,2,0,0,0,.72-1.7Z"/><path class="cls-2" d="M762.51,622.59a6,6,0,0,1-.8,3.2,5.23,5.23,0,0,1-2,2,5.55,5.55,0,0,1-2.63.67,5.63,5.63,0,0,1-2.64-.6,5.16,5.16,0,0,1-2-1.89,5.91,5.91,0,0,1-.85-3.2q-.07-4,0-8t0-8a1.58,1.58,0,0,1,.52-1.3,1.69,1.69,0,0,1,2.25,0,1.56,1.56,0,0,1,.5,1.25v16a2.6,2.6,0,0,0,.29,1.43,2.08,2.08,0,0,0,.81.85,2.32,2.32,0,0,0,1.09.3,2.12,2.12,0,0,0,1.1-.25,2.21,2.21,0,0,0,.85-.76,2.28,2.28,0,0,0,.33-1.27q0-4,0-8t0-8.08a1.57,1.57,0,0,1,.51-1.28,1.7,1.7,0,0,1,2.24,0,1.54,1.54,0,0,1,.52,1.25v7.94C762.55,617.31,762.53,619.94,762.51,622.59Z"/><path class="cls-2" d="M766.35,616.75v-9.64a2,2,0,0,1,.2-.87,2.14,2.14,0,0,1,.5-.67,2.63,2.63,0,0,1,.65-.41,1.39,1.39,0,0,1,.68-.12h4.87a3.54,3.54,0,0,1,2,.62,5.49,5.49,0,0,1,1.53,1.61,8.35,8.35,0,0,1,1,2.29,11.05,11.05,0,0,1,.38,2.62,11.28,11.28,0,0,1-.06,1.7,8.67,8.67,0,0,1-.32,1.4,7.63,7.63,0,0,1-.57,1.32c-.23.43-.52.91-.85,1.42a5,5,0,0,0-.37.65,3.48,3.48,0,0,0-.25.77,2.6,2.6,0,0,0,0,.88,3.32,3.32,0,0,0,.39,1l2.07,4.74a1.47,1.47,0,0,1,.08,1.33,1.68,1.68,0,0,1-.83.85,1.73,1.73,0,0,1-1.19.09,1.58,1.58,0,0,1-1-.94l-3-6.37a1.52,1.52,0,0,0-.7-.75,1.36,1.36,0,0,0-.88-.13,1.27,1.27,0,0,0-.77.46,1.62,1.62,0,0,0-.32,1v5.08a1.52,1.52,0,0,1-.5,1.25,1.71,1.71,0,0,1-1.1.41,1.6,1.6,0,0,1-1.6-1.73Zm3.23-2.17a1.56,1.56,0,0,0,.49,1.12,1.43,1.43,0,0,0,1.18.42h1.37a1.81,1.81,0,0,0,1.1-.35,3.1,3.1,0,0,0,.79-.92,4.58,4.58,0,0,0,.46-1.29,6,6,0,0,0,.12-1.48,6.67,6.67,0,0,0-.22-1.42,4.34,4.34,0,0,0-.53-1.22,2.81,2.81,0,0,0-.89-.86,2.19,2.19,0,0,0-1.23-.34h-1a1.63,1.63,0,0,0-1.07.42,1.55,1.55,0,0,0-.54,1.18Z"/><path class="cls-2" d="M792.77,608.94a1.78,1.78,0,0,1-1.08,2.41,1.82,1.82,0,0,1-1.24,0,1.27,1.27,0,0,1-.78-1,2,2,0,0,0-.6-1,2.47,2.47,0,0,0-1-.57,2.6,2.6,0,0,0-1.15-.07,2.37,2.37,0,0,0-1.06.47,2.22,2.22,0,0,0-.72,1,3.52,3.52,0,0,0-.12,1.69,2.33,2.33,0,0,0,.6,1.15,10,10,0,0,0,1.24,1.11c.49.38,1,.77,1.58,1.17s1.11.81,1.64,1.24a12.25,12.25,0,0,1,1.43,1.35,4.67,4.67,0,0,1,1,1.55,6.39,6.39,0,0,1,.35,1.78,7.38,7.38,0,0,1-.13,1.82,7.29,7.29,0,0,1-.59,1.74,5.56,5.56,0,0,1-1,1.46,6.28,6.28,0,0,1-2.92,1.89,6.77,6.77,0,0,1-3.3.2,6.15,6.15,0,0,1-2.92-1.45,5.56,5.56,0,0,1-1.73-3.1,1.94,1.94,0,0,1,1.15-2.49,1.8,1.8,0,0,1,1.25,0,1.33,1.33,0,0,1,.8,1.05,3.57,3.57,0,0,0,.83,1.71,2.72,2.72,0,0,0,1.36.81,2.59,2.59,0,0,0,1.53-.08,3,3,0,0,0,1.38-1,3.2,3.2,0,0,0,.62-1.51,4.09,4.09,0,0,0-.08-1.6,2.82,2.82,0,0,0-.8-1.26,10.62,10.62,0,0,0-1.42-1.11l-1.72-1.1a10.48,10.48,0,0,1-1.68-1.3,6.41,6.41,0,0,1-1.32-1.72,5.19,5.19,0,0,1-.6-2.31,6.58,6.58,0,0,1,.57-3.29,5.76,5.76,0,0,1,1.75-2.2,6,6,0,0,1,2.45-1.1,5.92,5.92,0,0,1,2.65,0,5.48,5.48,0,0,1,2.32,1.22A5.09,5.09,0,0,1,792.77,608.94Z"/><path class="cls-2" d="M798.48,605h6.3a1.27,1.27,0,0,1,1.09.48,1.81,1.81,0,0,1,.35,1.08,1.93,1.93,0,0,1-.37,1.12,1.3,1.3,0,0,1-1.07.55h-3.5a1.89,1.89,0,0,0-1.1.35,1.27,1.27,0,0,0-.5,1.12v3.77a1.74,1.74,0,0,0,.26,1.1,1,1,0,0,0,.94.4h2.67a1.28,1.28,0,0,1,1.1.49,1.76,1.76,0,0,1,.37,1.08,2,2,0,0,1-.37,1.12,1.24,1.24,0,0,1-1.07.51h-2.77a1.21,1.21,0,0,0-.82.32,1.35,1.35,0,0,0-.31,1.09c0,.62.05,1.24,0,1.85s0,1.24,0,1.88a3,3,0,0,0,.26,1.22c.18.39.59.58,1.24.58h3.6a1.28,1.28,0,0,1,1.09.49,1.81,1.81,0,0,1,.35,1.08,1.93,1.93,0,0,1-.37,1.12,1.35,1.35,0,0,1-1.1.55h-6.31a2.57,2.57,0,0,1-1.1-.2,1.48,1.48,0,0,1-.6-.53,2.14,2.14,0,0,1-.25-.75,8.11,8.11,0,0,1,0-.86V611.38c0-1.51,0-3,0-4.54a1.66,1.66,0,0,1,.56-1.5A2.41,2.41,0,0,1,798.48,605Z"/><path class="cls-2" d="M813.12,623.32a2.86,2.86,0,0,0,.27,1.22c.18.39.6.58,1.27.58h3.57a1.31,1.31,0,0,1,1.1.49,1.76,1.76,0,0,1,.37,1.08,1.93,1.93,0,0,1-.37,1.12,1.35,1.35,0,0,1-1.1.55h-6.34a2.23,2.23,0,0,1-1.1-.22,1.49,1.49,0,0,1-.6-.53,1.62,1.62,0,0,1-.24-.73c0-.28,0-.57,0-.86V606.51a1.61,1.61,0,0,1,1.6-1.74,1.67,1.67,0,0,1,1.1.42,1.52,1.52,0,0,1,.5,1.25v16.88Z"/><path class="cls-2" d="M824.7,605.07H831a1.3,1.3,0,0,1,1.1.49,1.76,1.76,0,0,1,.36,1.08,1.94,1.94,0,0,1-.36,1.12,1.37,1.37,0,0,1-1.1.55H827.5a1.92,1.92,0,0,0-1.1.35,1.28,1.28,0,0,0-.5,1.12v3.77a1.75,1.75,0,0,0,.27,1.08,1,1,0,0,0,1,.42h2.67a1.25,1.25,0,0,1,1.08.48,1.84,1.84,0,0,1,.35,1.09,2,2,0,0,1-.35,1.11,1.21,1.21,0,0,1-1.08.52h-2.74a1.21,1.21,0,0,0-.82.32,1.41,1.41,0,0,0-.35,1.08v7.08a1.59,1.59,0,0,1-.5,1.28,1.65,1.65,0,0,1-2.2,0,1.54,1.54,0,0,1-.5-1.25V616c0-1.51,0-3,0-4.53s0-3,0-4.54a1.65,1.65,0,0,1,.57-1.5A2.36,2.36,0,0,1,824.7,605.07Z"/><path class="cls-2" d="M853.59,607.14l2.84,12,1.73,7.51a1.34,1.34,0,0,1-.26,1.17,1.74,1.74,0,0,1-1,.58,1.63,1.63,0,0,1-1.15-.2,1.48,1.48,0,0,1-.7-1.15l-.3-1.57a2,2,0,0,0-.47-1,1.18,1.18,0,0,0-1-.38h-3.34a1.91,1.91,0,0,0-1,.2,1.5,1.5,0,0,0-.73,1l-.6,2a1.21,1.21,0,0,1-.72.9,1.68,1.68,0,0,1-1.1.1,1.62,1.62,0,0,1-.92-.61,1.56,1.56,0,0,1-.2-1.29l4.57-19.31a2.89,2.89,0,0,1,1-1.62,1.92,1.92,0,0,1,2.65.08A2.56,2.56,0,0,1,853.59,607.14Zm-2.87,7c-.18.89-.34,1.77-.5,2.64s-.32,1.73-.5,2.6a1.25,1.25,0,0,0,.09.84.79.79,0,0,0,.78.36h1.9c.4,0,.66-.12.77-.38a1.35,1.35,0,0,0,.07-.82l-1.14-5.24a.84.84,0,0,0-.27-.51.79.79,0,0,0-.41-.22.59.59,0,0,0-.45.15A1,1,0,0,0,850.72,614.11Z"/><path class="cls-2" d="M863,615.82l0-5.81c0-.6-.18-1-.48-1.15a2,2,0,0,0-1.12-.22h-1.5a1.51,1.51,0,0,1-1.27-.55,1.9,1.9,0,0,1-.43-1.22,2,2,0,0,1,.42-1.23,1.47,1.47,0,0,1,1.28-.57h9.51a1.51,1.51,0,0,1,1.28.55,2,2,0,0,1,.42,1.22,2,2,0,0,1-.42,1.22,1.45,1.45,0,0,1-1.25.55l-1.9,0a1.35,1.35,0,0,0-1,.25,1.63,1.63,0,0,0-.28,1.12v16.72a1.56,1.56,0,0,1-.5,1.25,1.68,1.68,0,0,1-2.2,0,1.57,1.57,0,0,1-.5-1.29Z"/><path class="cls-2" d="M886.15,613.11a1.92,1.92,0,0,0,.32,1.17,1.1,1.1,0,0,0,1,.53h2.26a1.09,1.09,0,0,0,.95-.51,2,2,0,0,0,.35-1.19v-6.37a1.61,1.61,0,0,1,.51-1.3,1.63,1.63,0,0,1,1.1-.43,1.73,1.73,0,0,1,1.1.41,1.56,1.56,0,0,1,.5,1.25v20.06a1.56,1.56,0,0,1-.5,1.25,1.73,1.73,0,0,1-1.1.41,1.63,1.63,0,0,1-1.1-.43,1.61,1.61,0,0,1-.51-1.3V620a1.54,1.54,0,0,0-.46-1.15,1.38,1.38,0,0,0-.9-.38h-2.17a1.31,1.31,0,0,0-.9.4,1.51,1.51,0,0,0-.44,1.17v6.67a1.61,1.61,0,0,1-.51,1.3,1.68,1.68,0,0,1-2.22,0,1.52,1.52,0,0,1-.5-1.25V606.67a1.52,1.52,0,0,1,.5-1.25,1.72,1.72,0,0,1,1.12-.41,1.63,1.63,0,0,1,1.11.43,1.6,1.6,0,0,1,.5,1.3Z"/><path class="cls-2" d="M908.91,622.59a5.82,5.82,0,0,1-.82,3.18,5.5,5.5,0,0,1-2,1.94,5.74,5.74,0,0,1-5.25.07,5.18,5.18,0,0,1-2-1.89,6,6,0,0,1-.85-3.2q0-1.5,0-3v-6q0-1.5,0-3a5.94,5.94,0,0,1,.85-3.17,5.26,5.26,0,0,1,2-1.89,5.74,5.74,0,0,1,5.25.07,5.5,5.5,0,0,1,2,1.94,5.82,5.82,0,0,1,.82,3.18v11.78Zm-3.31-6v-6.11a2,2,0,0,0-.71-1.7,2.39,2.39,0,0,0-1.57-.55,2.29,2.29,0,0,0-1.54.65,2.45,2.45,0,0,0-.65,1.93v11.72a2.45,2.45,0,0,0,.65,1.93,2.29,2.29,0,0,0,1.54.65,2.39,2.39,0,0,0,1.57-.55,2,2,0,0,0,.71-1.7Z"/><path class="cls-2" d="M912.61,615.75v-9a1.73,1.73,0,0,1,.38-1.17,1.64,1.64,0,0,1,.92-.53,1.56,1.56,0,0,1,1.05.17,1.81,1.81,0,0,1,.82.93l3.37,8.17c.36.81.68,1.22,1,1.26s.61-.41,1-1.32l3.27-8a2,2,0,0,1,.82-1,1.6,1.6,0,0,1,1-.21,1.55,1.55,0,0,1,.9.45,1.52,1.52,0,0,1,.47.95v20.25a1.6,1.6,0,0,1-1.6,1.73,1.75,1.75,0,0,1-1.11-.41,1.56,1.56,0,0,1-.5-1.25v-9.31a1,1,0,0,0-.08-.62.39.39,0,0,0-.28-.2.5.5,0,0,0-.34.1.58.58,0,0,0-.23.32q-.46,1.17-.87,2.1c-.26.62-.55,1.31-.86,2.07a1.91,1.91,0,0,1-.67.9,1.76,1.76,0,0,1-.9.32,1.61,1.61,0,0,1-.92-.27,1.74,1.74,0,0,1-.68-.89l-1.71-4.13a.61.61,0,0,0-.31-.4.4.4,0,0,0-.34,0,.47.47,0,0,0-.23.23.61.61,0,0,0-.08.3v9.48a1.56,1.56,0,0,1-.5,1.25,1.76,1.76,0,0,1-1.12.41,1.66,1.66,0,0,1-1.12-.43,1.64,1.64,0,0,1-.5-1.3Z"/><path class="cls-2" d="M933.13,605h6.3a1.26,1.26,0,0,1,1.09.48,1.81,1.81,0,0,1,.35,1.08,1.86,1.86,0,0,1-.37,1.12,1.28,1.28,0,0,1-1.07.55h-3.5a1.89,1.89,0,0,0-1.1.35,1.29,1.29,0,0,0-.5,1.12v3.77a1.74,1.74,0,0,0,.27,1.1,1,1,0,0,0,.93.4h2.67a1.27,1.27,0,0,1,1.1.49,1.7,1.7,0,0,1,.37,1.08,1.88,1.88,0,0,1-.37,1.12,1.23,1.23,0,0,1-1.07.51h-2.77a1.17,1.17,0,0,0-.81.32,1.32,1.32,0,0,0-.32,1.09,16.35,16.35,0,0,1,0,1.85c0,.61,0,1.24,0,1.88a2.86,2.86,0,0,0,.27,1.22c.17.39.59.58,1.23.58h3.6a1.26,1.26,0,0,1,1.09.49,1.81,1.81,0,0,1,.35,1.08,1.86,1.86,0,0,1-.37,1.12,1.34,1.34,0,0,1-1.1.55h-6.3a2.59,2.59,0,0,1-1.11-.2,1.48,1.48,0,0,1-.6-.53,2.14,2.14,0,0,1-.25-.75,8.11,8.11,0,0,1,0-.86V611.38c0-1.51,0-3,0-4.54a1.69,1.69,0,0,1,.56-1.5A2.41,2.41,0,0,1,933.13,605Z"/><line id="top" class="cls-3" x1="560.04" y1="510.51" x2="1045.5" y2="510.51"/><line id="bottom" class="cls-3" x1="559.45" y1="648.98" x2="1045.5" y2="648.98"/><path id="triangle_inside" data-name="triangle inside" class="cls-4" d="M705.73,510.38,640.32,447a6.85,6.85,0,0,1,0-9.69L799.9,277.67a6.84,6.84,0,0,1,9.67,0l159.6,159.6a6.85,6.85,0,0,1,0,9.66l-63.5,63.43-2.31-2.31,63.49-63.43a3.58,3.58,0,0,0,0-5L807.25,280a3.57,3.57,0,0,0-5,0L642.62,439.58a3.57,3.57,0,0,0,0,5L708,508Z"/><path id="triangle_outside" data-name="triangle outside" class="cls-4" d="M687.05,510.84l-64.31-63a8,8,0,0,1,0-11.38L799.05,260.09a8,8,0,0,1,11.36,0L986.74,436.42a8,8,0,0,1,0,11.35l-61.43,63L922,507.61l61.45-63.06a3.46,3.46,0,0,0,0-4.89L807.17,263.33a3.43,3.43,0,0,0-4.88,0L626,439.65a3.45,3.45,0,0,0,0,4.88l64.29,63Z"/><path id="sun" class="cls-4" d="M780,379.2a31.75,31.75,0,0,1-5.45-17.93c0-17.08,13.27-31,29.59-31s29.6,13.9,29.6,31a31.82,31.82,0,0,1-5.43,17.9l-2.71-1.83a28.53,28.53,0,0,0,4.87-16.07c0-15.28-11.81-27.71-26.33-27.71S777.8,346,777.8,361.27a28.54,28.54,0,0,0,4.89,16.1Z"/><g id="river"><path class="cls-4" d="M771.64,472.49H713.77a2,2,0,0,1,0-3.93h57.87a2,2,0,0,1,0,3.93Z"/><path class="cls-4" d="M778.45,484.63H735.71a2,2,0,0,1,0-3.92h42.74a2,2,0,0,1,0,3.92Z"/><path class="cls-4" d="M823.29,484.63h-33a2,2,0,0,1,0-3.92h33a2,2,0,0,1,0,3.92Z"/><path class="cls-4" d="M890.9,472.49H780.78a2,2,0,0,1,0-3.93H890.9a2,2,0,1,1,0,3.93Z"/><path class="cls-4" d="M874.22,484.63H837.69a2,2,0,0,1,0-3.92h36.53a2,2,0,1,1,0,3.92Z"/><path class="cls-4" d="M799.82,497.29H757.08a2,2,0,1,1,0-3.92h42.74a2,2,0,0,1,0,3.92Z"/><path class="cls-4" d="M852.17,497.29H809.43a2,2,0,1,1,0-3.92h42.74a2,2,0,1,1,0,3.92Z"/></g><g id="Left_trees" data-name="Left trees"><path class="cls-4" d="M880,460a.93.93,0,1,0,1.21,1.42l2-1.68V468a.93.93,0,0,0,1.86,0v-8.23l2,1.68a.93.93,0,0,0,.6.22.93.93,0,0,0,.61-1.64l-3.2-2.7v-2.1l2,1.68a.93.93,0,0,0,.6.22.94.94,0,0,0,.61-1.65l-3.2-2.69v-2.1l2,1.68a.93.93,0,0,0,.6.22.94.94,0,0,0,.61-1.65l-3.53-3a.91.91,0,0,0-1.2,0l-3.53,3a.94.94,0,0,0,1.21,1.43l2-1.68v2.1l-3.2,2.69a.94.94,0,0,0,1.21,1.43l2-1.68v2.1Z"/><path class="cls-4" d="M863.18,457.6a1.19,1.19,0,1,0,1.53,1.81l2.53-2.13v10.45a1.19,1.19,0,0,0,2.37,0V457.28l2.53,2.13a1.15,1.15,0,0,0,.76.28,1.18,1.18,0,0,0,.76-2.09l-4-3.42v-2.67l2.53,2.13a1.15,1.15,0,0,0,.76.28,1.18,1.18,0,0,0,.76-2.09l-4-3.42v-2.67l2.53,2.14a1.19,1.19,0,0,0,1.67-.14,1.19,1.19,0,0,0-.15-1.67l-4.47-3.78a1.17,1.17,0,0,0-1.53,0l-4.48,3.78a1.19,1.19,0,0,0,1.53,1.81l2.53-2.14v2.67l-4.06,3.42a1.19,1.19,0,0,0,1.53,1.81l2.53-2.13v2.67Z"/><path class="cls-4" d="M849.62,460a.93.93,0,1,0,1.2,1.42l2-1.68V468a.94.94,0,0,0,1.87,0v-8.23l2,1.68a.89.89,0,0,0,.6.22.92.92,0,0,0,.71-.33.93.93,0,0,0-.11-1.31l-3.19-2.7v-2.1l2,1.68a.89.89,0,0,0,.6.22.92.92,0,0,0,.71-.33,1,1,0,0,0-.11-1.32l-3.19-2.69v-2.1l2,1.68a.89.89,0,0,0,.6.22.92.92,0,0,0,.71-.33.94.94,0,0,0-.11-1.32l-3.52-3a.93.93,0,0,0-1.21,0l-3.52,3a.93.93,0,0,0,1.2,1.43l2-1.68v2.1l-3.19,2.69a.93.93,0,0,0,1.2,1.43l2-1.68v2.1Z"/></g><g id="Right_tree" data-name="Right tree"><path class="cls-4" d="M819.88,459a1,1,0,1,0,1.34,1.59l2.21-1.87v9.15a1,1,0,1,0,2.08,0v-9.15l2.21,1.87a1,1,0,0,0,1.34-1.59l-3.55-3v-2.34l2.21,1.87a1,1,0,0,0,.67.25,1,1,0,0,0,.67-1.83l-3.55-3v-2.34l2.21,1.87a1,1,0,0,0,1.34-1.59l-3.92-3.31a1.06,1.06,0,0,0-1.34,0l-3.92,3.31a1,1,0,1,0,1.34,1.59l2.21-1.87V451l-3.55,3a1,1,0,0,0-.13,1.46,1,1,0,0,0,1.47.12l2.21-1.87V456Z"/><path class="cls-4" d="M801.14,456.33a1.32,1.32,0,1,0,1.7,2l2.81-2.37v11.62a1.32,1.32,0,0,0,2.64,0V456l2.81,2.37a1.29,1.29,0,0,0,.85.31,1.36,1.36,0,0,0,1-.46,1.34,1.34,0,0,0-.16-1.86l-4.51-3.81v-3l2.81,2.37a1.29,1.29,0,0,0,.85.31,1.31,1.31,0,0,0,.85-2.32l-4.51-3.81v-3l2.81,2.37a1.29,1.29,0,0,0,.85.31,1.31,1.31,0,0,0,.85-2.32l-5-4.21a1.33,1.33,0,0,0-1.7,0l-5,4.21a1.32,1.32,0,1,0,1.7,2l2.81-2.37v3l-4.51,3.81a1.32,1.32,0,1,0,1.7,2l2.81-2.37v3Z"/><path class="cls-4" d="M786,459a1,1,0,0,0,1.34,1.59l2.21-1.87v9.15a1,1,0,0,0,2.08,0v-9.15l2.21,1.87a1.08,1.08,0,0,0,.67.24,1,1,0,0,0,.67-1.83l-3.55-3v-2.34l2.21,1.87a1,1,0,0,0,.67.25,1.06,1.06,0,0,0,.8-.37,1,1,0,0,0-.13-1.46l-3.55-3v-2.34l2.21,1.87a1.08,1.08,0,0,0,.67.24,1,1,0,0,0,.67-1.83l-3.92-3.31a1.06,1.06,0,0,0-1.34,0L786,448.89a1,1,0,0,0-.12,1.47,1,1,0,0,0,1.46.12l2.21-1.87V451L786,454a1,1,0,0,0,1.34,1.58l2.21-1.87V456Z"/></g><g id="Right_tree-2" data-name="Right tree"><path class="cls-4" d="M752.89,458.67a1.11,1.11,0,0,0,1.43,1.7l2.37-2v9.78a1.11,1.11,0,1,0,2.21,0v-9.78l2.37,2a1.13,1.13,0,0,0,.71.26,1.11,1.11,0,0,0,.72-2l-3.8-3.21V453l2.37,2a1.09,1.09,0,0,0,.71.27,1.11,1.11,0,0,0,.85-.4,1.1,1.1,0,0,0-.13-1.56l-3.8-3.21v-2.49l2.37,2a1.08,1.08,0,0,0,.71.26,1.11,1.11,0,0,0,.72-1.95l-4.19-3.54a1.11,1.11,0,0,0-1.43,0l-4.19,3.54a1.11,1.11,0,0,0,1.43,1.69l2.37-2v2.49l-3.8,3.21a1.11,1.11,0,0,0,1.43,1.69l2.37-2v2.49Z"/><path class="cls-4" d="M732.86,455.81a1.41,1.41,0,0,0,1.82,2.16l3-2.54v12.42a1.41,1.41,0,1,0,2.82,0V455.43l3,2.54a1.41,1.41,0,0,0,2-.17,1.41,1.41,0,0,0-.17-2l-4.82-4.07v-3.17l3,2.54a1.41,1.41,0,0,0,2-.17,1.41,1.41,0,0,0-.17-2l-4.82-4.07v-3.17l3,2.54a1.41,1.41,0,0,0,2-.17,1.41,1.41,0,0,0-.17-2L740,437.6a1.42,1.42,0,0,0-1.82,0l-5.32,4.49a1.41,1.41,0,0,0,1.82,2.16l3-2.54v3.17L732.86,449a1.41,1.41,0,0,0,1.82,2.16l3-2.54v3.17Z"/><path class="cls-4" d="M716.73,458.67a1.11,1.11,0,0,0,1.43,1.7l2.37-2v9.78a1.11,1.11,0,0,0,2.22,0v-9.78l2.36,2a1.14,1.14,0,0,0,.72.26,1.13,1.13,0,0,0,.85-.4,1.11,1.11,0,0,0-.14-1.56l-3.79-3.21V453l2.36,2a1.09,1.09,0,0,0,.72.27,1.13,1.13,0,0,0,.85-.4,1.11,1.11,0,0,0-.14-1.56l-3.79-3.21v-2.49l2.36,2a1.08,1.08,0,0,0,.72.26,1.1,1.1,0,0,0,.71-1.95l-4.19-3.54a1.11,1.11,0,0,0-1.43,0l-4.19,3.54a1.11,1.11,0,0,0,1.43,1.69l2.37-2v2.49l-3.8,3.21a1.11,1.11,0,0,0,1.43,1.69l2.37-2v2.49Z"/></g><g id="hills"><path class="cls-4" d="M968,443.64H915.75a1.63,1.63,0,0,1-1.13-.45l-49.24-47.05L827.31,434.2a1.63,1.63,0,0,1-2.31-2.31l39.2-39.19a1.63,1.63,0,0,1,2.28,0l49.92,47.7H968a1.64,1.64,0,1,1,0,3.27Z"/><path class="cls-4" d="M839,429.94a1.61,1.61,0,0,1-1.15-.48,1.63,1.63,0,0,1,0-2.31l8.94-9a1.64,1.64,0,0,1,2.32,2.31l-8.94,9A1.65,1.65,0,0,1,839,429.94Z"/><path class="cls-4" d="M890.69,427.6a1.63,1.63,0,0,1-1.14-.46l-6-5.81a1.64,1.64,0,0,1,2.29-2.35l6,5.82a1.63,1.63,0,0,1,0,2.31A1.61,1.61,0,0,1,890.69,427.6Z"/><path class="cls-4" d="M879.07,416.26a1.61,1.61,0,0,1-1.14-.46l-11.3-11a1.63,1.63,0,1,1,2.28-2.34l11.3,11a1.63,1.63,0,0,1-1.14,2.8Z"/><path class="cls-4" d="M683.77,444.05H641.46a1.64,1.64,0,0,1,0-3.27h41.65L733,393.07a1.63,1.63,0,0,1,2.28,0l39.2,39.2a1.64,1.64,0,1,1-2.32,2.31l-38.06-38.07-49.24,47A1.6,1.6,0,0,1,683.77,444.05Z"/><path class="cls-4" d="M748,409.52a1.67,1.67,0,0,1-1.23-.55,1.64,1.64,0,0,1,.14-2.31l57.3-50.89a1.63,1.63,0,0,1,2.21,0l49.66,47.13a1.63,1.63,0,0,1-2.25,2.37l-48.57-46.09-56.18,49.9A1.66,1.66,0,0,1,748,409.52Z"/><path class="cls-4" d="M762.91,405.41a1.64,1.64,0,0,1-1.16-2.79l9-9A1.63,1.63,0,0,1,773,396l-8.95,9A1.64,1.64,0,0,1,762.91,405.41Z"/><path class="cls-4" d="M776.8,393.05a1.65,1.65,0,0,1-1.23-.56,1.63,1.63,0,0,1,.15-2.3l21.82-19.26a1.63,1.63,0,1,1,2.16,2.45l-21.82,19.26A1.64,1.64,0,0,1,776.8,393.05Z"/><path class="cls-4" d="M760.48,430.34a1.64,1.64,0,0,1-1.16-.48l-8.94-9a1.64,1.64,0,1,1,2.32-2.31l8.94,9a1.64,1.64,0,0,1,0,2.31A1.61,1.61,0,0,1,760.48,430.34Z"/><path class="cls-4" d="M708.83,428a1.61,1.61,0,0,1-1.17-.49,1.64,1.64,0,0,1,0-2.32l6-5.81a1.64,1.64,0,0,1,2.29,2.34l-6,5.82A1.63,1.63,0,0,1,708.83,428Z"/><path class="cls-4" d="M720.45,416.67a1.64,1.64,0,0,1-1.14-2.81l11.3-11a1.63,1.63,0,1,1,2.28,2.34l-11.3,11A1.64,1.64,0,0,1,720.45,416.67Z"/></g></g></g></g></svg>