<?xml version="1.0" encoding="utf-8"?>
<!-- Generator: Adobe Illustrator 23.0.6, SVG Export Plug-In . SVG Version: 6.00 Build 0)  -->
<svg version="1.1" id="Layer_1" xmlns="http://www.w3.org/2000/svg" xmlns:xlink="http://www.w3.org/1999/xlink" x="0px" y="0px"
	 viewBox="0 0 457.3 375.2" style="enable-background:new 0 0 457.3 375.2;" xml:space="preserve">
<style type="text/css">
	.st0{enable-background:new    ;}
	.st1{fill:#FA8565;}
</style>
<g class="st0">
	<path class="st1" d="M0,253c0-29,5.9-57.8,17.6-86.3s26-52.2,42.7-71.2c16.8-19,34.3-36,52.8-51.1s34.1-26.2,46.9-33.5
		C172.8,3.6,180.9,0,184.3,0c13.4,0,24,10.1,31.8,30.2C185.9,48,161.4,69,142.4,93c-19,24-31,43-36,57c-5,14-7.5,24.9-7.5,32.7
		c0,14.5,11.4,34.3,34.3,59.5c22.9,25.1,34.3,45.5,34.3,61.1c0,20.1-11.2,37.1-33.5,51.1c-22.4,14-47.5,20.9-75.4,20.9
		c-10.1,0-21.2-1.7-33.5-5C8.4,345.7,0,306.6,0,253z M241.2,253c0-29,5.9-57.8,17.6-86.3c11.7-28.5,26-52.2,42.7-71.2
		c16.8-19,34.1-36,51.9-51.1c17.8-15.1,33.2-26.2,46.1-33.5C412.4,3.6,420.5,0,423.8,0c14.5,0,25.7,10.1,33.5,30.2
		C427.2,48,402.3,69,382.8,93c-19.6,24-31.8,43-36.9,57c-5,14-7.5,24.9-7.5,32.7c0,14.5,11.4,34.3,34.3,59.5
		c22.9,25.1,34.3,45.5,34.3,61.1c0,20.1-10.9,37.1-32.7,51.1c-21.8,14-46.6,20.9-74.5,20.9c-12.3,0-24-1.7-35.2-5
		C249,347.9,241.2,308.8,241.2,253z"/>
</g>
</svg>
