<svg xmlns="http://www.w3.org/2000/svg" xmlns:xlink="http://www.w3.org/1999/xlink" width="17" height="130" viewBox="0 0 17 130"><defs><style>.a{fill:none;}.b{clip-path:url(#a);}.c{fill:#FA8565;}</style><clipPath id="a"><rect class="a" width="17" height="130"/></clipPath></defs><g class="b"><g transform="translate(-43 -624)"><circle class="c" cx="4.5" cy="4.5" r="4.5" transform="translate(45 628)"/></g><g transform="translate(-43 -608)"><circle class="c" cx="4.5" cy="4.5" r="4.5" transform="translate(45 628)"/></g><g transform="translate(-43 -592)"><circle class="c" cx="4.5" cy="4.5" r="4.5" transform="translate(45 628)"/></g><g transform="translate(-43 -576)"><circle class="c" cx="4.5" cy="4.5" r="4.5" transform="translate(45 628)"/></g><g transform="translate(-43 -560)"><circle class="c" cx="4.5" cy="4.5" r="4.5" transform="translate(45 628)"/></g><g transform="translate(-43 -544)"><circle class="c" cx="4.5" cy="4.5" r="4.5" transform="translate(45 628)"/></g><g transform="translate(-43 -528)"><circle class="c" cx="4.5" cy="4.5" r="4.5" transform="translate(45 628)"/></g><g transform="translate(-43 -512)"><circle class="c" cx="4.5" cy="4.5" r="4.5" transform="translate(45 628)"/></g><g transform="translate(-43 -496)"><circle class="c" cx="4.5" cy="4.5" r="4.5" transform="translate(45 628)"/></g></g></svg>