<svg xmlns="http://www.w3.org/2000/svg" width="40" height="40" viewBox="0 0 40 40"><defs><style>.a{fill:#fa8565;}</style></defs><path class="a" d="M20,40A20,20,0,1,1,40,20,20,20,0,0,1,20,40ZM20,.976A19.024,19.024,0,1,0,39.024,20,19.024,19.024,0,0,0,20,.976Z" transform="translate(0 0)"/><path class="a" d="M37.393,29.707a5.917,5.917,0,0,1-1.7.464,2.951,2.951,0,0,0,1.3-1.631,5.889,5.889,0,0,1-1.875.716,2.955,2.955,0,0,0-5.106,2.019,2.911,2.911,0,0,0,.076.672A8.4,8.4,0,0,1,24,28.863a2.959,2.959,0,0,0,.916,3.942,2.959,2.959,0,0,1-1.339-.368v.036a2.955,2.955,0,0,0,2.371,2.895,2.879,2.879,0,0,1-.78.1,2.923,2.923,0,0,1-.568-.052,2.951,2.951,0,0,0,2.759,2.051A5.973,5.973,0,0,1,23,38.695a8.392,8.392,0,0,0,12.922-7.069v-.4a6,6,0,0,0,1.471-1.519" transform="translate(-10.197 -13.126)"/></svg>