<svg xmlns="http://www.w3.org/2000/svg" viewBox="0 0 457.33 375.24"><defs><style>.cls-1{isolation:isolate;}.cls-2{fill:#fa8565;}</style></defs><title>quotation</title><g id="Layer_2" data-name="Layer 2"><g id="Layer_1-2" data-name="Layer 1"><g class="cls-1"><g class="cls-1"><path class="cls-2" d="M0,253q0-43.53,17.59-86.27T60.31,95.49a453.65,453.65,0,0,1,52.77-51.1q27.63-22.6,46.9-33.5T184.27,0q20.1,0,31.83,30.15Q170.88,57,142.39,93t-36,57q-7.53,21-7.53,32.67,0,21.78,34.34,59.47t34.34,61.14q0,30.15-33.5,51.09T58.63,375.24q-15.08,0-33.5-5Q0,333.4,0,253Zm241.23,0q0-43.53,17.59-86.27t42.72-71.19a495.75,495.75,0,0,1,51.93-51.1q26.77-22.6,46.07-33.5C412.36,3.64,420.48,0,423.83,0q21.75,0,33.5,30.15Q412.11,57,382.78,93t-36.85,57q-7.55,21-7.54,32.67,0,21.78,34.34,59.47t34.34,61.14q0,30.15-32.66,51.09t-74.55,20.94a121.63,121.63,0,0,1-35.18-5Q241.21,336.73,241.23,253Z"/></g></g></g></g></svg>